<svg width="1625" height="236" viewBox="0 0 1625 236" fill="none" xmlns="http://www.w3.org/2000/svg">
    <path d="M1268.04 0H1271.29V7.24088H1274.53V16.292H1277.78V10.8613H1281.02V34.3942H1284.27V23.5328H1287.51V43.4453H1290.76V34.3942H1294V88.7007H1297.25V74.219H1300.49V106.803H1303.74V88.7007H1306.98V74.219H1310.23V54.3066H1313.47V74.219H1316.72V61.5475H1319.96V47.0657H1323.21V34.3942H1326.45V23.5328H1329.7V12.6715H1332.94V23.5328H1336.19V38.0146H1339.43V57.927H1342.68V72.4088H1345.92V85.0803H1349.17V103.859H1352.42V98.9952H1355.66V94.1314H1358.91V98.9952H1362.15V106.291H1365.4V101.427H1368.64V118.45H1371.89V111.155H1375.13V125.746H1378.38V118.45H1381.62V125.746H1384.87V106.291H1388.11V118.45H1391.36V125.746H1394.6V147.542H1397.85V143.556H1401.09V157.507H1404.34V151.528H1407.58V163.487H1410.83V157.507H1414.07V163.487H1417.32V157.507H1420.56V151.528H1423.81V145.549H1427.05V141.563H1430.3V137.577H1433.54V141.563H1436.79V147.542H1440.03V143.556H1443.28V157.507H1446.52V151.528H1449.77V163.487H1453.01V157.507H1456.26V163.487H1459.5V157.507H1462.75V151.528H1465.99V145.549H1469.24V141.563H1472.48V137.577H1475.73V141.563H1478.97V147.542H1482.22V143.556H1485.46V157.507H1488.71V151.528H1491.95V163.487H1495.2V157.507H1498.44V189.396H1501.69V181.424H1504.93V197.369H1508.18V189.396H1511.42V181.424H1514.67V169.466H1517.91V181.424H1521.16V173.452H1524.4V165.48H1527.65V157.507H1530.89V151.528H1534.14V159.299H1537.38V164.73H1540.63V170.161H1543.87V175.591H1547.12V170.161H1550.36V164.73H1553.61V159.299H1556.85V155.679H1560.1V152.058H1563.34V155.679H1566.59V161.109H1569.83V157.489H1573.08V170.161H1576.32V164.73H1579.57V175.591H1582.81V170.161H1586.06V175.591H1589.3V161.109H1592.55V170.161H1595.79V175.591H1599.04V182.832H1602.28V171.971H1605.53V190.073H1608.77V199.124H1612.02V195.504H1615.26V202.745H1618.51V209.985H1621.75V213.606H1625V236H0V217H3.24506V215H6.49011V211H9.73517V207H12.9802V209H16.2253V204H19.4704V194H22.7154V200H25.9605V196H29.2055V193H32.4506V188H35.6956V196H38.9407V193H42.1858V196H45.4308V190H48.6759V193H51.921V186H55.166V188H58.4111V185H61.6561V183H64.9012V185H68.1462V187H71.3913V190H74.6364V193H77.8814V196H81.1265V193H84.3716V190H87.6166V187H90.8617V182.707H94.1067V186.01H97.3518V190.414H100.597V194.818H103.842V199.222H107.087V192.616H110.332V199.222H113.577V203.626H116.822V208.03H120.067V199.222H123.312V203.626H126.557V186.01H129.802V189.313H133.047V182.707H136.292V186.01H139.538V178.303H142.783V180.505H146.028V177.202H149.273V175H152.518V177.202H155.763V179.404H159.008V182.707H162.253V186.01H165.498V189.313H168.743V186.01H171.988V189.313H175.233V182.707H178.478V186.01H181.723V178.303H184.968V180.505H188.213V177.202H191.458V175H194.704V177.202H197.949V179.404H201.194V182.707H204.439V186.01H207.684V189.313H210.929V186.01H214.174V189.313H217.419V182.707H220.664V186.01H223.909V178.303H227.154V180.505H230.399V168.465H233.644V164.434H236.889V157.717H240.134V168.465H243.379V164.434H246.625V168.465H249.87V160.404H253.115V164.434H256.36V155.03H259.605V157.717H262.85V153.687H266.095V151H269.34V153.687H272.585V156.374H275.83V146H279.075V139H282.32V131H285.565V120H288.81V112H292.055V106H295.3V112H298.545V118H301.791V125H305.036V133H308.281V140H311.526V129H314.771V140H318.016V148H321.261V158H324.506V140H327.751V148H330.996V118H334.241V123H337.486V112H340.731V118H343.976V105H347.221V108H350.466V103H353.711V99H356.956V103H360.202V106H363.447V112H366.692V118H369.937V145H373.182V118H376.427V123H379.672V112H382.917V118H386.162V105H389.407V108H392.652V103H395.897V99H399.142V103H402.387V106H405.632V112H408.877V118H412.122V123H415.368V118H418.613V123H421.858V112H425.103V118H428.348V105H431.593V108H434.838V130.13H438.083V128.086H441.328V136.941H444.573V132.854H447.818V140.346H451.063V136.941H454.308V140.346H457.553V136.941H460.798V132.854H464.043V128.768H467.289V126.724H470.534V124H473.779V126.724H477.024V130.13H480.269V128.086H483.514V136.941H486.759V132.854H490.004V140.346H493.249V136.941H496.494V155.33H499.739V136.941H502.984V132.854H506.229V128.768H509.474V126.724H512.719V124H515.964V126.724H519.209V130.13H522.455V128.086H525.7V136.941H528.945V132.854H532.19V140.346H535.435V136.941H538.68V157.373H541.925V151.924H545.17V164.184H548.415V157.373H551.66V151.924H554.905V144.432H558.15V151.924H561.395V147.157H564.64V141.708H567.885V136.941H571.13V132.854H574.375V128.768H577.621V132.854H580.866V138.303H584.111V145.795H587.356V151.243H590.601V156.011H593.846V163.076H597.091V161.246H600.336V159.416H603.581V161.246H606.826V163.991H610.071V162.161H613.316V168.566H616.561V165.821H619.806V171.311H623.051V168.566H626.296V171.311H629.541V163.991H632.787V168.566H636.032V171.311H639.277V179.512H642.522V178.012H645.767V183.261H649.012V181.011H652.257V185.511H655.502V183.261H658.747V185.511H661.992V183.261H665.237V181.011H668.482V178.762H671.727V177.262H674.972V175.762H678.217V177.262H681.462V179.512H684.707V178.012H687.953V183.261H691.198V181.011H694.443V185.511H697.688V183.261H700.933V185.511H704.178V183.261H707.423V181.011H710.668V178.762H713.913V177.262H717.158V180.942H720.403V177.69H723.648V174.439H726.893V172H730.138V175.17H733.383V177.385H736.628V179.6H739.874V181.815H743.119V179.6H746.364V177.385H749.609V175.17H752.854V173.693H756.099V172.216H759.344V173.693H762.589V175.908H765.834V174.431H769.079V179.6H772.324V177.385H775.569V181.815H778.814V179.6H782.059V181.815H785.304V175.908H788.549V179.6H791.794V181.815H795.039V184.768H798.285V180.338H801.53V187.721H804V177.98H807.245V175.307H810.49V169.961H813.735V164.615H816.98V167.288H820.225V160.605H823.47V147.24H826.715V155.259H829.961V149.913H833.206V145.903H836.451V139.22H839.696V149.913H842.941V145.903H846.186V149.913H849.431V141.893H852.676V145.903H855.921V136.547H859.166V139.22H862.411V135.211H865.656V132.538H868.901V135.211H872.146V137.884H875.391V141.893H878.636V145.903H881.881V149.913H885.126V145.903H888.372V141.893H891.617V137.884H894.862V132.146H898.107V136.561H901.352V142.447H904.597V148.333H907.842V141.671H911.087V144.386H914.332V148.458H917.577V152.531H920.822V156.603H924.067V152.531H927.312V156.603H930.557V148.458H933.802V152.531H937.047V143.029H940.292V145.744H943.538V141.671H946.783V138.956H950.028V141.671H953.273V144.386H956.518V148.458H959.763V152.531H963.008V156.603H966.253V152.531H969.498V156.603H972.743V148.458H975.988V152.531H979.233V143.029H982.478V145.744H985.723V130.899H988.968V125.93H992.214V117.648H995.458V130.899H998.704V125.93H1001.95V130.899H1005.19V120.961H1008.44V125.93H1011.68V114.336H1014.93V117.648H1018.17V112.679H1021.42V109.367H1024.66V112.679H1027.91V115.992H1031.15V103.202H1034.4V94.5717H1037.64V84.7084H1040.89V71.1465H1044.13V61.2833H1047.38V53.8858H1050.62V61.2833H1053.87V68.6807H1057.11V77.311H1060.36V87.1743H1063.6V95.8046H1066.85V82.2426H1070.09V95.8046H1073.34V105.668H1076.58V117.997H1079.83V95.8046H1083.08V105.668H1086.32V68.6807H1089.57V74.8452H1092.81V61.2833H1096.06V68.6807H1099.3V52.6529H1102.55V56.3516H1105.79V50.1871H1109.04V45.2555H1112.28V50.1871H1115.53V53.8858H1118.77V61.2833H1122.02V68.6807H1125.26V101.969H1128.51V68.6807H1131.75V74.8452H1135V61.2833H1138.24V68.6807H1141.49V52.6529H1144.73V56.3516H1147.98V50.1871H1151.22V45.2555H1154.47V50.1871H1157.71V53.8858H1160.96V61.2833H1164.2V68.6807H1167.45V74.8452H1170.69V68.6807H1173.94V74.8452H1177.18V61.2833H1180.43V68.6807H1183.67V52.6529H1186.92V56.3516H1190.16V16.292H1193.41V10.8613H1196.65V34.3942H1199.9V23.5328H1203.14V43.4453H1206.39V34.3942H1209.63V43.4453H1212.88V34.3942H1216.12V23.5328H1219.37V12.6715H1222.61V7.24088H1225.86V0H1229.1V7.24088H1232.35V16.292H1235.59V10.8613H1238.84V34.3942H1242.08V23.5328H1245.33V43.4453H1248.57V34.3942H1251.82V83.2701H1255.06V34.3942H1258.31V23.5328H1261.55V12.6715H1264.8V7.24088H1268.04V0Z" fill="white"/>
</svg>
