<svg width="66" height="91" viewBox="0 0 66 91" fill="none" xmlns="http://www.w3.org/2000/svg">
    <path fill-rule="evenodd" clip-rule="evenodd" d="M27.656 14.323V2.98301C27.656 1.59401 28.779 0.471008 30.168 0.471008C31.557 0.471008 32.68 1.59401 32.68 2.98301V14.323C32.68 15.712 31.557 16.835 30.168 16.835C28.779 16.835 27.656 15.712 27.656 14.323ZM57.828 33.155L46.492 33.153C45.103 33.153 43.978 32.028 43.978 30.639C43.978 29.252 45.103 28.127 46.492 28.127L57.828 28.129C59.217 28.129 60.342 29.254 60.342 30.641C60.342 32.03 59.215 33.155 57.828 33.155ZM0 30.6391C0 32.0261 1.125 33.1511 2.512 33.1511H13.854C15.241 33.1511 16.366 32.0261 16.366 30.6391C16.366 29.2501 15.241 28.1251 13.854 28.1251H2.512C1.125 28.1251 0 29.2501 0 30.6391ZM8.834 12.86C7.854 11.879 7.854 10.287 8.834 9.30699C9.814 8.32499 11.406 8.32599 12.386 9.30499L20.409 17.325C21.389 18.308 21.389 19.898 20.409 20.88C19.919 21.37 19.274 21.614 18.632 21.614C17.99 21.614 17.347 21.37 16.857 20.88L8.834 12.86ZM51.506 9.30698C50.524 8.32498 48.934 8.32698 47.951 9.30498L39.931 17.323C38.951 18.303 38.951 19.895 39.931 20.876C40.421 21.368 41.066 21.612 41.708 21.612C42.35 21.612 42.994 21.368 43.484 20.877L51.504 12.859C52.486 11.879 52.486 10.287 51.506 9.30698ZM12.386 51.973C11.896 52.461 11.254 52.707 10.611 52.707C9.96902 52.707 9.32402 52.461 8.83302 51.971C7.85302 50.99 7.85302 49.398 8.83302 48.418L16.856 40.398C17.837 39.42 19.427 39.418 20.409 40.4C21.389 41.381 21.389 42.973 20.409 43.953L12.386 51.973Z" fill="#9EA3A6"/>
    <path d="M65.267 59.323C65.578 58.376 65.298 57.333 64.554 56.669L29.035 24.912C28.273 24.232 27.18 24.08 26.262 24.527C25.344 24.974 24.787 25.931 24.854 26.949L27.961 74.494C28.025 75.49 28.674 76.353 29.611 76.693C29.892 76.795 30.179 76.843 30.466 76.843C31.144 76.843 31.804 76.57 32.288 76.062L43.102 64.685L55.59 89.158C56.033 90.027 56.914 90.529 57.828 90.529C58.213 90.529 58.603 90.439 58.969 90.254C60.205 89.623 60.696 88.109 60.065 86.873L47.642 62.53L63.121 61.042C64.113 60.946 64.957 60.272 65.267 59.323ZM43.488 57.879C42.886 57.938 42.324 58.211 41.906 58.649L32.599 68.442L30.269 32.756L56.925 56.588L43.488 57.879Z" fill="#3C474E" fill-opacity="0.8"/>
</svg>
