<svg width="68" height="72" viewBox="0 0 68 72" fill="none" xmlns="http://www.w3.org/2000/svg">
    <path d="M64.4211 43.1579V21.6842C66.5684 21.6842 68 20.2526 68 18.1052C68 15.9579 66.5684 14.5263 64.4211 14.5263V3.78946C64.4211 1.64209 62.9895 0.21051 60.8421 0.21051H3.57895C1.43158 0.21051 0 1.64209 0 3.78946V61.0526C0 63.2 1.43158 64.6316 3.57895 64.6316H10.7368V68.2105C10.7368 70.3579 12.1684 71.7895 14.3158 71.7895C16.4632 71.7895 17.8947 70.3579 17.8947 68.2105V64.6316H46.5263V68.2105C46.5263 70.3579 47.9579 71.7895 50.1053 71.7895C52.2526 71.7895 53.6842 70.3579 53.6842 68.2105V64.6316H60.8421C62.9895 64.6316 64.4211 63.2 64.4211 61.0526V50.3158C66.5684 50.3158 68 48.8842 68 46.7368C68 44.5895 66.5684 43.1579 64.4211 43.1579ZM7.15789 57.4737V7.36841H57.2632V14.5263C55.1158 14.5263 53.6842 15.9579 53.6842 18.1052C53.6842 20.2526 55.1158 21.6842 57.2632 21.6842V43.1579C55.1158 43.1579 53.6842 44.5895 53.6842 46.7368C53.6842 48.8842 55.1158 50.3158 57.2632 50.3158V57.4737H7.15789Z" fill="#9EA3A6"/>
    <path fill-rule="evenodd" clip-rule="evenodd" d="M33.1518 14.2105H29.3482V19.3157C27.2137 19.5895 25.2368 20.3861 23.5511 21.5721L20.0436 18.0646L17.3541 20.7541L20.7885 24.1886C19.467 25.8652 18.5476 27.8715 18.1793 30.0587H13.5V33.8623H18.1052C18.3948 36.1204 19.2696 38.2022 20.5715 39.9493L17.354 43.1668L20.0435 45.8564L23.2611 42.6389C25.0083 43.9408 27.09 44.8157 29.3482 45.1053V49.7105H33.1518V45.0312C35.339 44.6629 37.3454 43.7435 39.0219 42.422L42.4563 45.8564L45.1459 43.1669L41.6384 39.6594C42.8244 37.9737 43.621 35.9968 43.8948 33.8623H49V30.0587H43.8207C43.4729 27.9933 42.6336 26.089 41.4284 24.4716L45.1458 20.7541L42.4563 18.0646L38.7388 21.7821C37.1214 20.5768 35.2172 19.7376 33.1518 19.3898V14.2105ZM31 42.2105C36.5228 42.2105 41 37.7334 41 32.2105C41 26.6877 36.5228 22.2105 31 22.2105C25.4772 22.2105 21 26.6877 21 32.2105C21 37.7334 25.4772 42.2105 31 42.2105Z" fill="#3C474E"/>
</svg>
