<svg width="72" height="72" viewBox="0 0 72 72" fill="none" xmlns="http://www.w3.org/2000/svg">
    <path d="M36 0C16.1432 0 0 16.1432 0 36C0 55.8568 16.1432 72 36 72C55.8568 72 72 55.8568 72 36C72 16.1432 55.8568 0 36 0ZM59.1158 54.6442L53.28 48.8084L48.8084 53.28L54.6442 59.1158C49.5663 63.2084 43.0484 65.7095 36 65.7095C19.6295 65.7095 6.29053 52.3705 6.29053 36C6.29053 28.9516 8.79158 22.4337 12.8842 17.3558L18.72 23.1916L23.1916 18.72L17.3558 12.8842C22.4337 8.79158 28.9516 6.29053 36 6.29053C52.3705 6.29053 65.7095 19.6295 65.7095 36C65.7095 43.0484 63.2084 49.5663 59.1158 54.6442Z" fill="#9EA3A6"/>
    <path d="M33.499 24.9348H38.5011C40.699 24.9348 42.4421 26.7537 42.4421 28.8758H48.7326C48.7326 23.419 44.4884 19.0232 39.1074 18.6443V13.1116H32.8168V18.6443C27.4358 19.0232 23.1916 23.419 23.1916 28.8758C23.1916 34.5601 27.8147 39.1832 33.499 39.1832H38.5011C40.699 39.1832 42.4421 41.0022 42.4421 43.1243C42.4421 45.3222 40.6232 47.0653 38.5011 47.0653H33.499C31.3011 47.0653 29.5579 45.2464 29.5579 43.1243H23.2674C23.2674 48.5811 27.5116 52.9769 32.8926 53.3558V58.8885H39.1832V53.3558C44.5642 52.9769 48.8084 48.5811 48.8084 43.1243C48.8084 37.4401 44.1853 32.8169 38.5011 32.8169H33.499C31.3011 32.8169 29.5579 30.9979 29.5579 28.8758C29.5579 26.6779 31.3011 24.9348 33.499 24.9348Z" fill="#636C71"/>
</svg>
