<svg width="94" height="53" viewBox="0 0 94 53" fill="none" xmlns="http://www.w3.org/2000/svg">
    <path d="M0.966 40.004V50H8.036V48.152H3.164V40.004H0.966ZM13.9268 45.604H10.6928C10.7022 45.464 10.7302 45.3053 10.7768 45.128C10.8328 44.9507 10.9215 44.7827 11.0428 44.624C11.1735 44.4653 11.3415 44.3347 11.5468 44.232C11.7615 44.12 12.0275 44.064 12.3448 44.064C12.8302 44.064 13.1895 44.1947 13.4228 44.456C13.6655 44.7173 13.8335 45.1 13.9268 45.604ZM10.6928 46.864H15.9148C15.9522 46.304 15.9055 45.7673 15.7748 45.254C15.6442 44.7407 15.4295 44.2833 15.1308 43.882C14.8415 43.4807 14.4682 43.1633 14.0108 42.93C13.5535 42.6873 13.0168 42.566 12.4008 42.566C11.8502 42.566 11.3462 42.664 10.8888 42.86C10.4408 43.056 10.0535 43.3267 9.72683 43.672C9.40016 44.008 9.14816 44.4093 8.97083 44.876C8.79349 45.3427 8.70483 45.8467 8.70483 46.388C8.70483 46.948 8.78883 47.4613 8.95683 47.928C9.13416 48.3947 9.38149 48.796 9.69883 49.132C10.0162 49.468 10.4035 49.7293 10.8608 49.916C11.3182 50.0933 11.8315 50.182 12.4008 50.182C13.2222 50.182 13.9222 49.9953 14.5008 49.622C15.0795 49.2487 15.5088 48.628 15.7888 47.76H14.0388C13.9735 47.984 13.7962 48.1987 13.5068 48.404C13.2175 48.6 12.8722 48.698 12.4708 48.698C11.9108 48.698 11.4815 48.5533 11.1828 48.264C10.8842 47.9747 10.7208 47.508 10.6928 46.864ZM18.9419 46.192L16.3379 50H18.5639L20.0759 47.718L21.5879 50H23.8559L21.1819 46.15L23.5619 42.762H21.3639L20.1039 44.652L18.8299 42.762H16.5619L18.9419 46.192ZM29.4854 45.604H26.2514C26.2608 45.464 26.2888 45.3053 26.3354 45.128C26.3914 44.9507 26.4801 44.7827 26.6014 44.624C26.7321 44.4653 26.9001 44.3347 27.1054 44.232C27.3201 44.12 27.5861 44.064 27.9034 44.064C28.3888 44.064 28.7481 44.1947 28.9814 44.456C29.2241 44.7173 29.3921 45.1 29.4854 45.604ZM26.2514 46.864H31.4734C31.5108 46.304 31.4641 45.7673 31.3334 45.254C31.2028 44.7407 30.9881 44.2833 30.6894 43.882C30.4001 43.4807 30.0268 43.1633 29.5694 42.93C29.1121 42.6873 28.5754 42.566 27.9594 42.566C27.4088 42.566 26.9048 42.664 26.4474 42.86C25.9994 43.056 25.6121 43.3267 25.2854 43.672C24.9588 44.008 24.7068 44.4093 24.5294 44.876C24.3521 45.3427 24.2634 45.8467 24.2634 46.388C24.2634 46.948 24.3474 47.4613 24.5154 47.928C24.6928 48.3947 24.9401 48.796 25.2574 49.132C25.5748 49.468 25.9621 49.7293 26.4194 49.916C26.8768 50.0933 27.3901 50.182 27.9594 50.182C28.7808 50.182 29.4808 49.9953 30.0594 49.622C30.6381 49.2487 31.0674 48.628 31.3474 47.76H29.5974C29.5321 47.984 29.3548 48.1987 29.0654 48.404C28.7761 48.6 28.4308 48.698 28.0294 48.698C27.4694 48.698 27.0401 48.5533 26.7414 48.264C26.4428 47.9747 26.2794 47.508 26.2514 46.864ZM32.6525 42.762V50H34.6405V46.738C34.6405 46.4113 34.6732 46.108 34.7385 45.828C34.8038 45.548 34.9112 45.3053 35.0605 45.1C35.2192 44.8853 35.4245 44.7173 35.6765 44.596C35.9285 44.4747 36.2365 44.414 36.6005 44.414C36.7218 44.414 36.8478 44.4233 36.9785 44.442C37.1092 44.4513 37.2212 44.4653 37.3145 44.484V42.636C37.1558 42.5893 37.0112 42.566 36.8805 42.566C36.6285 42.566 36.3858 42.6033 36.1525 42.678C35.9192 42.7527 35.6998 42.86 35.4945 43C35.2892 43.1307 35.1072 43.294 34.9485 43.49C34.7898 43.6767 34.6638 43.882 34.5705 44.106H34.5425V42.762H32.6525ZM42.2004 40.004V50H44.3984V45.87H48.5844V44.162H44.3984V41.852H49.2284V40.004H42.2004ZM52.3332 41.642V40.004H50.3452V41.642H52.3332ZM50.3452 42.762V50H52.3332V42.762H50.3452ZM53.8986 42.762V50H55.8866V46.206C55.8866 45.4687 56.0079 44.9413 56.2506 44.624C56.4932 44.2973 56.8852 44.134 57.4266 44.134C57.9026 44.134 58.2339 44.2833 58.4206 44.582C58.6072 44.8713 58.7006 45.3147 58.7006 45.912V50H60.6886V45.548C60.6886 45.1 60.6466 44.694 60.5626 44.33C60.4879 43.9567 60.3526 43.644 60.1566 43.392C59.9606 43.1307 59.6899 42.93 59.3446 42.79C59.0086 42.6407 58.5746 42.566 58.0426 42.566C57.6226 42.566 57.2119 42.664 56.8106 42.86C56.4092 43.0467 56.0826 43.35 55.8306 43.77H55.7886V42.762H53.8986ZM62.1134 44.988C62.1414 44.5213 62.2581 44.134 62.4634 43.826C62.6687 43.518 62.9301 43.2707 63.2474 43.084C63.5647 42.8973 63.9194 42.7667 64.3114 42.692C64.7127 42.608 65.1141 42.566 65.5154 42.566C65.8794 42.566 66.2481 42.594 66.6214 42.65C66.9947 42.6967 67.3354 42.7947 67.6434 42.944C67.9514 43.0933 68.2034 43.3033 68.3994 43.574C68.5954 43.8353 68.6934 44.1853 68.6934 44.624V48.39C68.6934 48.7167 68.7121 49.0293 68.7494 49.328C68.7867 49.6267 68.8521 49.8507 68.9454 50H66.9294C66.8921 49.888 66.8594 49.776 66.8314 49.664C66.8127 49.5427 66.7987 49.4213 66.7894 49.3C66.4721 49.6267 66.0987 49.8553 65.6694 49.986C65.2401 50.1167 64.8014 50.182 64.3534 50.182C64.0081 50.182 63.6861 50.14 63.3874 50.056C63.0887 49.972 62.8274 49.8413 62.6034 49.664C62.3794 49.4867 62.2021 49.2627 62.0714 48.992C61.9501 48.7213 61.8894 48.3993 61.8894 48.026C61.8894 47.6153 61.9594 47.2793 62.0994 47.018C62.2487 46.7473 62.4354 46.5327 62.6594 46.374C62.8927 46.2153 63.1541 46.0987 63.4434 46.024C63.7421 45.94 64.0407 45.8747 64.3394 45.828C64.6381 45.7813 64.9321 45.744 65.2214 45.716C65.5107 45.688 65.7674 45.646 65.9914 45.59C66.2154 45.534 66.3927 45.4547 66.5234 45.352C66.6541 45.24 66.7147 45.0813 66.7054 44.876C66.7054 44.6613 66.6681 44.4933 66.5934 44.372C66.5281 44.2413 66.4347 44.1433 66.3134 44.078C66.2014 44.0033 66.0661 43.9567 65.9074 43.938C65.7581 43.91 65.5947 43.896 65.4174 43.896C65.0254 43.896 64.7174 43.98 64.4934 44.148C64.2694 44.316 64.1387 44.596 64.1014 44.988H62.1134ZM66.7054 46.458C66.6214 46.5327 66.5141 46.5933 66.3834 46.64C66.2621 46.6773 66.1267 46.71 65.9774 46.738C65.8374 46.766 65.6881 46.7893 65.5294 46.808C65.3707 46.8267 65.2121 46.85 65.0534 46.878C64.9041 46.906 64.7547 46.9433 64.6054 46.99C64.4654 47.0367 64.3394 47.102 64.2274 47.186C64.1247 47.2607 64.0407 47.3587 63.9754 47.48C63.9101 47.6013 63.8774 47.7553 63.8774 47.942C63.8774 48.1193 63.9101 48.2687 63.9754 48.39C64.0407 48.5113 64.1294 48.6093 64.2414 48.684C64.3534 48.7493 64.4841 48.796 64.6334 48.824C64.7827 48.852 64.9367 48.866 65.0954 48.866C65.4874 48.866 65.7907 48.8007 66.0054 48.67C66.2201 48.5393 66.3787 48.3853 66.4814 48.208C66.5841 48.0213 66.6447 47.8347 66.6634 47.648C66.6914 47.4613 66.7054 47.312 66.7054 47.2V46.458ZM70.2365 42.762V50H72.2245V46.206C72.2245 45.4687 72.3458 44.9413 72.5885 44.624C72.8311 44.2973 73.2231 44.134 73.7645 44.134C74.2405 44.134 74.5718 44.2833 74.7585 44.582C74.9451 44.8713 75.0385 45.3147 75.0385 45.912V50H77.0265V45.548C77.0265 45.1 76.9845 44.694 76.9005 44.33C76.8258 43.9567 76.6905 43.644 76.4945 43.392C76.2985 43.1307 76.0278 42.93 75.6825 42.79C75.3465 42.6407 74.9125 42.566 74.3805 42.566C73.9605 42.566 73.5498 42.664 73.1485 42.86C72.7471 43.0467 72.4205 43.35 72.1685 43.77H72.1265V42.762H70.2365ZM83.4633 45.31H85.4093C85.3813 44.8433 85.2693 44.442 85.0733 44.106C84.8773 43.7607 84.6206 43.476 84.3033 43.252C83.9953 43.0187 83.6406 42.846 83.2393 42.734C82.8473 42.622 82.4366 42.566 82.0073 42.566C81.4193 42.566 80.8966 42.664 80.4393 42.86C79.982 43.056 79.5946 43.3313 79.2773 43.686C78.96 44.0313 78.7173 44.4467 78.5493 44.932C78.3906 45.408 78.3113 45.926 78.3113 46.486C78.3113 47.0273 78.4 47.5267 78.5773 47.984C78.7546 48.432 79.002 48.8193 79.3193 49.146C79.6366 49.4727 80.0193 49.7293 80.4673 49.916C80.9246 50.0933 81.424 50.182 81.9653 50.182C82.9266 50.182 83.7153 49.93 84.3313 49.426C84.9473 48.922 85.3206 48.1893 85.4513 47.228H83.5333C83.468 47.676 83.3046 48.0353 83.0433 48.306C82.7913 48.5673 82.4273 48.698 81.9513 48.698C81.6433 48.698 81.382 48.628 81.1673 48.488C80.9526 48.348 80.78 48.1707 80.6493 47.956C80.528 47.732 80.4393 47.4847 80.3833 47.214C80.3273 46.9433 80.2993 46.6773 80.2993 46.416C80.2993 46.1453 80.3273 45.8747 80.3833 45.604C80.4393 45.324 80.5326 45.072 80.6633 44.848C80.8033 44.6147 80.9806 44.428 81.1953 44.288C81.41 44.1387 81.676 44.064 81.9933 44.064C82.8426 44.064 83.3326 44.4793 83.4633 45.31ZM91.4464 45.604H88.2124C88.2217 45.464 88.2497 45.3053 88.2964 45.128C88.3524 44.9507 88.441 44.7827 88.5624 44.624C88.693 44.4653 88.861 44.3347 89.0664 44.232C89.281 44.12 89.547 44.064 89.8644 44.064C90.3497 44.064 90.709 44.1947 90.9424 44.456C91.185 44.7173 91.353 45.1 91.4464 45.604ZM88.2124 46.864H93.4344C93.4717 46.304 93.425 45.7673 93.2944 45.254C93.1637 44.7407 92.949 44.2833 92.6504 43.882C92.361 43.4807 91.9877 43.1633 91.5304 42.93C91.073 42.6873 90.5364 42.566 89.9204 42.566C89.3697 42.566 88.8657 42.664 88.4084 42.86C87.9604 43.056 87.573 43.3267 87.2464 43.672C86.9197 44.008 86.6677 44.4093 86.4904 44.876C86.313 45.3427 86.2244 45.8467 86.2244 46.388C86.2244 46.948 86.3084 47.4613 86.4764 47.928C86.6537 48.3947 86.901 48.796 87.2184 49.132C87.5357 49.468 87.923 49.7293 88.3804 49.916C88.8377 50.0933 89.351 50.182 89.9204 50.182C90.7417 50.182 91.4417 49.9953 92.0204 49.622C92.599 49.2487 93.0284 48.628 93.3084 47.76H91.5584C91.493 47.984 91.3157 48.1987 91.0264 48.404C90.737 48.6 90.3917 48.698 89.9904 48.698C89.4304 48.698 89.001 48.5533 88.7024 48.264C88.4037 47.9747 88.2404 47.508 88.2124 46.864Z" fill="#CCCCCC"/>
    <path fill-rule="evenodd" clip-rule="evenodd" d="M45.2774 19.6229C45.1088 19.9508 44.9152 20.2923 44.697 20.6473C44.4748 21.0088 44.227 21.3688 43.9539 21.7275L43.9518 21.7304L43.9496 21.7331C43.6673 22.0931 43.3571 22.4213 43.0191 22.7171L43.0182 22.7179C42.6819 23.0107 42.3155 23.2494 41.9196 23.4321C41.5073 23.6378 41.0646 23.74 40.598 23.74C39.8797 23.74 39.2423 23.5139 38.712 23.0555C38.2185 22.6289 37.8108 22.0792 37.4826 21.4197C37.1598 20.7711 36.8998 20.0432 36.6997 19.2392L36.6988 19.2355L36.6979 19.2319C36.5114 18.4301 36.3663 17.618 36.2627 16.7957L36.2626 16.7949C36.1598 15.9685 36.0876 15.1666 36.0464 14.3894L36.0461 14.3829C36.0154 13.6133 36 12.9284 36 12.3289C36 11.4626 36.0257 10.5663 36.0769 9.64015L36.0772 9.63474C36.1389 8.70568 36.2314 7.79658 36.3549 6.9075C36.4785 6.01721 36.6333 5.17141 36.8197 4.37042L36.8211 4.36457C37.0189 3.5595 37.25 2.8446 37.5166 2.22307L37.518 2.21983L37.5195 2.2166C37.7992 1.58972 38.1272 1.06767 38.5127 0.668647C38.9265 0.240291 39.4288 0 40.0042 0C40.4181 0 40.8041 0.10108 41.1487 0.31173C41.5226 0.523384 41.808 0.859264 42.0209 1.27518C42.2333 1.69005 42.387 2.20529 42.4936 2.80497C42.6017 3.41355 42.6534 4.1428 42.6534 4.98662C42.6534 6.04072 42.5432 7.1278 42.3245 8.24723L42.3244 8.24809C42.107 9.35027 41.8124 10.4613 41.4408 11.5812C41.0699 12.6993 40.6322 13.8165 40.1282 14.9326L40.1275 14.9342C39.6503 15.981 39.1407 17.0048 38.5986 18.0055C38.8422 19.1874 39.1563 20.0925 39.5275 20.7412C39.9063 21.3931 40.2853 21.5985 40.6437 21.5985C40.912 21.5985 41.1946 21.4974 41.5003 21.2409C41.8438 20.9421 42.1626 20.5893 42.4561 20.1803C42.7581 19.7595 43.0197 19.3357 43.2417 18.909L43.2436 18.9054C43.4658 18.4869 43.7338 18.0086 44.0026 17.5351L45.5241 14.3375L45.5314 14.3244C45.6217 14.161 45.7476 14.0276 45.9002 13.9254C46.073 13.8097 46.2688 13.7514 46.4749 13.7514C46.759 13.7514 47.0228 13.8545 47.2233 14.0712C47.401 14.2533 47.5035 14.4791 47.5364 14.7269L47.5384 14.7418L47.5394 14.7567C47.5472 14.8656 47.5769 15.0618 47.6363 15.361C47.7045 15.6543 47.7926 15.9937 47.901 16.3799C48.0205 16.76 48.1551 17.1706 48.3047 17.6117C48.3602 17.7647 48.4187 17.9172 48.4803 18.0691C49.5775 16.3449 50.7713 14.6869 52.0618 13.095C52.2707 12.8263 52.5701 12.7113 52.8847 12.7113C53.1722 12.7113 53.4344 12.816 53.6403 13.0229C53.8395 13.2231 53.9505 13.4787 53.9505 13.7667C53.9505 14.0203 53.8669 14.2566 53.698 14.4504C52.2182 16.2854 50.8623 18.2128 49.6304 20.2325C49.9119 20.6137 50.2112 20.9307 50.5268 21.1874C50.8683 21.4651 51.2427 21.5985 51.6667 21.5985C52.0444 21.5985 52.4054 21.4911 52.7583 21.2632C53.1445 21.0137 53.4956 20.7079 53.8116 20.3437L53.8122 20.3431C54.1455 19.9603 54.43 19.5552 54.6665 19.1275L54.6682 19.1243C54.9237 18.6702 55.1147 18.2701 55.2457 17.9224L55.2473 17.9181L55.249 17.9138C55.3257 17.7212 55.4458 17.5409 55.6275 17.4105C55.8118 17.2782 56.0229 17.2237 56.2342 17.2237C56.5297 17.2237 56.8033 17.3333 57.005 17.5662C57.1947 17.764 57.3 18.0138 57.3 18.2945C57.3 18.3909 57.2838 18.4889 57.263 18.5789C57.2594 18.5982 57.2557 18.6122 57.2543 18.6175C57.2514 18.6286 57.2486 18.6374 57.247 18.6423C57.2438 18.6522 57.241 18.6599 57.2397 18.6633C57.2338 18.679 57.2266 18.6955 57.2258 18.6971C57.2203 18.71 57.2114 18.7299 57.2 18.7554C57.1768 18.8073 57.1396 18.8896 57.0889 19.0018C56.9784 19.2459 56.8178 19.5514 56.6116 19.914L56.6085 19.9193C56.397 20.2805 56.1405 20.6746 55.8403 21.101C55.5267 21.5464 55.1652 21.9635 54.7572 22.3518C54.3476 22.7411 53.8881 23.0638 53.3804 23.3193C52.8434 23.6 52.2647 23.74 51.6515 23.74C50.89 23.74 50.192 23.5355 49.5712 23.1236L49.5676 23.1212C49.1832 22.8612 48.8258 22.5555 48.4949 22.2054C48.4414 22.3043 48.3884 22.4031 48.336 22.5019L47.8505 23.4164L47.8495 23.4182C47.7608 23.5877 47.6346 23.7394 47.4617 23.8467C47.2875 23.9548 47.0944 24 46.9012 24C46.5989 24 46.3242 23.8862 46.1158 23.6577L46.108 23.6492L46.1006 23.6403C45.9352 23.4408 45.8355 23.1999 45.8355 22.9293C45.8355 22.7476 45.8911 22.5796 45.963 22.435L45.9653 22.4306C46.1698 22.0299 46.3794 21.6293 46.594 21.2287C46.7661 20.9078 46.9446 20.5901 47.1296 20.2756C46.833 19.7348 46.5752 19.1851 46.3565 18.6266L46.3555 18.6241C46.275 18.4151 46.1997 18.2099 46.1296 18.0086C45.8643 18.5597 45.5616 19.0854 45.2774 19.6229ZM40.5371 5.00191C40.5371 5.82363 40.4495 6.69482 40.2719 7.61636L40.2712 7.62043C40.1023 8.53872 39.8735 9.46836 39.5846 10.4094C39.2948 11.3431 38.9599 12.2721 38.5798 13.1966C38.4459 13.5189 38.3096 13.8347 38.1708 14.1441C38.1446 13.5873 38.1315 13.0078 38.1315 12.4054C38.1315 11.5594 38.1566 10.7083 38.2066 9.85187C38.267 8.99385 38.3423 8.17198 38.4325 7.38614C38.5325 6.60254 38.6523 5.87142 38.7914 5.1924C38.9306 4.51309 39.0831 3.932 39.2475 3.44629C39.4118 2.96059 39.5777 2.60162 39.7386 2.3535C39.8182 2.2384 39.8819 2.17713 39.924 2.14723C39.9443 2.13278 39.9564 2.12775 39.9613 2.12621C39.9778 2.12642 40.0038 2.12969 40.0518 2.17786C40.1131 2.23948 40.1952 2.36305 40.2785 2.58771C40.4386 3.0195 40.5371 3.80487 40.5371 5.00191Z" fill="#CCCCCC"/>
</svg>
