<svg width="218" height="218" viewBox="0 0 218 218" fill="none" xmlns="http://www.w3.org/2000/svg">
<path d="M162.707 203.85C183.831 191.889 200.358 173.218 209.667 150.799C218.976 128.379 220.535 103.494 214.096 80.0878C207.657 56.682 193.588 36.0954 174.122 21.5921C154.655 7.0888 130.904 -0.501142 106.635 0.02567L107.231 27.5079C125.38 27.114 143.141 32.7898 157.699 43.6355C172.256 54.4812 182.776 69.8761 187.592 87.3792C192.407 104.882 191.241 123.492 184.28 140.258C177.318 157.023 164.96 170.985 149.163 179.93L162.707 203.85Z" fill="#74B5FF"/>
<path d="M109 0C95.2138 -1.64399e-07 81.5527 2.61529 68.7413 7.70717L78.8942 33.2522C88.4747 29.4445 98.6905 27.4887 109 27.4887L109 0Z" fill="#2F6ECB"/>
<path d="M71.7472 6.56355C51.6388 13.8763 34.1274 26.9456 21.3958 44.1424L43.4887 60.4989C53.0095 47.639 66.1047 37.8656 81.142 32.397L71.7472 6.56355Z" fill="#FFAD56"/>
<path d="M22.2829 42.9611C7.31825 62.6115 -0.528695 86.7617 0.0276543 111.455C0.584003 136.149 9.51065 159.921 25.3451 178.877L46.442 161.255C34.6009 147.079 27.9255 129.302 27.5094 110.836C27.0934 92.37 32.9614 74.3102 44.1521 59.6155L22.2829 42.9611Z" fill="#42DBD2"/>
<path d="M24.9514 178.403C41.3253 198.232 64.1828 211.634 89.4829 216.238C114.783 220.843 140.896 216.354 163.207 203.565L149.536 179.717C132.852 189.28 113.325 192.637 94.4049 189.194C75.4852 185.751 58.3922 175.729 46.1476 160.901L24.9514 178.403Z" fill="#B37EFF"/>
</svg>
