<svg width="64" height="64" viewBox="0 0 64 64" fill="none" xmlns="http://www.w3.org/2000/svg">
<path fill-rule="evenodd" clip-rule="evenodd" d="M23 25C23 24.4477 23.4477 24 24 24H54C54.5523 24 55 24.4477 55 25V44C55 44.5523 54.5523 45 54 45H50C49.4477 45 49 45.4477 49 46V48.5858C49 49.4767 47.9229 49.9229 47.2929 49.2929L43.2929 45.2929C43.1054 45.1054 42.851 45 42.5858 45H24C23.4477 45 23 44.5523 23 44V25Z" fill="#193362"/>
<mask id="path-2-outside-1_902_7447" maskUnits="userSpaceOnUse" x="8" y="12" width="36" height="30" fill="black">
<rect fill="white" x="8" y="12" width="36" height="30"/>
<path fill-rule="evenodd" clip-rule="evenodd" d="M42 15C42 14.4477 41.5523 14 41 14H11C10.4477 14 10 14.4477 10 15V34C10 34.5523 10.4477 35 11 35H15C15.5523 35 16 35.4477 16 36V38.5858C16 39.4767 17.0771 39.9229 17.7071 39.2929L21.7071 35.2929C21.8946 35.1054 22.149 35 22.4142 35H41C41.5523 35 42 34.5523 42 34V15Z"/>
</mask>
<path fill-rule="evenodd" clip-rule="evenodd" d="M42 15C42 14.4477 41.5523 14 41 14H11C10.4477 14 10 14.4477 10 15V34C10 34.5523 10.4477 35 11 35H15C15.5523 35 16 35.4477 16 36V38.5858C16 39.4767 17.0771 39.9229 17.7071 39.2929L21.7071 35.2929C21.8946 35.1054 22.149 35 22.4142 35H41C41.5523 35 42 34.5523 42 34V15Z" fill="#193362"/>
<path d="M17.7071 39.2929L16.2929 37.8787L17.7071 39.2929ZM11 16H41V12H11V16ZM12 34V15H8V34H12ZM15 33H11V37H15V33ZM18 38.5858V36H14V38.5858H18ZM20.2929 33.8787L16.2929 37.8787L19.1213 40.7071L23.1213 36.7071L20.2929 33.8787ZM41 33H22.4142V37H41V33ZM40 15V34H44V15H40ZM41 37C42.6569 37 44 35.6569 44 34H40C40 33.4477 40.4477 33 41 33V37ZM23.1213 36.7071C22.9338 36.8946 22.6794 37 22.4142 37V33C21.6186 33 20.8555 33.3161 20.2929 33.8787L23.1213 36.7071ZM14 38.5858C14 41.2585 17.2314 42.597 19.1213 40.7071L16.2929 37.8787C16.9229 37.2487 18 37.6949 18 38.5858H14ZM15 37C14.4477 37 14 36.5523 14 36H18C18 34.3431 16.6569 33 15 33V37ZM8 34C8 35.6569 9.34315 37 11 37V33C11.5523 33 12 33.4477 12 34H8ZM41 16C40.4477 16 40 15.5523 40 15H44C44 13.3431 42.6569 12 41 12V16ZM11 12C9.34315 12 8 13.3431 8 15H12C12 15.5523 11.5523 16 11 16V12Z" fill="white" mask="url(#path-2-outside-1_902_7447)"/>
<circle cx="20" cy="25" r="2" fill="white"/>
<circle cx="26" cy="25" r="2" fill="white"/>
<circle cx="32" cy="25" r="2" fill="white"/>
</svg>
