<svg width="64" height="64" viewBox="0 0 64 64" fill="none" xmlns="http://www.w3.org/2000/svg">
<path fill-rule="evenodd" clip-rule="evenodd" d="M50 20.2831C50 20.0101 49.8618 19.7557 49.6327 19.6071L31.9385 8.12976C31.6717 7.95675 31.3282 7.95675 31.0615 8.12976L13.3673 19.6071C13.1382 19.7557 13 20.0101 13 20.2831V40.5262V40.8408C13 40.8433 13.002 40.8453 13.0045 40.8453V40.8453C13.007 40.8453 13.009 40.8472 13.0091 40.8496C13.0416 41.4148 13.1644 41.9707 13.4307 42.4713C15.2281 45.8497 20.7009 52.0309 31.7373 55.7575C31.9059 55.8144 32.0934 55.8129 32.261 55.7531C42.6995 52.0293 47.8809 45.8589 49.5876 42.48C49.8435 41.9733 49.9605 41.4155 49.9914 40.8494C49.9915 40.8471 49.9934 40.8453 49.9957 40.8453V40.8453C49.9981 40.8453 50 40.8434 50 40.841V40.5279C50 40.5273 50 40.5268 50 40.5262L50 20.2831Z" fill="#193362"/>
<path d="M34.0762 36.1343C34.0762 35.5809 33.9004 35.1252 33.5488 34.7671C33.1973 34.4025 32.6113 34.077 31.791 33.7905C30.9707 33.4976 30.3327 33.2274 29.877 32.98C28.36 32.1662 27.6016 30.9618 27.6016 29.3667C27.6016 28.286 27.9304 27.3973 28.5879 26.7007C29.2455 26.0041 30.1374 25.5907 31.2637 25.4604V23.3315H32.8262V25.48C33.959 25.6427 34.8347 26.1245 35.4531 26.9253C36.0716 27.7196 36.3809 28.7547 36.3809 30.0308H34.0176C34.0176 29.2104 33.8321 28.5659 33.461 28.0972C33.0964 27.6219 32.5983 27.3843 31.9668 27.3843C31.3418 27.3843 30.8535 27.5535 30.502 27.8921C30.1504 28.2306 29.9746 28.7157 29.9746 29.3472C29.9746 29.9136 30.1472 30.3693 30.4922 30.7144C30.8438 31.0529 31.4362 31.3752 32.2696 31.6812C33.1029 31.9871 33.7572 32.2703 34.2324 32.5308C34.7077 32.7912 35.1081 33.0907 35.4336 33.4292C35.7591 33.7612 36.0098 34.1453 36.1856 34.5815C36.3613 35.0177 36.4492 35.5288 36.4492 36.1147C36.4492 37.215 36.1107 38.1069 35.4336 38.7905C34.763 39.4741 33.8255 39.8778 32.6211 40.0015V41.9058H31.0684V40.0112C29.7793 39.868 28.7865 39.4058 28.0899 38.6245C27.3998 37.8433 27.0547 36.8081 27.0547 35.519H29.4278C29.4278 36.3394 29.6328 36.9741 30.043 37.4233C30.4597 37.8726 31.0456 38.0972 31.8008 38.0972C32.543 38.0972 33.1061 37.9181 33.4903 37.5601C33.8809 37.202 34.0762 36.7267 34.0762 36.1343Z" fill="white"/>
</svg>
