<svg width="64" height="64" viewBox="0 0 64 64" fill="none" xmlns="http://www.w3.org/2000/svg">
<path fill-rule="evenodd" clip-rule="evenodd" d="M12.606 9.23341C12.4183 8.71777 12.6842 8.14762 13.1998 7.95994L16.6275 6.71236C17.1431 6.52469 17.7133 6.79055 17.9009 7.30617C18.056 7.73217 18.4798 7.99448 18.9329 7.98166C19.4753 7.96632 20.0146 7.99058 20.5469 8.05266C20.9974 8.1052 21.4428 7.88071 21.6345 7.46959C21.8665 6.97205 22.4579 6.7568 22.9554 6.9888L26.2605 8.53001C26.7581 8.76201 26.9733 9.35341 26.7413 9.85094C26.5496 10.2621 26.6639 10.7475 26.9938 11.0589C27.3835 11.4267 27.7487 11.8242 28.0856 12.2496C28.3671 12.605 28.8404 12.761 29.2664 12.6059C29.782 12.4183 30.3521 12.6841 30.5398 13.1997L31.7874 16.6275C31.9751 17.1431 31.7092 17.7132 31.1936 17.9009C30.7676 18.0559 30.5053 18.4797 30.5181 18.9328C30.5334 19.4752 30.5092 20.0145 30.4471 20.5468C30.3946 20.9974 30.6191 21.4427 31.0302 21.6344C31.5277 21.8664 31.743 22.4578 31.511 22.9554L29.9698 26.2604C29.7378 26.758 29.1464 26.9732 28.6488 26.7412C28.2377 26.5495 27.7522 26.6638 27.4409 26.9937C27.073 27.3834 26.6755 27.7486 26.2502 28.0855C25.8948 28.3669 25.7388 28.8403 25.8939 29.2663C26.0815 29.7819 25.8157 30.352 25.3 30.5397L21.8723 31.7873C21.3567 31.975 20.7866 31.7091 20.5989 31.1935C20.4438 30.7675 20.0201 30.5052 19.5669 30.518C19.0245 30.5333 18.4852 30.5091 17.9529 30.447C17.5023 30.3944 17.057 30.6189 16.8653 31.03C16.6333 31.5276 16.0419 31.7428 15.5443 31.5108L12.2393 29.9697C11.7417 29.7376 11.5264 29.1462 11.7585 28.6487C11.9502 28.2375 11.8359 27.7521 11.506 27.4407C11.1164 27.0729 10.7512 26.6754 10.4143 26.2501C10.1328 25.8947 9.65948 25.7386 9.23347 25.8937C8.71783 26.0814 8.14769 25.8155 7.96001 25.2999L6.71244 21.8722C6.52476 21.3566 6.79063 20.7864 7.30627 20.5987C7.73228 20.4437 7.9946 20.0199 7.98178 19.5667C7.96645 19.0244 7.99071 18.4852 8.05278 17.9529C8.10533 17.5023 7.88082 17.057 7.46968 16.8653C6.97212 16.6333 6.75685 16.0418 6.98887 15.5443L8.53003 12.2392C8.76204 11.7417 9.35348 11.5264 9.85103 11.7584C10.2622 11.9501 10.7476 11.8359 11.059 11.506C11.4268 11.1163 11.8243 10.7511 12.2496 10.4142C12.605 10.1328 12.761 9.65942 12.606 9.23341Z" fill="#193362"/>
<circle cx="19.2506" cy="19.2497" r="4.22609" transform="rotate(-20 19.2506 19.2497)" fill="white"/>
<circle cx="42" cy="42" r="17" fill="#193362"/>
<path d="M44.5004 46.6088C44.5004 45.954 44.2924 45.4147 43.8764 44.991C43.4604 44.5596 42.7671 44.1744 41.7964 43.8355C40.8257 43.4888 40.0708 43.1691 39.5315 42.8763C37.7365 41.9134 36.839 40.4882 36.839 38.6007C36.839 37.3219 37.2281 36.2703 38.0061 35.446C38.7842 34.6217 39.8396 34.1325 41.1724 33.9784V31.4593H43.0213V34.0016C44.3618 34.1942 45.3979 34.7642 46.1298 35.7118C46.8617 36.6517 47.2276 37.8766 47.2276 39.3865H44.4311C44.4311 38.4158 44.2115 37.6532 43.7724 37.0985C43.341 36.5361 42.7517 36.2549 42.0044 36.2549C41.2648 36.2549 40.6871 36.4552 40.2711 36.8558C39.855 37.2564 39.647 37.8303 39.647 38.5776C39.647 39.2478 39.8512 39.7871 40.2595 40.1954C40.6755 40.596 41.3765 40.9774 42.3626 41.3394C43.3487 41.7015 44.123 42.0366 44.6853 42.3448C45.2477 42.6529 45.7215 43.0073 46.1067 43.4079C46.4919 43.8008 46.7885 44.2553 46.9965 44.7715C47.2045 45.2876 47.3085 45.8924 47.3085 46.5857C47.3085 47.8877 46.9079 48.9431 46.1067 49.752C45.3132 50.5609 44.2038 51.0385 42.7786 51.1849V53.4383H40.9413V51.1964C39.4159 51.027 38.2411 50.48 37.4168 49.5555C36.6002 48.6311 36.1919 47.4062 36.1919 45.8808H38.9999C38.9999 46.8515 39.2426 47.6026 39.7279 48.1342C40.221 48.6657 40.9143 48.9315 41.808 48.9315C42.6862 48.9315 43.3526 48.7197 43.8071 48.296C44.2693 47.8723 44.5004 47.3099 44.5004 46.6088Z" fill="white"/>
</svg>
