<svg width="64" height="64" viewBox="0 0 64 64" fill="none" xmlns="http://www.w3.org/2000/svg">
<path fill-rule="evenodd" clip-rule="evenodd" d="M44 15.1667C44 14.8699 43.8682 14.5884 43.6402 14.3984L32.6402 5.23178C32.2693 4.92274 31.7307 4.92274 31.3598 5.23178L20.3598 14.3984C20.1318 14.5884 20 14.8699 20 15.1667L20 29.3284C20 29.5671 19.9146 29.7979 19.7593 29.9792L14.2407 36.4174C14.0854 36.5987 14 36.8295 14 37.0682V45.6983C14 46.2506 14.4477 46.6983 15 46.6983H19C19.5523 46.6983 20 47.146 20 47.6983V49.6983C20 50.2506 20.4477 50.6983 21 50.6983H43C43.5523 50.6983 44 50.2506 44 49.6983V47.6983C44 47.146 44.4477 46.6983 45 46.6983H49C49.5523 46.6983 50 46.2506 50 45.6983V37.0682C50 36.8295 49.9146 36.5987 49.7593 36.4174L44.2407 29.9792C44.0854 29.7979 44 29.5671 44 29.3284V15.1667Z" fill="#193362"/>
<path d="M31 58.6982C31 59.2505 31.4477 59.6982 32 59.6982C32.5523 59.6982 33 59.2505 33 58.6982H31ZM31 52.6982V58.6982H33V52.6982H31Z" fill="#193362"/>
<path d="M25 56.6982C25 57.2505 25.4477 57.6982 26 57.6982C26.5523 57.6982 27 57.2505 27 56.6982H25ZM25 52.6982V56.6982H27V52.6982H25Z" fill="#193362"/>
<path d="M37 56.6982C37 57.2505 37.4477 57.6982 38 57.6982C38.5523 57.6982 39 57.2505 39 56.6982H37ZM37 52.6982V56.6982H39V52.6982H37Z" fill="#193362"/>
<circle cx="32" cy="22.6982" r="4" fill="white"/>
<circle cx="32" cy="34.6982" r="2" fill="white"/>
<circle cx="32" cy="40.6982" r="2" fill="white"/>
</svg>
