<svg width="19" height="19" viewBox="0 0 19 19" fill="none" xmlns="http://www.w3.org/2000/svg">
    <path d="M19 9.5C19 14.7467 14.7467 19 9.5 19C4.25329 19 0 14.7467 0 9.5C0 4.25329 4.25329 0 9.5 0C14.7467 0 19 4.25329 19 9.5Z" fill="white"/>
    <path fill-rule="evenodd" clip-rule="evenodd" d="M9.54527 12.4077C9.58476 12.3318 9.62069 12.2613 9.65292 12.1961C9.65696 12.1912 9.66091 12.1863 9.66476 12.1813C9.7208 12.3125 9.78205 12.4424 9.84849 12.571C9.79458 12.6662 9.74211 12.7621 9.69108 12.8588C9.60685 13.0183 9.52459 13.178 9.44433 13.3376L9.44257 13.3412C9.40602 13.4157 9.37252 13.5127 9.37252 13.6243C9.37252 13.7819 9.4304 13.9209 9.52111 14.032L9.527 14.0392L9.53323 14.0461C9.65456 14.1812 9.81838 14.25 9.9937 14.25C10.1028 14.25 10.2178 14.2238 10.3233 14.1573C10.4272 14.0918 10.4989 14.0019 10.5466 13.9096L10.5474 13.9079L10.6691 13.6753C10.7474 13.7439 10.8291 13.8075 10.9141 13.8659L10.9171 13.8679C11.1942 14.0546 11.5069 14.1472 11.8439 14.1472C12.1159 14.1472 12.3746 14.0839 12.6138 13.9572C12.8292 13.847 13.0245 13.7076 13.1982 13.5399C13.3664 13.3774 13.5158 13.2025 13.6458 13.015C13.7651 12.8429 13.8682 12.6823 13.954 12.5335L13.9564 12.5292C14.038 12.3835 14.1039 12.2567 14.1505 12.1521C14.1703 12.1077 14.1849 12.0748 14.1941 12.0539C14.1985 12.0439 14.2024 12.0352 14.205 12.029L14.2077 12.0227C14.208 12.0219 14.2111 12.0145 14.2143 12.0058C14.2153 12.0032 14.2175 11.9971 14.22 11.9892C14.2212 11.9853 14.2234 11.9784 14.2257 11.9696C14.2267 11.9659 14.2291 11.9568 14.2315 11.9442C14.2411 11.9011 14.25 11.8479 14.25 11.7914C14.25 11.6302 14.19 11.484 14.0837 11.3696C13.9636 11.2311 13.799 11.1656 13.6288 11.1656C13.5091 11.1656 13.3821 11.1975 13.2697 11.2794C13.1599 11.3594 13.0928 11.4661 13.0528 11.5682L13.0514 11.5716L13.0502 11.5751C13.0036 11.7006 12.9339 11.8495 12.8378 12.023L12.8365 12.0255C12.7513 12.1819 12.6486 12.3304 12.5278 12.4713L12.5274 12.4718C12.4162 12.6018 12.294 12.7097 12.1605 12.7972C12.0543 12.8669 11.9531 12.8957 11.8498 12.8957C11.735 12.8957 11.6358 12.861 11.5385 12.7807C11.4588 12.7148 11.3807 12.6364 11.3046 12.5441C11.7605 11.7961 12.2594 11.0808 12.8013 10.3982C12.8985 10.2835 12.9454 10.1444 12.9454 10.0008C12.9454 9.83358 12.8808 9.68252 12.767 9.56639C12.6476 9.44454 12.4916 9.38111 12.3242 9.38111C12.1472 9.38111 11.966 9.44892 11.8404 9.61182C11.4222 10.1357 11.0298 10.6775 10.6633 11.2372C10.6341 11.1471 10.6067 11.0608 10.5812 10.9783C10.5403 10.8302 10.5073 10.701 10.4818 10.59C10.4593 10.4747 10.45 10.4082 10.4479 10.3784L10.447 10.3666L10.4455 10.3548C10.4278 10.2192 10.3715 10.0899 10.2709 9.98434C10.1516 9.85461 9.99258 9.79246 9.82766 9.79246C9.70568 9.79246 9.58843 9.82793 9.48646 9.89727C9.40103 9.95537 9.32954 10.0321 9.27841 10.126L9.27269 10.1365L8.69086 11.378C8.58866 11.5682 8.47853 11.7631 8.38573 11.9407L8.38425 11.9435C8.30238 12.1033 8.2055 12.2628 8.09304 12.4219C7.98739 12.5714 7.87403 12.6985 7.75365 12.805C7.66405 12.881 7.6006 12.8957 7.55643 12.8957C7.52244 12.8957 7.43088 12.886 7.3017 12.6605C7.17798 12.4408 7.06655 12.1276 6.97644 11.7069C7.17709 11.3274 7.36626 10.9398 7.54396 10.544L7.54451 10.5427C7.74351 10.0953 7.91646 9.6471 8.06315 9.19817C8.21029 8.74787 8.32719 8.3005 8.41348 7.85614L8.41362 7.85546C8.50096 7.40148 8.54528 6.95898 8.54528 6.52848C8.54528 6.1877 8.52479 5.88709 8.48005 5.63147C8.43655 5.38299 8.37212 5.15862 8.27755 4.97105C8.18259 4.78268 8.04807 4.61581 7.86029 4.50692C7.69159 4.40299 7.50359 4.35416 7.30737 4.35416C7.01737 4.35416 6.76957 4.47921 6.57584 4.68281C6.40489 4.8625 6.26555 5.09082 6.15035 5.35295L6.14922 5.35553L6.14812 5.35813C6.03913 5.61607 5.94598 5.90947 5.86705 6.23578L5.86598 6.24043C5.79195 6.56351 5.73062 6.90386 5.68173 7.26124C5.63298 7.61766 5.59646 7.98184 5.57216 8.35374L5.57192 8.35803C5.55179 8.72764 5.54169 9.0857 5.54169 9.43213C5.54169 9.67245 5.54774 9.94598 5.55975 10.2522L5.56002 10.2574C5.57634 10.5696 5.60487 10.8914 5.64544 11.2225L5.64551 11.2231C5.68669 11.5549 5.74436 11.8827 5.81854 12.2064L5.81921 12.2093L5.81992 12.2122C5.90069 12.5418 6.00648 12.8435 6.13951 13.1149C6.2768 13.395 6.45071 13.6354 6.66672 13.825C6.91268 14.0409 7.21045 14.1472 7.53864 14.1472C7.75153 14.1472 7.95543 14.0998 8.14498 14.0043C8.31668 13.9235 8.47487 13.8185 8.61918 13.691L8.6199 13.6903C8.76136 13.5646 8.89081 13.4255 9.00828 13.2734L9.01002 13.2712L9.01173 13.2689C9.12181 13.122 9.22211 12.9741 9.31233 12.8251C9.39937 12.6814 9.47715 12.5422 9.54527 12.4077ZM14.1946 12.0505C13.932 12.5606 14.2171 12.0057 14.1946 12.0505V12.0505ZM6.94643 8.6153C6.89702 8.77694 6.84417 8.93825 6.7879 9.09923C6.79236 8.88871 6.80069 8.67733 6.8129 8.4651C6.83617 8.12928 6.86518 7.80791 6.89986 7.50095C6.93827 7.19576 6.9841 6.91192 7.03714 6.64913C7.09022 6.38612 7.1477 6.16455 7.20849 5.98217C7.22742 5.92537 7.24608 5.8742 7.26431 5.82826C7.29105 5.98643 7.30885 6.21715 7.30885 6.53453C7.30885 6.84564 7.27615 7.17772 7.20904 7.53146L7.20845 7.5347C7.1441 7.88996 7.05685 8.25014 6.94643 8.6153Z" fill="#3D44FF"/>
</svg>
