<svg width="17" height="16" viewBox="0 0 17 16" fill="none" xmlns="http://www.w3.org/2000/svg">
<path d="M3.5 7.5C3.22386 7.5 3 7.72386 3 8C3 8.27614 3.22386 8.5 3.5 8.5L3.5 7.5ZM13.8536 8.35355C14.0488 8.15829 14.0488 7.84171 13.8536 7.64645L10.6716 4.46447C10.4763 4.2692 10.1597 4.2692 9.96447 4.46447C9.7692 4.65973 9.7692 4.97631 9.96447 5.17157L12.7929 8L9.96447 10.8284C9.7692 11.0237 9.7692 11.3403 9.96447 11.5355C10.1597 11.7308 10.4763 11.7308 10.6716 11.5355L13.8536 8.35355ZM3.5 8.5L13.5 8.5L13.5 7.5L3.5 7.5L3.5 8.5Z" fill="#193362"/>
</svg>
