<svg width="113" height="44" viewBox="0 0 113 44" fill="none" xmlns="http://www.w3.org/2000/svg">
    <path d="M12 14C12 12.8954 12.8954 12 14 12H22.0633C22.6568 12 23.2197 12.2636 23.5997 12.7196L27.5364 17.4437C27.836 17.8032 28 18.2562 28 18.7241V30C28 31.1046 27.1046 32 26 32H14C12.8954 32 12 31.1046 12 30V14Z" stroke="white" stroke-width="2"/>
    <path d="M21 14V18C21 18.5523 21.4477 19 22 19H26" stroke="white" stroke-width="2"/>
    <path d="M38.9395 25.3525H43.2939V27H36.8887V17.0469H38.9395V25.3525ZM46.4316 27H44.4492V19.6035H46.4316V27ZM44.333 17.6895C44.333 17.3932 44.431 17.1494 44.627 16.958C44.8275 16.7666 45.0986 16.6709 45.4404 16.6709C45.7777 16.6709 46.0465 16.7666 46.2471 16.958C46.4476 17.1494 46.5479 17.3932 46.5479 17.6895C46.5479 17.9902 46.4453 18.2363 46.2402 18.4277C46.0397 18.6191 45.7731 18.7148 45.4404 18.7148C45.1077 18.7148 44.8389 18.6191 44.6338 18.4277C44.4333 18.2363 44.333 17.9902 44.333 17.6895ZM50.4307 17.7852V19.6035H51.6953V21.0527H50.4307V24.7441C50.4307 25.0176 50.4831 25.2135 50.5879 25.332C50.6927 25.4505 50.8932 25.5098 51.1895 25.5098C51.4082 25.5098 51.6019 25.4938 51.7705 25.4619V26.959C51.3831 27.0775 50.9844 27.1367 50.5742 27.1367C49.1888 27.1367 48.4824 26.4372 48.4551 25.0381V21.0527H47.375V19.6035H48.4551V17.7852H50.4307ZM56.2002 27.1367C55.1156 27.1367 54.2314 26.804 53.5479 26.1387C52.8688 25.4733 52.5293 24.5869 52.5293 23.4795V23.2881C52.5293 22.5452 52.6729 21.8822 52.96 21.2988C53.2471 20.7109 53.6527 20.2598 54.1768 19.9453C54.7054 19.6263 55.307 19.4668 55.9814 19.4668C56.9932 19.4668 57.7884 19.7858 58.3672 20.4238C58.9505 21.0618 59.2422 21.9665 59.2422 23.1377V23.9443H54.5322C54.596 24.4274 54.7874 24.8148 55.1064 25.1064C55.43 25.3981 55.8379 25.5439 56.3301 25.5439C57.0911 25.5439 57.6859 25.2682 58.1143 24.7168L59.085 25.8037C58.7887 26.223 58.3877 26.5511 57.8818 26.7881C57.376 27.0205 56.8154 27.1367 56.2002 27.1367ZM55.9746 21.0664C55.5827 21.0664 55.2637 21.1986 55.0176 21.4629C54.776 21.7272 54.6211 22.1055 54.5527 22.5977H57.3008V22.4404C57.2917 22.0029 57.1732 21.6657 56.9453 21.4287C56.7174 21.1872 56.3939 21.0664 55.9746 21.0664ZM66.0371 23.4932V27H63.9863V17.0469H67.8691C68.6165 17.0469 69.2728 17.1836 69.8379 17.457C70.4076 17.7305 70.8451 18.1201 71.1504 18.626C71.4557 19.1273 71.6084 19.6992 71.6084 20.3418C71.6084 21.3171 71.2734 22.0872 70.6035 22.6523C69.9382 23.2129 69.0153 23.4932 67.835 23.4932H66.0371ZM66.0371 21.832H67.8691C68.4115 21.832 68.8239 21.7044 69.1064 21.4492C69.3936 21.194 69.5371 20.8294 69.5371 20.3555C69.5371 19.8678 69.3936 19.4736 69.1064 19.1729C68.8193 18.8721 68.4229 18.7171 67.917 18.708H66.0371V21.832ZM77.0977 27C77.0065 26.8223 76.9404 26.6012 76.8994 26.3369C76.4209 26.8701 75.7988 27.1367 75.0332 27.1367C74.3086 27.1367 73.707 26.9271 73.2285 26.5078C72.7546 26.0885 72.5176 25.5599 72.5176 24.9219C72.5176 24.138 72.807 23.5365 73.3857 23.1172C73.9691 22.6979 74.8099 22.486 75.9082 22.4814H76.8174V22.0576C76.8174 21.7158 76.7285 21.4424 76.5508 21.2373C76.3776 21.0322 76.1019 20.9297 75.7236 20.9297C75.391 20.9297 75.1289 21.0094 74.9375 21.1689C74.7507 21.3285 74.6572 21.5472 74.6572 21.8252H72.6816C72.6816 21.3968 72.8138 21.0003 73.0781 20.6357C73.3424 20.2712 73.7161 19.9863 74.1992 19.7812C74.6823 19.5716 75.2246 19.4668 75.8262 19.4668C76.7376 19.4668 77.46 19.6969 77.9932 20.1572C78.5309 20.613 78.7998 21.2555 78.7998 22.085V25.291C78.8044 25.9928 78.9023 26.5238 79.0938 26.8838V27H77.0977ZM75.4639 25.626C75.7555 25.626 76.0244 25.5622 76.2705 25.4346C76.5166 25.3024 76.6989 25.127 76.8174 24.9082V23.6367H76.0791C75.0902 23.6367 74.5638 23.9785 74.5 24.6621L74.4932 24.7783C74.4932 25.0244 74.5798 25.2272 74.7529 25.3867C74.9261 25.5462 75.1631 25.626 75.4639 25.626ZM86.9756 23.3701C86.9756 24.5094 86.7158 25.4232 86.1963 26.1113C85.6813 26.7949 84.984 27.1367 84.1045 27.1367C83.3571 27.1367 82.7533 26.877 82.293 26.3574V29.8438H80.3174V19.6035H82.1494L82.2178 20.3281C82.6963 19.7539 83.3206 19.4668 84.0908 19.4668C85.0023 19.4668 85.7109 19.804 86.2168 20.4785C86.7227 21.153 86.9756 22.0827 86.9756 23.2676V23.3701ZM85 23.2266C85 22.5384 84.877 22.0075 84.6309 21.6338C84.3893 21.2601 84.0361 21.0732 83.5713 21.0732C82.9515 21.0732 82.5254 21.3102 82.293 21.7842V24.8125C82.5345 25.3001 82.9652 25.5439 83.585 25.5439C84.5283 25.5439 85 24.7715 85 23.2266ZM91.6104 27.1367C90.5257 27.1367 89.6416 26.804 88.958 26.1387C88.279 25.4733 87.9395 24.5869 87.9395 23.4795V23.2881C87.9395 22.5452 88.083 21.8822 88.3701 21.2988C88.6572 20.7109 89.0628 20.2598 89.5869 19.9453C90.1156 19.6263 90.7171 19.4668 91.3916 19.4668C92.4033 19.4668 93.1986 19.7858 93.7773 20.4238C94.3607 21.0618 94.6523 21.9665 94.6523 23.1377V23.9443H89.9424C90.0062 24.4274 90.1976 24.8148 90.5166 25.1064C90.8402 25.3981 91.248 25.5439 91.7402 25.5439C92.5013 25.5439 93.096 25.2682 93.5244 24.7168L94.4951 25.8037C94.1989 26.223 93.7979 26.5511 93.292 26.7881C92.7861 27.0205 92.2256 27.1367 91.6104 27.1367ZM91.3848 21.0664C90.9928 21.0664 90.6738 21.1986 90.4277 21.4629C90.1862 21.7272 90.0312 22.1055 89.9629 22.5977H92.7109V22.4404C92.7018 22.0029 92.5833 21.6657 92.3555 21.4287C92.1276 21.1872 91.804 21.0664 91.3848 21.0664ZM99.9365 21.4561C99.6676 21.4196 99.4307 21.4014 99.2256 21.4014C98.4782 21.4014 97.9883 21.6543 97.7559 22.1602V27H95.7803V19.6035H97.6465L97.7012 20.4854C98.0977 19.8063 98.6468 19.4668 99.3486 19.4668C99.5674 19.4668 99.7725 19.4964 99.9639 19.5557L99.9365 21.4561Z" fill="white"/>
    <rect x="0.5" y="0.5" width="112" height="43" rx="3.5" stroke="white" stroke-opacity="0.6"/>
</svg>
