<svg width="102" height="32" viewBox="0 0 102 32" fill="none" xmlns="http://www.w3.org/2000/svg">
<path fill-rule="evenodd" clip-rule="evenodd" d="M14.9458 0.807373H16.0317C19.4616 0.807373 22.0223 1.42356 24.1858 2.58061C26.3493 3.73767 28.0473 5.43561 29.2043 7.59912C30.3613 9.76262 30.9775 12.3233 30.9775 15.7532V16.8391C30.9775 20.269 30.3613 22.8297 29.2043 24.9932C28.0473 27.1566 26.3493 28.8547 24.1858 30.0117C22.0223 31.1687 19.4616 31.7849 16.0317 31.7849H14.9458C11.5159 31.7849 8.95525 31.1687 6.79174 30.0117C4.62824 28.8547 2.93032 27.1566 1.77326 24.9932C0.6162 22.8297 0 20.269 0 16.8391V15.7532C0 12.3233 0.6162 9.76262 1.77326 7.59912C2.93032 5.43561 4.62824 3.73767 6.79174 2.58061C8.95525 1.42356 11.5159 0.807373 14.9458 0.807373ZM15.4895 7.77734C20.1943 7.77734 24.0083 11.5913 24.0083 16.2962C24.0083 18.2302 23.3639 20.0137 22.2779 21.4436C22.3953 21.7709 22.4595 22.1238 22.4595 22.4917C22.4595 24.2025 21.0726 25.5894 19.3617 25.5894C18.4922 25.5894 17.7063 25.2311 17.1437 24.6541C16.6091 24.7597 16.0558 24.815 15.4895 24.815C10.7847 24.815 6.9707 21.001 6.9707 16.2962C6.9707 11.5913 10.7847 7.77734 15.4895 7.77734ZM15.4895 9.32622C11.6401 9.32622 8.51958 12.4468 8.51958 16.2962C8.51958 20.1456 11.6401 23.2661 15.4895 23.2661C15.7805 23.2661 16.0674 23.2483 16.349 23.2136C16.2932 22.9818 16.264 22.7401 16.264 22.4917C16.264 20.7808 17.6509 19.3939 19.3617 19.3939C20.1091 19.3939 20.7947 19.6586 21.3299 20.0994C22.0443 19.0072 22.4595 17.7002 22.4595 16.2962C22.4595 12.4468 19.3389 9.32622 15.4895 9.32622ZM58.366 24.8445L55.5006 27.0381L53.1687 24.1134C52.128 24.5349 50.9818 24.7457 49.7302 24.7457C48.0834 24.7457 46.598 24.3801 45.274 23.649C43.95 22.9178 42.9125 21.91 42.1616 20.6255C41.4106 19.341 41.0352 17.8951 41.0352 16.2878C41.0352 14.6805 41.4106 13.2346 42.1616 11.9501C42.9125 10.6656 43.95 9.65781 45.274 8.92663C46.598 8.19545 48.0834 7.82986 49.7302 7.82986C51.377 7.82986 52.8624 8.19545 54.1865 8.92663C55.5105 9.65781 56.548 10.6656 57.2989 11.9501C58.0498 13.2346 58.4253 14.6805 58.4253 16.2878C58.4253 17.4208 58.231 18.4846 57.8423 19.4793C57.4537 20.4739 56.9037 21.3468 56.1922 22.0977L58.366 24.8445ZM47.1217 20.833C47.899 21.2809 48.7685 21.5048 49.7302 21.5048C50.1913 21.5048 50.6063 21.4587 50.9752 21.3665L48.8805 18.7185L51.7657 16.5052L53.979 19.2916C54.5455 18.4089 54.8287 17.4076 54.8287 16.2878C54.8287 15.2865 54.608 14.3907 54.1667 13.6002C53.7253 12.8098 53.116 12.1906 52.3388 11.7426C51.5615 11.2947 50.692 11.0708 49.7302 11.0708C48.7685 11.0708 47.899 11.2947 47.1217 11.7426C46.3444 12.1906 45.7351 12.8098 45.2938 13.6002C44.8524 14.3907 44.6318 15.2865 44.6318 16.2878C44.6318 17.2759 44.8524 18.1684 45.2938 18.9655C45.7351 19.7625 46.3444 20.385 47.1217 20.833ZM68.0492 23.1648C67.3246 24.1397 66.2443 24.6272 64.8083 24.6272C63.9124 24.6272 63.122 24.4197 62.4369 24.0047C61.7518 23.5897 61.2216 22.9935 60.8461 22.2163C60.4706 21.439 60.2829 20.5234 60.2829 19.4694V12.7702H63.8004V18.8766C63.8004 19.7592 63.975 20.4344 64.3241 20.9021C64.6732 21.3698 65.1772 21.6037 65.8359 21.6037C66.5209 21.6037 67.0611 21.3468 67.4563 20.833C67.8515 20.3192 68.0492 19.6143 68.0492 18.7185V12.7702H71.5667V24.3505H68.0492V23.1648ZM83.977 23.8466C83.1206 24.367 82.1457 24.6272 81.0522 24.6272C79.5636 24.6272 78.4569 24.1397 77.7323 23.1648V24.3505H74.2148V7.75082H77.7323V13.9559C78.4569 12.981 79.5636 12.4936 81.0522 12.4936C82.1457 12.4936 83.1206 12.7538 83.977 13.2742C84.8333 13.7946 85.4986 14.5158 85.9729 15.4381C86.4471 16.3603 86.6843 17.401 86.6843 18.5604C86.6843 19.7197 86.4471 20.7605 85.9729 21.6827C85.4986 22.6049 84.8333 23.3262 83.977 23.8466ZM78.4437 20.7638C78.9575 21.3369 79.6426 21.6234 80.4989 21.6234C81.3289 21.6234 81.9942 21.3369 82.4948 20.7638C82.9955 20.1907 83.2458 19.4562 83.2458 18.5604C83.2458 17.6645 82.9955 16.93 82.4948 16.357C81.9942 15.7839 81.3289 15.4973 80.4989 15.4973C79.6426 15.4973 78.9575 15.7839 78.4437 16.357C77.9299 16.93 77.673 17.6645 77.673 18.5604C77.673 19.4562 77.9299 20.1907 78.4437 20.7638ZM92.0397 10.8731C91.6313 11.2815 91.1174 11.4857 90.4983 11.4857C89.8791 11.4857 89.3653 11.2815 88.9569 10.8731C88.5485 10.4647 88.3443 9.95094 88.3443 9.33174C88.3443 8.71255 88.5485 8.19875 88.9569 7.79034C89.3653 7.38194 89.8791 7.17773 90.4983 7.17773C91.1174 7.17773 91.6313 7.38194 92.0397 7.79034C92.4481 8.19875 92.6523 8.71255 92.6523 9.33174C92.6523 9.95094 92.4481 10.4647 92.0397 10.8731ZM92.257 12.7702V24.39H88.7395V12.7702H92.257ZM99.7071 15.7938V24.3505H96.1896V15.7938H93.8972V12.7702H96.1896V9.33174H99.7071V12.7702H101.999V15.7938H99.7071Z" fill="#FFC800"/>
</svg>
