<svg width="150" height="32" viewBox="0 0 150 32" fill="none" xmlns="http://www.w3.org/2000/svg">
<path fill-rule="evenodd" clip-rule="evenodd" d="M35.3071 22.8364L35.3806 16.8937L43.9051 16.9388L44.0198 7.6939L39.9764 7.67135L31.5093 7.625L31.3223 22.8139L35.3071 22.8364ZM39.9512 9.70572L35.4692 9.68067L35.4043 14.9107L39.8866 14.9357L39.9512 9.70572ZM49.3203 18.7914L56.7314 18.8328L56.8137 12.2311L52.9685 12.2098V12.2085L45.5575 12.1672L45.4253 22.8389L56.3224 22.899L57.1615 21.0538L49.2929 21.0099L49.3203 18.7914ZM52.9445 14.1565L49.3789 14.1439L49.3453 16.8385L52.9111 16.8585L52.9445 14.1565ZM58.7352 22.9404L58.8673 12.2688L70.1622 12.3314L69.4416 14.2292L62.6689 14.1916L62.5841 21.0589L70.0151 21.1002L69.1947 22.9981L58.7352 22.9404ZM83.8938 23.0784L79.6472 16.9001L84.1058 12.4067L79.3442 12.3804L75.5539 16.032L75.6549 7.84317L71.8097 7.82187L71.6227 23.0108L75.4679 23.0321L75.5377 17.326L79.591 23.0546L83.8938 23.0784ZM99.1327 23.1886L85.5661 23.1134L85.5911 21.1329L95.093 21.1855L95.1524 16.3965L85.6908 16.3526L85.7943 7.92578L99.7985 8.00345L99.018 9.92758L89.814 9.87622L89.7579 14.4197L95.1765 14.4498L99.2399 14.4723L99.1327 23.1886ZM105.051 23.1961L105.159 14.426L108.764 14.4398L108.787 12.5445L105.181 12.5244L105.238 8.00723L101.392 7.98594L101.205 23.1748L105.051 23.1961ZM108.656 23.2149L112.52 23.2362L112.652 12.5645L108.789 12.5432L108.656 23.2149ZM117.957 23.266L114.112 23.2447L114.244 12.5731L118.089 12.5944L117.957 23.266ZM114.3 8.05586L118.145 8.07716L118.105 11.3529L114.26 11.3316L114.3 8.05586ZM123.446 19.2274L130.857 19.2687L130.939 12.667L127.094 12.6457V12.6445L119.683 12.6031L119.551 23.2748L130.448 23.3349L131.287 21.4897L123.419 21.4459L123.446 19.2274ZM127.07 14.5924L123.505 14.5799L123.471 17.2744L127.037 17.2945L127.07 14.5924ZM136.823 23.3703L132.859 23.349L133.046 8.16016L137.01 8.18145L136.823 23.3703ZM149.811 23.4415L149.998 8.25263L146.154 8.23008L146.098 12.7473V12.7485L138.548 12.7072L138.416 23.3789L149.811 23.4415ZM146.074 14.6439L146.096 12.8714L145.989 21.5174L142.284 21.4973L142.369 14.6301L146.074 14.6439Z" fill="black"/>
<path d="M19.8007 16.5719C19.8007 16.5719 20.7857 17.7181 21.4265 19.8727C21.6896 20.7571 16.5764 23.0232 16.5764 23.0232C16.5764 23.0232 18.9204 20.9901 16.7709 19.9491C14.6214 18.9081 12.3074 19.8076 10.7725 13.8648C10.5581 13.0317 9.54193 12.7023 9.06066 12.7023C7.92731 12.7023 4.10957 14.2807 4.10957 14.2807C4.10957 14.2807 3.86893 14.679 3.64326 14.8983C3.64326 14.8983 3.4338 15.1012 3.41634 15.1175C3.18942 15.3367 2.73558 15.571 2.50991 15.5572C2.30543 15.5446 2.28299 15.5572 2.05607 15.338C1.91269 15.2002 1.82915 14.8983 1.82915 14.679C1.82915 14.188 2.44881 13.94 2.73558 13.8009C3.18942 13.5817 3.6657 13.5817 3.86893 13.8009C3.88514 13.8184 4.09585 14.0201 4.07216 14.0201C4.07216 14.0201 4.07216 14.2393 4.75292 13.8009C5.76907 13.1445 8.0258 12.1862 8.43102 11.9356C8.54074 11.868 8.62552 11.769 8.67165 11.65C8.7901 11.3469 9.07188 10.7168 9.51574 10.2871C9.96958 9.84741 11.3299 8.96927 13.1377 9.91004C16.2722 11.5398 16.5764 11.3669 16.5764 11.3669C16.5764 11.3669 17.2248 10.2871 19.0389 8.31161C20.757 6.44009 22.6671 5.2375 22.6671 5.2375L23.3479 7.213C23.3479 7.213 23.9725 6.73948 26.1831 5.31016C26.1183 4.25915 24.9899 3.4211 23.6022 3.4211C23.6022 3.4211 15.7087 0 13.0816 0C10.4546 0 2.58846 3.4211 2.58846 3.4211C1.16086 3.4211 0.00381905 4.30801 0.00381905 5.40161C0.00381905 5.40161 -0.125849 17.2358 1.12595 19.9729C2.9064 23.8613 13.0804 32 13.0804 32C13.0804 32 23.0175 23.9339 25.0797 20.0456C25.657 18.9582 25.95 16.4203 26.0933 13.7583C24.6595 15.0949 22.6397 16.1484 19.8007 16.5719Z" fill="url(#paint0_linear_919_2425)"/>
<defs>
<linearGradient id="paint0_linear_919_2425" x1="-0.000445043" y1="16.0019" x2="26.1815" y2="16.0019" gradientUnits="userSpaceOnUse">
<stop stop-color="#29ABE2"/>
<stop offset="0.5" stop-color="#29ABE2"/>
<stop offset="0.5226" stop-color="#239BD3"/>
<stop offset="0.5642" stop-color="#1A84BD"/>
<stop offset="0.6086" stop-color="#1373AD"/>
<stop offset="0.6577" stop-color="#0F69A4"/>
<stop offset="0.7202" stop-color="#0E66A1"/>
<stop offset="0.9944" stop-color="#0661A1"/>
</linearGradient>
</defs>
</svg>
