<svg width="145" height="24" viewBox="0 0 145 24" fill="none" xmlns="http://www.w3.org/2000/svg">
<path d="M25.8866 10.812L20.4953 1.30843C20.2892 0.953908 19.9957 0.660128 19.6438 0.456068C19.2919 0.252009 18.8938 0.144717 18.4887 0.144775H7.70495C7.29826 0.14486 6.89876 0.25372 6.54655 0.460426C6.19434 0.667132 5.90182 0.964406 5.69838 1.3224L0.307063 10.8225C0.105829 11.1813 0 11.5871 0 12.0001C0 12.4131 0.105829 12.819 0.307063 13.1777L5.69838 22.6778C5.90093 23.0366 6.19324 23.3346 6.54566 23.5414C6.89807 23.7482 7.29803 23.8566 7.70495 23.8555H18.4876C18.8943 23.8554 19.2938 23.7465 19.646 23.5398C19.9982 23.3331 20.2907 23.0358 20.4942 22.6778L25.8855 13.1777C26.087 12.8172 26.1931 12.4097 26.1933 11.995C26.1935 11.5804 26.0878 11.1727 25.8866 10.812ZM13.0963 20.1504V18.5213C14.3661 18.5213 15.6074 18.1385 16.6632 17.4213C17.719 16.7041 18.542 15.6847 19.0279 14.4921C19.5138 13.2994 19.641 11.9871 19.3933 10.721C19.1455 9.45485 18.534 8.29186 17.6361 7.37905C16.7382 6.46624 15.5942 5.8446 14.3488 5.59276C13.1034 5.34092 11.8125 5.47017 10.6393 5.96418C9.46614 6.45819 8.46341 7.29477 7.75793 8.36812C7.05246 9.44147 6.67591 10.7034 6.67591 11.9943C6.67233 13.4178 7.13237 14.8024 7.98425 15.9321L9.14264 14.7848C8.57995 13.9661 8.28008 12.9906 8.28415 11.992C8.28415 11.0224 8.56698 10.0745 9.09687 9.2683C9.62677 8.46209 10.3799 7.83372 11.2611 7.46267C12.1423 7.09161 13.1119 6.99452 14.0474 7.18369C14.9828 7.37285 15.8421 7.83977 16.5165 8.52539C17.191 9.21102 17.6503 10.0846 17.8363 11.0355C18.0224 11.9865 17.9269 12.9723 17.5619 13.8681C17.1969 14.7639 16.5788 15.5296 15.7858 16.0682C14.9927 16.6069 14.0604 16.8945 13.1066 16.8945V15.2653C13.7421 15.2635 14.3629 15.0702 14.8904 14.7099C15.418 14.3497 15.8286 13.8385 16.0706 13.2411C16.3126 12.6436 16.3749 11.9867 16.2498 11.3532C16.1247 10.7198 15.8178 10.1382 15.3678 9.68203C14.9177 9.22582 14.3448 8.91543 13.7213 8.79006C13.0979 8.66469 12.4518 8.72996 11.8649 8.97763C11.2779 9.22531 10.7762 9.64427 10.4233 10.1816C10.0704 10.7189 9.88208 11.3505 9.88208 11.9966C9.88013 12.5688 10.0283 13.1312 10.3113 13.6258L11.5098 12.4377C11.4698 12.2958 11.4497 12.1489 11.4503 12.0013C11.4503 11.6701 11.5469 11.3464 11.7278 11.071C11.9088 10.7956 12.1661 10.581 12.4671 10.4542C12.768 10.3275 13.0992 10.2943 13.4188 10.359C13.7383 10.4236 14.0318 10.583 14.2621 10.8172C14.4925 11.0514 14.6494 11.3498 14.7129 11.6746C14.7765 11.9994 14.7439 12.3361 14.6192 12.6421C14.4945 12.9481 14.2834 13.2096 14.0125 13.3936C13.7416 13.5776 13.4232 13.6758 13.0974 13.6758C12.9377 13.6744 12.7792 13.6469 12.6281 13.5943L8.48446 17.7044C8.44577 17.7436 8.4023 17.7776 8.35511 17.8056C8.34481 17.8161 8.32535 17.8161 8.31505 17.8254C8.28399 17.8465 8.25056 17.8636 8.21547 17.8766C8.19601 17.8871 8.1754 17.8871 8.15594 17.8964L8.06552 17.9266C8.04619 17.9261 8.02701 17.9301 8.00943 17.9383C7.97967 17.9383 7.94991 17.9487 7.9293 17.9487C7.89954 17.9487 7.86978 17.9383 7.83888 17.9383C7.81517 17.9391 7.7915 17.9356 7.76905 17.9278L7.67863 17.8975C7.65917 17.8871 7.63856 17.8871 7.6191 17.8778C7.58693 17.8647 7.55654 17.8475 7.52868 17.8266C7.51063 17.8188 7.49369 17.8086 7.47831 17.7963C7.44949 17.7752 7.42267 17.7515 7.39818 17.7253C7.38788 17.7148 7.36842 17.7055 7.35812 17.6846C6.06698 16.3359 5.27452 14.5746 5.11517 12.6996C4.95582 10.8246 5.43939 8.95133 6.48386 7.39748C7.52833 5.84364 9.06937 4.70494 10.8456 4.17455C12.6218 3.64416 14.5238 3.75474 16.229 4.48753C17.9341 5.22032 19.3374 6.5302 20.2008 8.19497C21.0642 9.85973 21.3346 11.7769 20.966 13.6212C20.5974 15.4655 19.6126 17.1234 18.1786 18.3137C16.7446 19.5039 14.9498 20.1533 13.0986 20.1515L13.0963 20.1504ZM32.3768 4.35722H37.3091C42.0812 4.30602 45.5964 7.44324 45.5266 11.9699C45.5964 16.4057 42.0823 19.7454 37.3091 19.6733H32.3768V4.35722ZM37.2793 16.8526C40.315 16.8526 42.3513 14.9244 42.3513 11.9803C42.3513 9.00603 40.3642 7.20003 37.2793 7.20003H35.4479V16.8584H37.2793V16.8526ZM56.8289 19.6838H53.9935V18.5678C53.5428 19.0257 53.0048 19.3853 52.4126 19.6244C51.8203 19.8635 51.1863 19.9772 50.5493 19.9584C48.1535 19.9584 46.6449 18.5376 46.6449 16.5279C46.6449 14.4578 48.292 13.1882 50.9179 13.1882H53.7532V12.6809C53.777 12.3999 53.7382 12.1171 53.6397 11.8534C53.5413 11.5898 53.3856 11.3521 53.1844 11.158C52.9831 10.9639 52.7414 10.8184 52.4772 10.7323C52.2131 10.6462 51.9332 10.6218 51.6585 10.6608C51.0737 10.6767 50.5002 10.8276 49.9813 11.102C49.4624 11.3763 49.0115 11.767 48.6629 12.2445L47.0604 10.3163C47.6487 9.56115 48.4009 8.95463 49.2582 8.54421C50.1154 8.1338 51.0545 7.93062 52.0019 7.95059C52.6531 7.88761 53.31 7.97167 53.9256 8.19677C54.5412 8.42187 55.1003 8.78244 55.5629 9.25271C56.0255 9.72299 56.3802 10.2913 56.6016 10.9172C56.823 11.543 56.9057 12.2108 56.8437 12.8729V19.6838H56.8289ZM53.7383 15.2479H51.3277C50.3192 15.2479 49.7503 15.6435 49.7503 16.4046C49.7503 17.1656 50.389 17.6532 51.3677 17.6532C51.6725 17.6707 51.9777 17.625 52.2646 17.5187C52.5515 17.4125 52.8141 17.248 53.0364 17.0353C53.2587 16.8225 53.4361 16.566 53.5578 16.2813C53.6794 15.9967 53.7428 15.6898 53.744 15.3794L53.7383 15.2479ZM65.6839 19.9584C65.0556 19.9787 64.43 19.8656 63.8472 19.6261C63.2644 19.3867 62.7371 19.0262 62.2991 18.5678V23.8555H59.2086V8.19613H62.0439V9.63557C62.4688 9.07284 63.0226 8.62421 63.657 8.32872C64.2914 8.03322 64.9872 7.89982 65.6839 7.94012C66.4367 7.94732 67.1803 8.11031 67.8691 8.41916C68.558 8.72801 69.1778 9.17625 69.6907 9.73654C70.2036 10.2968 70.5989 10.9575 70.8525 11.6781C71.106 12.3988 71.2126 13.1644 71.1656 13.9283C71.2134 14.6945 71.1077 15.4625 70.855 16.1859C70.6022 16.9093 70.2076 17.573 69.6951 18.1368C69.1825 18.7006 68.5628 19.1528 67.8733 19.4659C67.1838 19.779 66.4389 19.9465 65.6839 19.9584ZM65.1116 10.7725C64.7128 10.7649 64.3171 10.8435 63.9505 11.0029C63.5838 11.1624 63.2547 11.3992 62.9847 11.6976C62.7148 11.996 62.5102 12.3492 62.3845 12.734C62.2589 13.1187 62.2149 13.5262 62.2556 13.9295C62.2148 14.3337 62.2585 14.7422 62.3839 15.1281C62.5093 15.514 62.7135 15.8686 62.9832 16.1686C63.2529 16.4686 63.5819 16.7072 63.9487 16.8688C64.3155 17.0304 64.7118 17.1113 65.1116 17.1063C65.5116 17.1079 65.9077 17.0259 66.2753 16.8654C66.6429 16.705 66.9742 16.4694 67.2485 16.1734C67.5229 15.8774 67.7344 15.5272 67.8701 15.1446C68.0058 14.762 68.0627 14.3551 68.0373 13.9492C68.0679 13.5415 68.0149 13.1318 67.8815 12.746C67.7482 12.3602 67.5375 12.0068 67.2628 11.7081C66.988 11.4094 66.6553 11.172 66.2855 11.011C65.9158 10.8499 65.5172 10.7687 65.115 10.7725H65.1116ZM79.4724 19.9584C78.8441 19.9787 78.2185 19.8656 77.6357 19.6261C77.0529 19.3867 76.5256 19.0262 76.0876 18.5678V23.8555H72.9971V8.19613H75.8415V9.63557C76.2656 9.07419 76.8178 8.62638 77.4505 8.33095C78.0832 8.03552 78.7772 7.90136 79.4724 7.94012C80.2252 7.94732 80.9687 8.11031 81.6576 8.41916C82.3465 8.72801 82.9663 9.17625 83.4792 9.73654C83.9921 10.2968 84.3874 10.9575 84.641 11.6781C84.8945 12.3988 85.0011 13.1644 84.9541 13.9283C85.0019 14.6945 84.8962 15.4625 84.6435 16.1859C84.3907 16.9093 83.9961 17.573 83.4835 18.1368C82.971 18.7006 82.3512 19.1528 81.6618 19.4659C80.9723 19.779 80.2274 19.9465 79.4724 19.9584ZM78.9 10.7725C78.5013 10.7649 78.1056 10.8435 77.739 11.0029C77.3723 11.1624 77.0432 11.3992 76.7732 11.6976C76.5033 11.996 76.2987 12.3492 76.173 12.734C76.0473 13.1187 76.0034 13.5262 76.0441 13.9295C76.0033 14.3337 76.047 14.7422 76.1723 15.1281C76.2977 15.514 76.502 15.8686 76.7717 16.1686C77.0414 16.4686 77.3704 16.7072 77.7372 16.8688C78.104 17.0304 78.5003 17.1113 78.9 17.1063C79.3001 17.1079 79.6962 17.0259 80.0638 16.8654C80.4314 16.705 80.7627 16.4694 81.037 16.1734C81.3113 15.8774 81.5229 15.5272 81.6586 15.1446C81.7943 14.762 81.8512 14.3551 81.8258 13.9492C81.8573 13.5413 81.8048 13.1312 81.6718 12.745C81.5388 12.3588 81.3282 12.005 81.0533 11.7062C80.7783 11.4073 80.4452 11.17 80.0751 11.0092C79.7049 10.8484 79.3059 10.7678 78.9035 10.7725H78.9ZM96.1671 19.6838L92.2627 14.2739H90.0066V19.6838H86.916V4.35722H92.5775C95.7322 4.35722 98.0089 6.35638 98.0089 9.30044C98.025 10.209 97.7843 11.1033 97.3154 11.8769C96.8465 12.6506 96.1691 13.2713 95.3636 13.6653L99.6366 19.6744H96.1671V19.6838ZM89.9974 11.5137H92.5763C92.8743 11.5459 93.1755 11.512 93.4593 11.4145C93.7431 11.3169 94.0028 11.158 94.2204 10.9486C94.4379 10.7393 94.6083 10.4845 94.7197 10.2017C94.8311 9.919 94.8809 9.61508 94.8656 9.31091C94.8752 9.00918 94.8213 8.70885 94.7076 8.42996C94.594 8.15106 94.4231 7.90001 94.2065 7.69353C93.9898 7.48706 93.7324 7.32992 93.4513 7.23258C93.1702 7.13524 92.8719 7.09995 92.5763 7.12905H90.0009L89.9974 11.5137ZM109.995 19.6838H107.159V18.5678C106.708 19.0257 106.17 19.3853 105.578 19.6244C104.986 19.8635 104.352 19.9772 103.715 19.9584C101.319 19.9584 99.8105 18.5376 99.8105 16.5279C99.8105 14.4578 101.458 13.1882 104.084 13.1882H106.919V12.6809C106.943 12.3997 106.904 12.1166 106.805 11.8528C106.707 11.5889 106.551 11.3511 106.349 11.1569C106.148 10.9628 105.906 10.8174 105.641 10.7315C105.377 10.6456 105.097 10.6214 104.822 10.6608C104.237 10.6767 103.664 10.8276 103.145 11.102C102.626 11.3763 102.175 11.767 101.826 12.2445L100.224 10.3163C100.811 9.56263 101.562 8.9571 102.418 8.54694C103.273 8.13679 104.21 7.93309 105.156 7.95176C105.807 7.88877 106.464 7.97284 107.08 8.19793C107.695 8.42303 108.255 8.7836 108.717 9.25388C109.18 9.72415 109.534 10.2925 109.756 10.9183C109.977 11.5441 110.06 12.212 109.998 12.874V19.6849L109.995 19.6838ZM106.904 15.2479H104.488C103.479 15.2479 102.91 15.6435 102.91 16.4046C102.91 17.1656 103.549 17.6532 104.528 17.6532C104.832 17.6707 105.138 17.625 105.425 17.5187C105.711 17.4125 105.974 17.248 106.196 17.0353C106.419 16.8225 106.596 16.566 106.718 16.2813C106.839 15.9967 106.903 15.6898 106.904 15.3794V15.2479ZM123.694 2.26612V19.6733H120.858V18.2525C120.434 18.8143 119.881 19.2625 119.248 19.5579C118.615 19.8534 117.92 19.9872 117.224 19.9479C116.47 19.94 115.725 19.7759 115.035 19.4655C114.345 19.155 113.724 18.7049 113.211 18.1425C112.698 17.5801 112.303 16.9172 112.051 16.1945C111.798 15.4717 111.693 14.7042 111.742 13.9388C111.693 13.1734 111.798 12.4058 112.051 11.6831C112.303 10.9603 112.698 10.2975 113.211 9.73507C113.724 9.17267 114.345 8.72251 115.035 8.41209C115.725 8.10167 116.47 7.93751 117.224 7.92965C117.852 7.89899 118.479 8.00548 119.063 8.24194C119.647 8.4784 120.174 8.83934 120.609 9.30044V2.26612H123.694ZM117.803 10.7725C117.403 10.7708 117.007 10.8528 116.64 11.0133C116.272 11.1738 115.941 11.4093 115.666 11.7053C115.392 12.0014 115.18 12.3515 115.045 12.7341C114.909 13.1167 114.852 13.5236 114.878 13.9295C114.846 14.3377 114.899 14.7481 115.032 15.1345C115.165 15.521 115.376 15.8749 115.651 16.1738C115.927 16.4727 116.26 16.71 116.631 16.8706C117.001 17.0311 117.401 17.1114 117.803 17.1063C118.202 17.1138 118.598 17.0352 118.964 16.8758C119.331 16.7163 119.66 16.4795 119.93 16.1811C120.2 15.8827 120.405 15.5295 120.53 15.1448C120.656 14.76 120.7 14.3525 120.659 13.9492C120.698 13.5453 120.654 13.1375 120.528 12.7523C120.402 12.3672 120.197 12.0133 119.928 11.7136C119.659 11.414 119.33 11.1754 118.964 11.0132C118.598 10.8511 118.203 10.769 117.803 10.7725ZM135.654 19.6838H132.819V18.5678C132.368 19.0257 131.83 19.3853 131.238 19.6244C130.646 19.8635 130.012 19.9772 129.375 19.9584C126.979 19.9584 125.47 18.5376 125.47 16.5279C125.47 14.4578 127.117 13.1882 129.743 13.1882H132.579V12.6809C132.602 12.3997 132.564 12.1166 132.465 11.8528C132.366 11.5889 132.211 11.3511 132.009 11.1569C131.807 10.9628 131.565 10.8174 131.301 10.7315C131.037 10.6456 130.756 10.6214 130.482 10.6608C129.897 10.6767 129.323 10.8276 128.804 11.102C128.285 11.3763 127.835 11.767 127.486 12.2445L125.883 10.3163C126.471 9.56263 127.222 8.9571 128.077 8.54694C128.933 8.13679 129.87 7.93309 130.816 7.95176C131.467 7.88877 132.124 7.97284 132.74 8.19793C133.355 8.42303 133.914 8.7836 134.377 9.25388C134.839 9.72415 135.194 10.2925 135.415 10.9183C135.637 11.5441 135.72 12.212 135.658 12.874V19.6849L135.654 19.6838ZM132.579 15.2479H130.163C129.155 15.2479 128.586 15.6435 128.586 16.4046C128.586 17.1656 129.225 17.6532 130.203 17.6532C130.508 17.6707 130.813 17.625 131.1 17.5187C131.387 17.4125 131.65 17.248 131.872 17.0353C132.094 16.8225 132.272 16.566 132.393 16.2813C132.515 15.9967 132.578 15.6898 132.58 15.3794L132.579 15.2479ZM144.99 10.9552H144.172C143.769 10.9076 143.362 10.9515 142.979 11.0838C142.595 11.2161 142.245 11.4334 141.955 11.72C141.664 12.0066 141.44 12.3553 141.298 12.7408C141.157 13.1264 141.101 13.5392 141.136 13.9492V19.6838H138.045V8.1938H140.881V9.56459C141.25 9.08793 141.722 8.70373 142.261 8.44148C142.799 8.17924 143.389 8.04594 143.986 8.05183C144.328 8.04265 144.668 8.09061 144.995 8.1938V10.9552H144.99Z" fill="#006CFF"/>
</svg>
