<svg width="145" height="36" viewBox="0 0 145 36" fill="none" xmlns="http://www.w3.org/2000/svg">
<path d="M44.0649 4.21122H50.5054C52.1419 4.21122 53.3384 4.65114 54.1127 5.4078C54.8694 6.05888 55.2037 6.93872 55.2037 7.80096C55.2037 8.1353 55.2037 8.55763 55.0981 8.89197C54.887 9.43747 54.5526 9.98296 54.1127 10.4229C53.9015 10.634 53.6728 10.7572 53.4616 10.8628C54.2183 11.074 54.887 11.5139 55.4325 12.0594C55.8724 12.6049 56.0835 13.256 56.0835 14.2414C56.0835 14.7869 55.978 15.438 55.7492 15.8779C55.538 16.3178 55.0981 16.7577 54.6582 17.0745C54.1127 17.4088 53.5672 17.62 53.0217 17.8311C52.3706 18.0423 51.5964 18.0423 50.8397 18.0423H44.1705V4.17603H44.0649V4.21122ZM49.9599 9.87738C50.5054 9.87738 51.0509 9.7718 51.5964 9.54304C52.0363 9.33188 52.2474 8.89197 52.2474 8.45205C52.2474 8.01213 52.0363 7.57221 51.7019 7.36104C51.262 7.02671 50.7165 6.92113 50.171 7.02671H47.1092V9.96537H49.9423V9.87738H49.9599ZM50.7165 15.4556C51.262 15.4556 51.8075 15.35 52.353 15.1212C52.7929 14.9101 53.0041 14.4701 52.8985 13.9246C52.8985 13.4847 52.6874 13.0448 52.353 12.8336C52.0187 12.6225 51.3676 12.3937 50.6109 12.3937H47.0036V15.4556H50.7165Z" fill="#F3BA2F"/>
<path d="M59.8843 4.21118H62.9461V18.183H59.8843V4.21118Z" fill="#F3BA2F"/>
<path d="M67.6445 4.21118H70.4776L77.0236 12.8336V4.21118H80.0679V18.183H77.4635L70.5832 9.33185V18.183H67.6445V4.21118Z" fill="#F3BA2F"/>
<path d="M89.3589 4.10559H92.192L98.1925 18.183H95.0251L93.7229 15.0156H87.828L86.5258 18.183H83.3584L89.3589 4.10559ZM92.6319 12.3937L90.7842 7.81851L88.9366 12.3937H92.6319Z" fill="#F3BA2F"/>
<path d="M101.465 4.21118H104.298L110.844 12.8336V4.21118H113.906V18.183H111.284L104.51 9.33185V18.183H101.465V4.21118Z" fill="#F3BA2F"/>
<path d="M125.028 18.3942C124.042 18.3942 123.057 18.183 122.195 17.8487C120.452 17.092 119.133 15.7722 118.376 14.0302C118.042 13.1503 117.831 12.1825 117.831 11.1971C117.831 9.34942 118.587 7.48417 119.907 6.07642C120.558 5.42534 121.332 4.87984 122.195 4.5455C123.18 4.10558 124.165 4 125.133 4C125.679 4 126.33 4 126.875 4.10558C127.421 4.21116 127.861 4.31674 128.301 4.5455C128.741 4.75666 129.181 4.98542 129.497 5.19658C129.832 5.40775 130.254 5.74208 130.588 6.07642L128.741 8.36401C128.195 7.92409 127.65 7.48416 127.104 7.16742C126.559 6.85068 125.907 6.7275 125.256 6.7275C124.711 6.7275 124.165 6.83308 123.62 7.06184C123.074 7.273 122.634 7.60734 122.318 8.04726C122.001 8.48718 121.667 8.9271 121.438 9.4726C121.227 10.0181 121.104 10.5636 121.104 11.1091C121.104 11.6546 121.209 12.3057 121.438 12.8512C121.667 13.3967 121.878 13.8366 122.318 14.2765C123.074 15.1564 124.165 15.5787 125.256 15.5787C125.907 15.5787 126.682 15.4731 127.333 15.1388C127.878 14.8044 128.529 14.3821 128.969 13.9422L130.923 15.8954C130.588 16.2298 130.166 16.6521 129.832 16.9864C129.392 17.3208 128.952 17.5319 128.529 17.7431C128.089 17.9542 127.544 18.183 126.998 18.2886C126.224 18.3942 125.573 18.3942 125.028 18.3942Z" fill="#F3BA2F"/>
<path d="M134.424 4.21118H144.894V6.93868H137.363V9.77177H144.015V12.4993H137.363V15.4555H145V18.183H134.424V4.21118Z" fill="#F3BA2F"/>
<path d="M47.9888 31.9259C47.2321 31.9259 46.4579 31.8204 45.8068 31.486C45.1557 31.2749 44.5046 30.8349 43.8359 30.2894L44.9269 29.0929C45.3669 29.5328 45.8068 29.7439 46.3523 30.0783C46.8978 30.2894 47.4433 30.4126 47.9888 30.4126C48.4287 30.4126 48.8686 30.307 49.2909 30.0783C49.6253 29.8671 49.7309 29.5328 49.7309 29.1984C49.7309 29.0929 49.7309 28.8641 49.6253 28.7585C49.5197 28.6529 49.4141 28.4242 49.2909 28.3186C49.0798 28.213 48.851 28.1074 48.6399 27.9843C48.3055 27.8787 47.8832 27.7731 47.5489 27.6499C47.1089 27.5443 46.5634 27.4388 46.1235 27.21C45.7892 27.1044 45.3669 26.8757 45.1381 26.6645C44.9269 26.4533 44.6982 26.2246 44.487 25.9078C44.2759 25.4679 44.2759 25.028 44.2759 24.7113C44.2759 24.2713 44.3814 23.9546 44.487 23.5147C44.5926 23.1803 44.9269 22.8636 45.1381 22.6348C45.4724 22.4237 45.7892 22.1949 46.2291 22.0893C46.669 21.9838 47.1089 21.8782 47.5313 21.8782C48.1823 21.8782 48.8334 21.9838 49.5021 22.2125C50.0476 22.4237 50.5931 22.758 51.1386 23.0924L50.2588 24.3945C49.8188 24.0602 49.3789 23.849 48.9566 23.6379C48.5167 23.4267 48.0768 23.4267 47.6544 23.4267C47.2145 23.4267 46.7746 23.5323 46.4579 23.761C46.2467 23.9722 46.0179 24.3065 46.0179 24.6409C46.0179 24.852 46.0179 24.9752 46.1235 25.1864C46.2291 25.2919 46.3347 25.5207 46.4579 25.6263C46.669 25.7319 46.8978 25.8375 47.2145 25.9606C47.5489 26.0662 47.8656 26.1718 48.4111 26.295C48.851 26.4005 49.2909 26.5061 49.8364 26.7349C50.1708 26.8405 50.4875 27.0692 50.8219 27.2804C51.033 27.4915 51.2618 27.8259 51.3674 28.037C51.4729 28.3714 51.5785 28.6881 51.5785 29.1281C51.5785 29.568 51.4729 30.0079 51.3674 30.3246C51.1562 30.659 50.9274 30.9757 50.6107 31.3101C50.2764 31.5212 49.9596 31.75 49.5197 31.8556C48.9742 31.8204 48.4287 31.9259 47.9888 31.9259Z" fill="#F3BA2F"/>
<path d="M53.4438 22.0015H55.3091L58.2478 26.5766L61.3096 22.0015H63.1573V31.8205H61.4152V24.729L58.3533 29.3041H58.2478L55.2035 24.729V31.8205H53.4438V22.0015Z" fill="#F3BA2F"/>
<path d="M69.0524 21.8959H70.6889L74.9473 31.7149H73.0996L72.1142 29.3217H67.539L66.5536 31.7149H64.8115L69.0524 21.8959ZM71.5687 27.8964L69.8266 23.9723L68.1901 27.8964H71.5687Z" fill="#F3BA2F"/>
<path d="M76.6891 22.0015H81.0531C81.5986 22.0015 82.1441 22.107 82.6896 22.2126C83.1295 22.3182 83.5694 22.6525 83.8862 22.9693C84.0973 23.1804 84.3261 23.5148 84.5372 23.9547C84.6428 24.289 84.7484 24.7114 84.7484 25.1513C84.7484 25.4856 84.6428 25.9079 84.5372 26.2423C84.4317 26.5766 84.2029 26.7878 84.0973 27.1221C83.8862 27.3333 83.6574 27.562 83.3407 27.7732C83.0063 27.9844 82.6896 28.1075 82.3552 28.2131L84.9772 31.926H82.9007L80.5076 28.5475H78.3256V31.926H76.5835L76.6891 22.0015ZM80.9475 26.8054C81.493 26.8054 82.0385 26.6998 82.3728 26.3655C82.7072 26.0311 82.9183 25.6088 82.9183 25.1689C82.9183 24.729 82.7072 24.289 82.3728 23.9723C81.9329 23.638 81.3874 23.5324 80.8419 23.5324H78.3256V26.8054H80.9475Z" fill="#F3BA2F"/>
<path d="M89.2358 23.5324H86.0684V22.0015H94.0397V23.5324H90.8723V31.8205H89.1302L89.2358 23.5324Z" fill="#F3BA2F"/>
<path d="M104.633 31.9261C103.982 31.9261 103.331 31.8205 102.662 31.4862C101.465 30.9407 100.48 30.0608 100.04 28.8642C99.829 28.2132 99.6002 27.5621 99.7058 26.8934C99.7058 26.2423 99.8114 25.5912 100.04 24.9225C100.48 23.726 101.465 22.7405 102.662 22.195C103.313 21.9839 103.964 21.7551 104.738 21.7551C105.178 21.7551 105.618 21.7551 105.935 21.8607C106.269 21.9663 106.586 22.0719 106.92 22.195C107.255 22.3006 107.466 22.5294 107.8 22.635C108.011 22.8461 108.346 23.0749 108.557 23.286L107.466 24.5882C107.132 24.2539 106.709 23.9371 106.269 23.7084C105.829 23.4972 105.284 23.374 104.738 23.374C104.299 23.374 103.859 23.4796 103.436 23.5852C102.996 23.7964 102.68 24.0251 102.345 24.3419C102.011 24.6762 101.8 24.9929 101.694 25.4329C101.589 25.8728 101.483 26.3127 101.483 26.735C101.483 27.1749 101.589 27.6149 101.694 28.0372C101.8 28.4595 102.029 28.7938 102.345 29.1282C102.68 29.4625 102.996 29.6737 103.436 29.8848C103.876 30.096 104.316 30.2192 104.738 30.096C105.284 30.096 105.829 29.9904 106.269 29.7617C106.709 29.5505 107.149 29.2162 107.572 28.7762L108.663 29.8672C108.451 30.0784 108.117 30.4127 107.906 30.6239C107.572 30.8351 107.36 31.0638 107.026 31.1694C106.692 31.275 106.375 31.5037 105.935 31.5037C105.495 31.9261 105.055 31.9261 104.633 31.9261Z" fill="#F3BA2F"/>
<path d="M110.405 22.0015H112.041V26.0311H116.74V22.0015H118.482V31.8205H116.74V27.6676H112.041V31.8205H110.405V22.0015Z" fill="#F3BA2F"/>
<path d="M124.482 21.8959H126.119L130.377 31.7149H128.529L127.544 29.3217H122.969L121.983 31.7149H120.241L124.482 21.8959ZM126.893 27.8964L125.256 23.9723L123.62 27.8964H126.893Z" fill="#F3BA2F"/>
<path d="M132.119 22.0015H133.879V31.8205H132.119V22.0015Z" fill="#F3BA2F"/>
<path d="M136.483 22.0015H138.014L143.258 28.7586V22.0015H145V31.8205H143.574L138.243 24.8345V31.8205H136.483V22.0015Z" fill="#F3BA2F"/>
<path fill-rule="evenodd" clip-rule="evenodd" d="M18 8.136L11.0085 15.1275L11.0086 15.1272L6.9408 11.0592L18 0L29.0628 11.0625L24.9948 15.1305L18 8.136ZM4.06817 13.9313L0 18L4.06783 22.0673L8.136 17.9992L4.06817 13.9313ZM18 27.864L11.0085 20.873L6.93506 24.9351L6.9408 24.9408L18 36L29.0628 24.9376L29.0648 24.9355L24.9946 20.8696L18 27.864ZM31.9322 13.9336L27.864 18.0017L31.932 22.0696L36 18.0015L31.9322 13.9336ZM22.1276 17.9979H22.1262L22.1299 17.9998L22.1279 18.0021L18 22.13L13.8757 18.0052L13.87 17.9993L13.8757 17.9936L14.5986 17.2707L14.9491 16.92L18 13.87L22.1276 17.9979Z" fill="#F3BA2F"/>
</svg>
