<svg width="58" height="48" viewBox="0 0 58 48" fill="none" xmlns="http://www.w3.org/2000/svg">
<g clip-path="url(#clip0_967_4816)">
<path d="M0.326172 35.0396H2.59513V46.0394H9.18435V48H0.326172V35.0396Z" fill="#EEEEEE"/>
<path d="M10.8906 35.0396H20.2207V37.0001H13.1596V40.3943H19.6942V42.246H13.1596V46.0394H20.3476V48H10.8906V35.0396Z" fill="#EEEEEE"/>
<path d="M21.8827 35.0396H24.5873L27.5278 39.614L30.5955 35.0396H33.1367L28.853 41.2838L33.4452 48H30.6862L27.4551 43.0444L24.1697 48H21.5742L26.1664 41.2838L21.8827 35.0396Z" fill="#EEEEEE"/>
<path d="M35.0371 35.0396H44.3672V37.0001H37.3061V40.3943H43.8407V42.246H37.3061V46.0394H44.4944V48H35.0371V35.0396Z" fill="#EEEEEE"/>
<path d="M46.7109 35.0396H52.901C54.3286 35.0396 55.3996 35.3481 56.1137 35.9652C56.4738 36.2873 56.757 36.6861 56.9424 37.1323C57.1278 37.5784 57.2106 38.0605 57.1847 38.543C57.2019 39.0676 57.1092 39.59 56.9124 40.0767C56.7597 40.4381 56.5447 40.7699 56.2771 41.0569C56.0725 41.2774 55.8295 41.4588 55.5599 41.5922C55.3241 41.7014 55.1517 41.7741 55.0427 41.8103V41.8464C55.2589 41.8773 55.4698 41.9384 55.6691 42.028C55.9082 42.1363 56.1216 42.2941 56.2952 42.491C56.5066 42.7331 56.6699 43.0133 56.7763 43.3167C56.9142 43.7256 56.9787 44.1558 56.9667 44.5873C56.961 45.2839 57.0188 45.9797 57.1393 46.6659C57.1954 47.1504 57.3803 47.611 57.6747 48H55.2422C55.0717 47.7189 54.9693 47.4019 54.943 47.0743C54.9125 46.7357 54.8974 46.409 54.8976 46.094C54.9035 45.5807 54.867 45.0677 54.7885 44.5603C54.7343 44.1787 54.5981 43.8133 54.3893 43.4893C54.1958 43.2052 53.9204 42.9867 53.5997 42.8629C53.1893 42.7171 52.7552 42.6494 52.3199 42.6633H48.9799V48H46.7109V35.0396ZM48.9799 40.9389H52.701C53.2973 40.9818 53.8877 40.7969 54.3531 40.4216C54.5516 40.2176 54.7043 39.9737 54.8013 39.7061C54.8983 39.4385 54.9373 39.1533 54.9157 38.8695C54.9283 38.5246 54.8664 38.1811 54.7342 37.8623C54.6262 37.618 54.4536 37.4078 54.235 37.2543C54.0167 37.1064 53.7691 37.0072 53.509 36.9636C53.2303 36.9148 52.9478 36.8906 52.6648 36.8912H48.9799V40.9389Z" fill="#EEEEEE"/>
<path d="M43.7974 0H35.9922L30.957 6.00072L34.8596 10.6517L43.7974 0Z" fill="#EEEEEE"/>
<path d="M31.6477 14.4795H26.3568H23.8429L14.207 25.9633H22.0122L31.6481 14.4795H31.6477Z" fill="#EEEEEE"/>
<path d="M26.3568 11.4838H31.6474H31.6481L22.0122 0H14.207L23.8429 11.4838H26.3568Z" fill="#EEEEEE"/>
<path d="M30.957 19.9625L35.9922 25.9629H43.7974L34.8599 15.3115L30.957 19.9625Z" fill="#EEEEEE"/>
</g>
<defs>
<clipPath id="clip0_967_4816">
<rect width="57.3477" height="48" fill="white" transform="translate(0.326172)"/>
</clipPath>
</defs>
</svg>
