<svg width="106" height="32" viewBox="0 0 106 32" fill="none" xmlns="http://www.w3.org/2000/svg">
<path d="M30.7984 17.2159L30.8036 22.7548L19.0185 29.8321L19.0046 17.2403L31.8699 9.74831L31.8682 8.36665L16.9574 0.0958279L16.9556 0.0975702L16.7918 0L16.5845 0.113251L16.5828 0.111509L1.37051 8.39975L1.37225 9.77968L14.6052 17.2455L14.6192 29.7816L2.46643 22.7861L2.4612 17.256L0.865234 17.2525L0.870461 23.2461L1.26771 23.9361L15.0181 31.9281L16.2029 31.2416L16.1855 16.7803L15.797 16.0869L3.39858 9.10365L16.7796 1.82073L29.8732 9.07578L17.8024 16.0956L17.4086 16.7786L17.4243 31.2416L18.6108 31.9246L32.0058 23.903L32.3996 23.213L32.3944 17.2229L30.7984 17.2159Z" fill="url(#paint0_linear_1016_3077)"/>
<path d="M45.5193 10.834L44.2317 9.52207L44.1986 6.65942L45.5123 5.40146L55.7084 5.35791L55.7049 2.02832L43.7839 2.044L40.5449 5.28995L40.5519 10.7818L43.7996 14.0207L51.9798 14.012L53.2378 15.2944L53.2709 18.9184L51.9868 20.206L41.2941 20.2478L41.2976 23.5791L53.6855 23.5635L56.9245 20.3158L56.9176 14.0347L53.6699 10.7957L45.5193 10.834Z" fill="#0A1F8F"/>
<path d="M75.9152 10.6655L75.9274 5.26079L72.6919 2.01135L63.9837 1.99219L61.0566 4.9071L63.4471 7.33764L65.5849 5.20852L70.9896 5.22072L72.272 6.51004L72.2668 9.13921L61.2291 19.0478L61.2204 23.5186L76.0929 23.55L76.0999 20.2204L65.3776 20.196L75.9152 10.6655Z" fill="#0A1F8F"/>
<path d="M101.247 1.85893L97.9333 19.939L97.2329 19.9443L93.6525 1.91643L90.3786 1.93908L87.0647 20.0192L86.3643 20.0262L82.7838 1.99658L78.8984 2.02445L83.9947 23.5195L89.5458 23.4795L92.0739 9.87363L94.8041 23.4394L100.327 23.3993L105.133 1.83105L101.247 1.85893Z" fill="#0A1F8F"/>
<path d="M46.1672 29.466V29.4068C46.1672 29.1088 45.932 28.9381 45.5278 28.9381C45.1235 28.9381 44.9197 29.0757 44.9197 29.3005C44.9197 29.4503 45.026 29.5514 45.2438 29.6037L45.9633 29.7692C46.2512 29.8129 46.522 29.9332 46.7474 30.1177C46.8388 30.204 46.9104 30.3092 46.9574 30.4259C47.0043 30.5426 47.0254 30.6681 47.0192 30.7937C47.0192 31.5307 46.4547 31.9837 45.533 31.9837C44.573 31.9837 44.0189 31.5255 44.0137 30.731H44.8134C44.8291 31.1352 45.0573 31.3164 45.5434 31.3164C45.9529 31.3164 46.2038 31.1683 46.2038 30.9174C46.2038 30.7431 46.0766 30.6194 45.8205 30.555L45.1758 30.3947C44.8952 30.3479 44.6299 30.2343 44.4022 30.0636C44.3074 29.975 44.233 29.8667 44.1842 29.7463C44.1355 29.6259 44.1136 29.4964 44.12 29.3667C44.12 28.6698 44.6426 28.269 45.5487 28.269C46.1236 28.269 46.5296 28.4433 46.7578 28.7743C46.8859 28.9817 46.9574 29.2189 46.9652 29.4625L46.1672 29.466Z" fill="#0A1F8F"/>
<path d="M47.5873 30.142C47.6343 29.5513 48.002 29.2708 48.7268 29.2708C49.0458 29.2485 49.3621 29.3426 49.6171 29.5356C49.8035 29.7012 49.8732 29.9102 49.8732 30.2883V31.4661C49.8732 31.7432 49.8837 31.7797 49.969 31.9087H49.1972C49.1735 31.8425 49.1538 31.775 49.138 31.7066C49.0399 31.7989 48.9243 31.8705 48.798 31.9172C48.6716 31.9639 48.5372 31.9847 48.4027 31.9784C47.8312 31.9784 47.4531 31.6578 47.4531 31.1734C47.4531 30.689 47.758 30.4364 48.4776 30.3197L48.8871 30.25C49.0613 30.2238 49.117 30.182 49.117 30.0757C49.117 29.9329 48.9672 29.8423 48.7215 29.8423C48.4445 29.8423 48.2964 29.9381 48.2633 30.1454L47.5873 30.142ZM49.138 30.6803C49.0486 30.7166 48.9558 30.7434 48.8609 30.7605L48.5891 30.8197C48.3173 30.8824 48.1988 30.973 48.1988 31.1281C48.1988 31.2832 48.3435 31.3999 48.5839 31.3999C48.6976 31.4046 48.8102 31.3766 48.9085 31.3191C49.0067 31.2617 49.0863 31.1772 49.138 31.0758V30.6803Z" fill="#0A1F8F"/>
<path d="M51.8946 29.8992H51.4102V31.9081H50.6541V29.8992H50.2969V29.3661H50.6541V29.1797C50.6541 28.6239 50.9259 28.3521 51.4851 28.3521H51.9016V28.9549H51.6768C51.5026 28.9549 51.4102 29.035 51.4102 29.1849V29.3591H51.9016L51.8946 29.8992Z" fill="#0A1F8F"/>
<path d="M52.9565 30.8414C52.9581 30.9154 52.9744 30.9884 53.0046 31.0561C53.0347 31.1237 53.0781 31.1847 53.1322 31.2353C53.1862 31.286 53.2498 31.3253 53.3193 31.351C53.3888 31.3767 53.4627 31.3883 53.5367 31.385C53.6253 31.3916 53.7139 31.3736 53.7929 31.333C53.8719 31.2924 53.9382 31.2308 53.9845 31.155H54.7528C54.6082 31.6568 54.1291 31.9774 53.5158 31.9774C52.7213 31.9774 52.1934 31.4338 52.1934 30.6236C52.1934 29.8134 52.7317 29.2646 53.5106 29.2646C53.7572 29.2525 54.0013 29.3192 54.2074 29.4552C54.4136 29.5912 54.571 29.7893 54.657 30.0208C54.7539 30.283 54.7971 30.5621 54.7842 30.8414H52.9565ZM54.0019 30.3082C54.0023 30.2439 53.9894 30.1801 53.964 30.121C53.9386 30.0619 53.9012 30.0086 53.8543 29.9646C53.8073 29.9206 53.7518 29.8868 53.6911 29.8653C53.6305 29.8437 53.566 29.835 53.5018 29.8396C53.3685 29.8335 53.238 29.8787 53.1369 29.9658C53.0358 30.053 52.9719 30.1755 52.9582 30.3082H54.0019Z" fill="#0A1F8F"/>
<path d="M56.9293 30.1418C56.9781 29.5512 57.3457 29.2707 58.0705 29.2707C58.3895 29.2489 58.7056 29.3429 58.9608 29.5355C59.1473 29.701 59.217 29.9101 59.217 30.2882V31.466C59.217 31.743 59.2274 31.7796 59.3128 31.9086H58.5392C58.5078 31.818 58.5078 31.8023 58.48 31.7064C58.3821 31.799 58.2665 31.8708 58.1401 31.9175C58.0138 31.9642 57.8793 31.9849 57.7447 31.9782C57.175 31.9782 56.7969 31.6577 56.7969 31.1733C56.7969 30.6889 57.1 30.4363 57.8196 30.3196L58.2308 30.2499C58.405 30.2237 58.4591 30.1819 58.4591 30.0756C58.4591 29.9328 58.3092 29.8422 58.0653 29.8422C57.7883 29.8422 57.6384 29.938 57.6071 30.1453L56.9293 30.1418ZM58.48 30.6802C58.3911 30.7197 58.2982 30.7495 58.2029 30.7691L57.9311 30.8283C57.6593 30.891 57.5426 30.9816 57.5426 31.1367C57.5426 31.2918 57.6872 31.4085 57.9259 31.4085C58.0397 31.4137 58.1525 31.3858 58.2508 31.3283C58.3491 31.2708 58.4287 31.1861 58.48 31.0844V30.6802Z" fill="#0A1F8F"/>
<path d="M60.625 29.3322V29.5831C60.9021 29.327 61.0624 29.2573 61.322 29.2573C61.8813 29.2573 62.2228 29.6319 62.2228 30.2383V31.9074H61.4648V30.5135C61.4648 30.2522 61.4492 30.1511 61.3847 30.0553C61.3504 30.0062 61.3039 29.9668 61.2499 29.9408C61.1959 29.9149 61.1361 29.9033 61.0763 29.9072C61.0153 29.9055 60.9547 29.917 60.8985 29.9407C60.8423 29.9644 60.7918 30 60.7505 30.0449C60.7045 30.105 60.6709 30.1738 60.6517 30.2471C60.6326 30.3204 60.6283 30.3967 60.639 30.4717V31.9161H59.8828V29.3322H60.625Z" fill="#0A1F8F"/>
<path d="M65.3303 31.9074H64.6055V31.6303C64.5274 31.7446 64.421 31.8367 64.2968 31.8978C64.1725 31.9589 64.0346 31.9868 63.8964 31.9788C63.2186 31.9788 62.7656 31.4404 62.7656 30.625C62.7656 29.8096 63.2239 29.259 63.9173 29.259C64.0393 29.253 64.1612 29.2738 64.2744 29.3198C64.3875 29.3659 64.4893 29.4361 64.5724 29.5256V28.353H65.3303V31.9074ZM63.5113 30.6163C63.5113 31.0711 63.7256 31.3638 64.0549 31.3638C64.3842 31.3638 64.5986 31.0641 64.5986 30.6285C64.5986 30.1929 64.386 29.8706 64.0549 29.8706C63.7239 29.8706 63.5113 30.1633 63.5113 30.6163Z" fill="#0A1F8F"/>
<path d="M69.5871 29.466V29.4068C69.5871 29.1088 69.3536 28.9381 68.9477 28.9381C68.5696 28.9381 68.3396 29.0757 68.3396 29.3005C68.3396 29.4503 68.4476 29.5514 68.6654 29.6037L69.385 29.7692C69.6728 29.8133 69.9435 29.9336 70.169 30.1177C70.2605 30.204 70.3321 30.3092 70.379 30.4259C70.4259 30.5426 70.447 30.6681 70.4409 30.7937C70.4409 31.5307 69.8746 31.9837 68.9529 31.9837C67.9929 31.9837 67.4388 31.5255 67.4336 30.731H68.2333C68.249 31.1352 68.479 31.3164 68.9634 31.3164C69.3745 31.3164 69.6254 31.1683 69.6254 30.9174C69.6254 30.7431 69.4965 30.6194 69.2404 30.555L68.5957 30.3947C68.3156 30.3479 68.0508 30.2344 67.8239 30.0636C67.7288 29.975 67.6542 29.8668 67.6051 29.7465C67.5561 29.6261 67.5338 29.4965 67.5399 29.3667C67.5399 28.6698 68.0626 28.269 68.9686 28.269C69.5494 28.269 69.9559 28.4375 70.1882 28.7743C70.3163 28.9817 70.3878 29.2189 70.3955 29.4625L69.5871 29.466Z" fill="#0A1F8F"/>
<path d="M71.5993 30.8415C71.6008 30.9155 71.6172 30.9885 71.6473 31.0562C71.6775 31.1238 71.7209 31.1847 71.7749 31.2354C71.829 31.286 71.8926 31.3254 71.9621 31.3511C72.0316 31.3768 72.1055 31.3883 72.1795 31.3851C72.2681 31.3918 72.3568 31.3739 72.4359 31.3333C72.5149 31.2927 72.5812 31.231 72.6273 31.1551H73.3956C73.251 31.6569 72.7719 31.9774 72.1586 31.9774C71.3641 31.9774 70.8379 31.4338 70.8379 30.6237C70.8379 29.8135 71.3763 29.2646 72.1533 29.2646C72.4 29.2523 72.6443 29.3189 72.8505 29.4549C73.0566 29.5909 73.2141 29.7892 73.2998 30.0208C73.3966 30.2831 73.4399 30.5622 73.427 30.8415H71.5993ZM72.6447 30.3083C72.6448 30.2439 72.6317 30.1801 72.6061 30.121C72.5805 30.0618 72.543 30.0086 72.4959 29.9646C72.4488 29.9206 72.3932 29.8868 72.3324 29.8653C72.2717 29.8438 72.2072 29.8351 72.1429 29.8396C72.0096 29.8336 71.879 29.8788 71.7779 29.9659C71.6769 30.053 71.6129 30.1755 71.5993 30.3083H72.6447Z" fill="#0A1F8F"/>
<path d="M75.607 30.2613C75.5938 30.1489 75.5376 30.0461 75.4502 29.9743C75.3629 29.9025 75.251 29.8673 75.1383 29.8762C74.7898 29.8762 74.6051 30.1376 74.6051 30.6062C74.6051 31.1028 74.7916 31.3642 75.1435 31.3642C75.4153 31.3642 75.5652 31.2248 75.6227 30.9216L76.3579 30.9582C76.2516 31.6081 75.8039 31.9775 75.1226 31.9775C74.3386 31.9775 73.8438 31.4548 73.8438 30.6289C73.8438 29.7752 74.3333 29.2646 75.1488 29.2646C75.8195 29.2646 76.2795 29.648 76.3266 30.2613H75.607Z" fill="#0A1F8F"/>
<path d="M79.1713 31.9073H78.4517V31.625C78.3809 31.7399 78.28 31.8331 78.1599 31.8946C78.0397 31.956 77.905 31.9833 77.7705 31.9735C77.5166 31.9777 77.2713 31.882 77.0875 31.7069C76.9132 31.5327 76.8418 31.3114 76.8418 30.9437V29.3286H77.5997V30.7782C77.5997 31.0291 77.6102 31.0936 77.6799 31.1842C77.719 31.2332 77.7694 31.2723 77.8266 31.298C77.8839 31.3238 77.9465 31.3355 78.0092 31.3323C78.0714 31.3355 78.1334 31.3238 78.1901 31.298C78.2468 31.2722 78.2965 31.2332 78.335 31.1842C78.4047 31.0936 78.4151 31.0343 78.4151 30.7782V29.3286H79.1713V31.9073Z" fill="#0A1F8F"/>
<path d="M80.5842 29.3322L80.5633 29.7904C80.7132 29.3757 80.9118 29.2573 81.4537 29.2677V29.9803C81.3901 29.9723 81.3261 29.9688 81.262 29.9699C81.1487 29.9615 81.0355 29.9864 80.9361 30.0415C80.8368 30.0966 80.7556 30.1795 80.7027 30.28C80.6278 30.4542 80.6017 30.6895 80.6017 31.186V31.9108H79.8438V29.3322H80.5842Z" fill="#0A1F8F"/>
<path d="M82.4958 30.8414C82.4976 30.9156 82.5141 30.9886 82.5445 31.0563C82.5748 31.1239 82.6184 31.1848 82.6726 31.2355C82.7268 31.2861 82.7905 31.3254 82.8601 31.3511C82.9296 31.3768 83.0036 31.3883 83.0777 31.385C83.1663 31.3916 83.255 31.3736 83.334 31.333C83.413 31.2925 83.4792 31.2309 83.5255 31.155H84.2921C84.1492 31.6568 83.6684 31.9774 83.0568 31.9774C82.2623 31.9774 81.7344 31.4338 81.7344 30.6236C81.7344 29.8135 82.2728 29.2646 83.0516 29.2646C83.298 29.2523 83.542 29.3191 83.7479 29.4551C83.9538 29.5911 84.1109 29.7893 84.1963 30.0208C84.2937 30.283 84.3376 30.562 84.3252 30.8414H82.4958ZM83.5412 30.3083C83.5416 30.2438 83.5286 30.1799 83.5031 30.1206C83.4776 30.0614 83.4401 30.008 83.393 29.964C83.3458 29.92 83.2901 29.8862 83.2292 29.8648C83.1683 29.8433 83.1037 29.8348 83.0394 29.8396C82.9061 29.8336 82.7755 29.8787 82.6744 29.9659C82.5733 30.053 82.5094 30.1755 82.4958 30.3083H83.5412Z" fill="#0A1F8F"/>
<path d="M86.8802 31.9081L85.9219 28.3521H86.7146L87.0997 29.9463C87.1694 30.2442 87.206 30.4097 87.2966 30.8314C87.3558 30.4254 87.3924 30.2129 87.4464 29.9463L87.7809 28.3521H88.5493L88.8786 29.9724C88.9483 30.3209 88.9866 30.516 89.0337 30.8314C89.065 30.6763 89.1243 30.3888 89.2079 29.9724L89.6034 28.3521H90.3962L89.4048 31.9081H88.6591L88.3455 30.4219C88.267 30.0543 88.1921 29.671 88.1712 29.5002C88.1015 29.8836 88.058 30.1135 87.997 30.4219L87.6485 31.9081H86.8802Z" fill="#0A1F8F"/>
<path d="M93.2374 30.6394C93.236 30.9095 93.1547 31.1732 93.0036 31.3972C92.8526 31.6211 92.6386 31.7954 92.3887 31.8979C92.1387 32.0004 91.864 32.0266 91.5992 31.9731C91.3344 31.9197 91.0914 31.7891 90.9007 31.5977C90.7101 31.4063 90.5803 31.1628 90.5279 30.8978C90.4755 30.6328 90.5028 30.3582 90.6062 30.1086C90.7097 29.8591 90.8847 29.6458 91.1093 29.4956C91.3338 29.3454 91.5978 29.265 91.8679 29.2647C92.0505 29.2559 92.2329 29.2855 92.4034 29.3516C92.5739 29.4176 92.7286 29.5187 92.8577 29.6482C92.9867 29.7777 93.0871 29.9328 93.1525 30.1036C93.2179 30.2743 93.2469 30.4568 93.2374 30.6394ZM91.2651 30.6167C91.2651 31.1028 91.4846 31.3746 91.8731 31.3746C92.2617 31.3746 92.476 31.1028 92.476 30.6342C92.476 30.1376 92.2617 29.8658 91.8679 29.8658C91.4742 29.8658 91.2651 30.1376 91.2651 30.6167Z" fill="#0A1F8F"/>
<path d="M94.5178 29.3322L94.4969 29.7904C94.6468 29.3757 94.8454 29.2573 95.3873 29.2677V29.9803C95.3237 29.9723 95.2597 29.9688 95.1956 29.9699C95.0821 29.9616 94.9686 29.9866 94.869 30.0416C94.7694 30.0967 94.688 30.1795 94.6346 30.28C94.5614 30.4542 94.5335 30.6895 94.5335 31.186V31.9108H93.7773V29.3322H94.5178Z" fill="#0A1F8F"/>
<path d="M96.5941 31.9081H95.8379V28.3521H96.5958L96.5941 31.9081Z" fill="#0A1F8F"/>
<path d="M99.6545 31.9074H98.9297V31.6303C98.8516 31.7446 98.7452 31.8367 98.621 31.8978C98.4967 31.9589 98.3588 31.9868 98.2206 31.9788C97.5428 31.9788 97.0898 31.4404 97.0898 30.625C97.0898 29.8096 97.5481 29.259 98.2415 29.259C98.3635 29.253 98.4854 29.2738 98.5986 29.3198C98.7117 29.3659 98.8135 29.4361 98.8966 29.5256V28.353H99.6545V31.9074ZM97.8356 30.6163C97.8356 31.0711 98.0499 31.3638 98.3792 31.3638C98.7085 31.3638 98.9228 31.0641 98.9228 30.6285C98.9228 30.1929 98.7102 29.8706 98.3792 29.8706C98.0481 29.8706 97.8356 30.1633 97.8356 30.6163Z" fill="#0A1F8F"/>
<defs>
<linearGradient id="paint0_linear_1016_3077" x1="0.865234" y1="15.9649" x2="32.3996" y2="15.9649" gradientUnits="userSpaceOnUse">
<stop stop-color="#5177BB"/>
<stop offset="0.26" stop-color="#4B579B"/>
<stop offset="0.57" stop-color="#44377A"/>
<stop offset="0.83" stop-color="#402366"/>
<stop offset="1" stop-color="#3F1C5F"/>
</linearGradient>
</defs>
</svg>
