<svg width="71" height="80" viewBox="0 0 71 80" fill="none" xmlns="http://www.w3.org/2000/svg">
    <path fill-rule="evenodd" clip-rule="evenodd" d="M30.9247 65.4097C30.3628 66.5028 29.7174 67.6411 28.99 68.8243C28.2493 70.0292 27.4232 71.2294 26.5131 72.4252L26.5059 72.4345L26.4987 72.4438C25.5577 73.6437 24.5237 74.7376 23.3969 75.7237L23.3939 75.7263C22.2728 76.7024 21.0516 77.498 19.7321 78.107C18.3575 78.7926 16.8818 79.1332 15.3267 79.1332C12.9323 79.1332 10.8076 78.3798 9.0401 76.8518C7.39502 75.4297 6.03605 73.5972 4.942 71.3989C3.86604 69.2369 2.99918 66.8107 2.33226 64.1306L2.32924 64.1185L2.32641 64.1063C1.70453 61.4336 1.22096 58.7266 0.875616 55.9857L0.875298 55.9831C0.532535 53.2282 0.292083 50.5552 0.154556 47.9645L0.153549 47.9428C0.0514193 45.3776 0 43.0947 0 41.0962C0 38.2086 0.0855377 35.2211 0.256253 32.1338L0.25735 32.1158C0.462848 29.0189 0.771245 25.9886 1.18284 23.025C1.59501 20.0574 2.11116 17.238 2.73241 14.5681L2.73707 14.5486C3.39617 11.865 4.16661 9.48199 5.05545 7.41025L5.06009 7.39942L5.06489 7.38867C5.99725 5.29906 7.09079 3.5589 8.37574 2.22882C9.75514 0.80097 11.4292 0 13.3474 0C14.727 0 16.0137 0.336934 17.1623 1.0391C18.4086 1.74461 19.36 2.86421 20.0697 4.2506C20.7776 5.63351 21.2899 7.35097 21.6452 9.34989C22.0058 11.3785 22.178 13.8093 22.178 16.6221C22.178 20.1357 21.8107 23.7593 21.0818 27.4908L21.0813 27.4936C20.3568 31.1676 19.3746 34.8711 18.1361 38.6039C16.8995 42.331 15.4407 46.0549 13.7605 49.7755L13.7582 49.7807C12.1677 53.2701 10.4689 56.6827 8.66194 60.0182C9.47401 63.9579 10.5209 66.975 11.7583 69.1374C13.021 71.3103 14.2845 71.9949 15.4789 71.9949C16.3733 71.9949 17.3155 71.658 18.3343 70.8032C19.4792 69.8069 20.5421 68.6309 21.5204 67.2676C22.527 65.8649 23.399 64.4522 24.139 63.03L24.1453 63.018C24.8859 61.623 25.7792 60.0286 26.6753 58.4502L31.7471 47.7917L31.7712 47.7481C32.0724 47.2034 32.492 46.7587 33.0005 46.4181C33.5766 46.0322 34.2294 45.8381 34.9164 45.8381C35.8635 45.8381 36.7426 46.1817 37.4109 46.904C38.0032 47.5109 38.345 48.2635 38.4547 49.0896L38.4612 49.1392L38.4648 49.189C38.4906 49.552 38.5895 50.2059 38.7876 51.2033C39.0151 52.1809 39.3087 53.3122 39.6699 54.5997C40.0683 55.8667 40.5169 57.2352 41.0157 58.7058C41.2006 59.2158 41.3956 59.7239 41.601 60.2302C45.2583 54.4831 49.2378 48.9562 53.5393 43.6499C54.2356 42.7544 55.2337 42.3709 56.2823 42.3709C57.2407 42.3709 58.1146 42.7202 58.801 43.4097C59.4651 44.0769 59.8349 44.9289 59.8349 45.8891C59.8349 46.7342 59.5564 47.522 58.9933 48.168C54.0606 54.2848 49.5411 60.7092 45.4346 67.4418C46.373 68.7123 47.3707 69.769 48.4228 70.6248C49.5609 71.5503 50.8089 71.9949 52.2223 71.9949C53.4813 71.9949 54.6847 71.637 55.8609 70.8774C57.1485 70.0458 58.3186 69.0264 59.372 67.8125L59.3739 67.8102C60.485 66.5345 61.4332 65.184 62.2215 63.7583L62.2273 63.7478C63.0789 62.2342 63.7157 60.9004 64.1523 59.7413L64.1577 59.7269L64.1633 59.7127C64.4189 59.0708 64.8194 58.4696 65.4251 58.035C66.0394 57.5941 66.7428 57.4124 67.4475 57.4124C68.4323 57.4124 69.3444 57.7776 70.0167 58.5539C70.6489 59.2132 71 60.046 71 60.9815C71 61.303 70.9461 61.6297 70.8765 61.9298C70.8648 61.9942 70.8524 62.0408 70.8477 62.0584C70.8379 62.0954 70.8287 62.1246 70.8234 62.141C70.8127 62.174 70.8032 62.1998 70.7991 62.2109C70.7794 62.2634 70.7552 62.3184 70.7528 62.3238C70.7342 62.3666 70.7046 62.4331 70.6666 62.5179C70.5892 62.6908 70.4654 62.9652 70.2962 63.3393C69.928 64.153 69.3928 65.1712 68.7053 66.3799L68.695 66.3977C67.9901 67.6016 67.135 68.9153 66.1343 70.3367C65.089 71.8215 63.884 73.2116 62.5242 74.5059C61.1587 75.8036 59.6271 76.8793 57.9345 77.731C56.1447 78.6667 54.2157 79.1332 52.1716 79.1332C49.6335 79.1332 47.3068 78.4516 45.2373 77.0785L45.2254 77.0706C43.944 76.2041 42.7525 75.185 41.6497 74.0182C41.4713 74.3475 41.2947 74.6769 41.1199 75.0062L39.5015 78.0547L39.4985 78.0605C39.2027 78.6257 38.782 79.1313 38.2058 79.4889C37.6249 79.8493 36.9815 80 36.3374 80C35.3298 80 34.4141 79.6206 33.7192 78.8591L33.6933 78.8307L33.6688 78.8011C33.1172 78.1361 32.7848 77.333 32.7848 76.4308C32.7848 75.8254 32.9703 75.2652 33.2101 74.7834L33.2175 74.7685C33.8992 73.433 34.5979 72.0977 35.3135 70.7625C35.8869 69.6925 36.482 68.6336 37.0986 67.5855C36.11 65.7827 35.2507 63.9504 34.5216 62.0888L34.5183 62.0804C34.2499 61.3836 33.9988 60.6996 33.7654 60.0286C32.8811 61.8655 31.872 63.6179 30.9247 65.4097ZM15.1237 16.673C15.1237 19.4121 14.8315 22.3161 14.2397 25.3879L14.2372 25.4014C13.6742 28.4624 12.9117 31.5612 11.9486 34.6981C10.9826 37.8102 9.86631 40.9071 8.59948 43.9887C8.15301 45.0628 7.69853 46.1156 7.23606 47.147C7.14883 45.2911 7.10507 43.3592 7.10507 41.3512C7.10507 38.5314 7.18851 35.6942 7.35547 32.8396C7.55654 29.9795 7.80753 27.2399 8.1082 24.6205C8.44175 22.0085 8.84091 19.5714 9.30474 17.308C9.76876 15.0436 10.277 13.1067 10.8249 11.4876C11.3728 9.86863 11.9257 8.67206 12.4621 7.84499C12.7274 7.46132 12.9397 7.25709 13.0799 7.15744C13.1477 7.10927 13.1879 7.0925 13.2043 7.08736C13.2593 7.08807 13.3461 7.09897 13.5059 7.25953C13.7103 7.46495 13.9839 7.87684 14.2616 8.6257C14.7953 10.065 15.1237 12.6829 15.1237 16.673Z" fill="white"/>
</svg>
