<svg width="60" height="60" viewBox="0 0 60 60" fill="none" xmlns="http://www.w3.org/2000/svg">
<path fill-rule="evenodd" clip-rule="evenodd" d="M30 50C41.0457 50 50 41.0457 50 30C50 18.9543 41.0457 10 30 10C18.9543 10 10 18.9543 10 30C10 41.0457 18.9543 50 30 50ZM30 54C43.2548 54 54 43.2548 54 30C54 16.7452 43.2548 6 30 6C16.7452 6 6 16.7452 6 30C6 43.2548 16.7452 54 30 54Z" fill="#3D44FF"/>
<path fill-rule="evenodd" clip-rule="evenodd" d="M29.1467 36.8053C28.9806 37.1196 28.7896 37.4468 28.5745 37.787C28.3554 38.1334 28.1111 38.4785 27.8419 38.8222L27.8398 38.8249L27.8376 38.8276C27.5593 39.1726 27.2535 39.4871 26.9202 39.7706L26.9193 39.7713C26.5877 40.0519 26.2265 40.2807 25.8362 40.4558C25.4297 40.6529 24.9932 40.7508 24.5332 40.7508C23.825 40.7508 23.1966 40.5342 22.6738 40.0949C22.1873 39.686 21.7853 39.1592 21.4617 38.5272C21.1435 37.9056 20.8871 37.2081 20.6898 36.4375L20.6889 36.4341L20.6881 36.4306C20.5042 35.6621 20.3611 34.8839 20.259 34.0959L20.2589 34.0951C20.1575 33.3031 20.0864 32.5346 20.0457 31.7898L20.0454 31.7836C20.0152 31.0461 20 30.3897 20 29.8152C20 28.985 20.0253 28.1261 20.0758 27.2385L20.0761 27.2333C20.1369 26.3429 20.2281 25.4717 20.3499 24.6197C20.4718 23.7665 20.6244 22.9559 20.8082 22.1883L20.8096 22.1827C21.0045 21.4112 21.2324 20.7261 21.4953 20.1304L21.4966 20.1273L21.4981 20.1242C21.7738 19.5235 22.0973 19.0232 22.4773 18.6408C22.8853 18.2303 23.3805 18 23.9478 18C24.3559 18 24.7364 18.0969 25.0762 18.2987C25.4448 18.5016 25.7262 18.8235 25.9361 19.222C26.1455 19.6196 26.297 20.1134 26.4021 20.6881C26.5087 21.2713 26.5597 21.9702 26.5597 22.7788C26.5597 23.789 26.4511 24.8308 26.2355 25.9036L26.2353 25.9044C26.021 26.9607 25.7305 28.0254 25.3642 29.0986C24.9985 30.1702 24.567 31.2408 24.07 32.3104L24.0693 32.3119C23.5989 33.3152 23.0964 34.2963 22.562 35.2552C22.8022 36.3879 23.1118 37.2553 23.4778 37.877C23.8513 38.5017 24.225 38.6985 24.5783 38.6985C24.8428 38.6985 25.1215 38.6017 25.4228 38.3559C25.7615 38.0695 26.0758 37.7314 26.3652 37.3394C26.6629 36.9361 26.9208 36.53 27.1397 36.1211L27.1416 36.1177C27.3606 35.7166 27.6248 35.2582 27.8899 34.8044L29.39 31.7401L29.3971 31.7276C29.4862 31.571 29.6103 31.4431 29.7607 31.3452C29.9311 31.2343 30.1242 31.1785 30.3274 31.1785C30.6075 31.1785 30.8675 31.2772 31.0652 31.4849C31.2404 31.6594 31.3415 31.8758 31.3739 32.1133L31.3759 32.1275L31.3769 32.1418C31.3845 32.2462 31.4138 32.4342 31.4724 32.721C31.5397 33.002 31.6265 33.3273 31.7333 33.6974C31.8512 34.0617 31.9839 34.4551 32.1314 34.8779C32.1861 35.0245 32.2438 35.1706 32.3045 35.3162C33.3863 33.6639 34.5633 32.0749 35.8356 30.5493C36.0415 30.2919 36.3367 30.1816 36.6469 30.1816C36.9303 30.1816 37.1888 30.282 37.3918 30.4803C37.5883 30.6721 37.6976 30.9171 37.6976 31.1931C37.6976 31.4361 37.6153 31.6626 37.4487 31.8483C35.9898 33.6069 34.653 35.4539 33.4384 37.3895C33.7159 37.7548 34.011 38.0586 34.3222 38.3046C34.6588 38.5707 35.028 38.6985 35.446 38.6985C35.8184 38.6985 36.1744 38.5956 36.5222 38.3772C36.9031 38.1382 37.2492 37.8451 37.5607 37.4961L37.5613 37.4954C37.8899 37.1287 38.1704 36.7404 38.4035 36.3305L38.4053 36.3275C38.6571 35.8923 38.8455 35.5089 38.9746 35.1756L38.9762 35.1715L38.9779 35.1674C39.0535 34.9829 39.1719 34.81 39.3511 34.685C39.5328 34.5583 39.7408 34.5061 39.9492 34.5061C40.2405 34.5061 40.5103 34.6111 40.7092 34.8342C40.8962 35.0238 41 35.2632 41 35.5322C41 35.6246 40.9841 35.7185 40.9635 35.8048C40.96 35.8233 40.9564 35.8367 40.955 35.8418C40.9521 35.8524 40.9493 35.8608 40.9478 35.8655C40.9446 35.875 40.9418 35.8824 40.9406 35.8856C40.9348 35.9007 40.9276 35.9165 40.9269 35.9181C40.9214 35.9304 40.9126 35.9495 40.9014 35.9739C40.8785 36.0236 40.8419 36.1025 40.7918 36.21C40.6829 36.444 40.5246 36.7367 40.3213 37.0842L40.3182 37.0893C40.1097 37.4355 39.8568 37.8131 39.5609 38.2218C39.2517 38.6487 38.8953 39.0483 38.4931 39.4204C38.0892 39.7935 37.6362 40.1028 37.1356 40.3477C36.6062 40.6167 36.0356 40.7508 35.431 40.7508C34.6803 40.7508 33.9922 40.5548 33.38 40.1601L33.3765 40.1578C32.9975 39.9087 32.6451 39.6157 32.3189 39.2802C32.2662 39.3749 32.2139 39.4696 32.1622 39.5643L31.6835 40.4407L31.6826 40.4424C31.5952 40.6049 31.4707 40.7503 31.3003 40.8531C31.1285 40.9567 30.9382 41 30.7477 41C30.4497 41 30.1788 40.8909 29.9733 40.672L29.9656 40.6638L29.9584 40.6553C29.7952 40.4641 29.6969 40.2332 29.6969 39.9739C29.6969 39.7998 29.7518 39.6387 29.8227 39.5002L29.8249 39.496C30.0265 39.112 30.2332 38.7281 30.4448 38.3442C30.6144 38.0366 30.7904 37.7321 30.9728 37.4308C30.6804 36.9125 30.4263 36.3858 30.2106 35.8505L30.2097 35.8481C30.1302 35.6478 30.056 35.4511 29.9869 35.2582C29.7254 35.7863 29.4269 36.2901 29.1467 36.8053ZM24.4732 22.7935C24.4732 23.581 24.3868 24.4159 24.2118 25.299L24.211 25.3029C24.0445 26.1829 23.819 27.0738 23.5341 27.9757C23.2484 28.8704 22.9182 29.7608 22.5435 30.6468C22.4115 30.9556 22.277 31.2582 22.1402 31.5548C22.1144 31.0212 22.1015 30.4658 22.1015 29.8885C22.1015 29.0778 22.1262 28.2621 22.1756 27.4414C22.235 26.6191 22.3093 25.8315 22.3982 25.0784C22.4969 24.3274 22.6149 23.6268 22.7521 22.976C22.8894 22.325 23.0397 21.7682 23.2017 21.3027C23.3638 20.8372 23.5273 20.4932 23.686 20.2554C23.7644 20.1451 23.8272 20.0864 23.8687 20.0578C23.8887 20.0439 23.9006 20.0391 23.9055 20.0376C23.9218 20.0378 23.9474 20.041 23.9947 20.0871C24.0552 20.1462 24.1361 20.2646 24.2182 20.4799C24.3761 20.8937 24.4732 21.6463 24.4732 22.7935Z" fill="#3D44FF"/>
</svg>
