<svg width="62" height="14" viewBox="0 0 62 14" fill="none" xmlns="http://www.w3.org/2000/svg">
<path fill-rule="evenodd" clip-rule="evenodd" d="M0.630859 0.133301H3.03432V11.8H10.0013V13.8766H0.630859V0.133301ZM11.8216 0.13332H21.7054V2.20999H14.225V5.80665H21.1487V7.76999H14.225V11.79H21.8388V13.8667H11.8382L11.8216 0.13332ZM26.3354 0.13332H23.4652L28.0021 6.74999L23.1385 13.8667H25.8887L29.3755 8.61666L32.799 13.8667H35.7225L30.8556 6.74999L35.3925 0.13332H32.7024L29.4522 4.97999L26.3354 0.13332ZM37.4062 0.13332H47.2901V2.20999H39.8097V5.80665H46.7334V7.76999H39.8097V11.79H47.4267V13.8667H37.4062V0.13332ZM56.337 0.13332H49.7733V13.83H52.1768V8.16333H55.7337C56.1952 8.1497 56.6553 8.22204 57.0904 8.37666C57.43 8.50969 57.7216 8.74202 57.9271 9.04333C58.1476 9.3865 58.292 9.77296 58.3505 10.1767C58.4326 10.7149 58.4705 11.2589 58.4638 11.8033C58.4638 12.1367 58.4805 12.4833 58.5138 12.84C58.5381 13.1938 58.6467 13.5367 58.8305 13.84H61.4073C61.0951 13.4282 60.8994 12.94 60.8406 12.4267C60.7122 11.6994 60.6508 10.9618 60.6572 10.2233C60.6689 9.77036 60.6 9.31891 60.4539 8.88999C60.3421 8.56859 60.1689 8.27198 59.9439 8.01666C59.7614 7.80518 59.5335 7.63767 59.2772 7.52666C59.0653 7.43086 58.8408 7.36576 58.6105 7.33332V7.30666C58.7981 7.24077 58.9818 7.16397 59.1605 7.07666C59.4459 6.93511 59.7034 6.74313 59.9205 6.50999C60.2015 6.20466 60.4271 5.85273 60.5872 5.46999C60.7945 4.95465 60.8921 4.4018 60.8739 3.84665C60.9017 3.33576 60.8143 2.82516 60.6181 2.35261C60.4219 1.88007 60.122 1.45767 59.7405 1.11666C58.9805 0.461102 57.846 0.13332 56.337 0.13332ZM56.1203 6.38332H52.1768V2.09665H56.0837C56.3831 2.09664 56.682 2.12229 56.9771 2.17332C57.2527 2.21949 57.5152 2.32405 57.7471 2.47999C57.9787 2.64313 58.1609 2.86685 58.2738 3.12666C58.4154 3.46382 58.4814 3.82791 58.4671 4.19332C58.4896 4.49386 58.448 4.79575 58.3452 5.07903C58.2423 5.36231 58.0805 5.62054 57.8704 5.83665C57.3777 6.23452 56.752 6.42996 56.1203 6.38332Z" fill="black"/>
</svg>
