<svg width="102" height="27" viewBox="0 0 102 27" fill="none" xmlns="http://www.w3.org/2000/svg">
<path opacity="0.8" fill-rule="evenodd" clip-rule="evenodd" d="M23.392 18.6143C23.392 23.0202 19.7667 26.5919 15.2947 26.5919H0V21.2735H15.2947C16.7854 21.2735 17.9938 20.0829 17.9938 18.6143C17.9938 17.1457 16.7854 15.9551 15.2947 15.9551H9.8966V10.6367H15.2947C16.7854 10.6367 17.9938 9.44619 17.9938 7.97756C17.9938 6.50893 16.7854 5.31837 15.2947 5.31837H0V0H15.2947C19.7667 0 23.392 3.57167 23.392 7.97756C23.392 10.0208 22.6123 11.8845 21.3302 13.2959C22.6123 14.7073 23.392 16.5711 23.392 18.6143Z" fill="#FE815F"/>
<path opacity="0.12" d="M0 21.2735H13.1366C10.3462 24.5029 5.90358 26.5919 0.899691 26.5919C0.597669 26.5919 0.297693 26.5842 0 26.5692V21.2735ZM15.8885 15.9551H10.7963V10.6367H15.8885C16.0891 11.496 16.1944 12.3852 16.1944 13.2959C16.1944 14.2066 16.0891 15.0959 15.8885 15.9551ZM13.1366 5.31837H0V0.0226215C0.297693 0.00761002 0.597669 0 0.899691 0C5.90358 0 10.3462 2.08893 13.1366 5.31837Z" fill="black"/>
<path d="M0 0C7.45329 0 13.4954 5.95279 13.4954 13.2959C13.4954 20.6391 7.45329 26.5919 0 26.5919V21.2735C4.47197 21.2735 8.09722 17.7018 8.09722 13.2959C8.09722 8.89005 4.47197 5.31837 0 5.31837V0Z" fill="#FF6238"/>
<path d="M46.1257 8.55207C46.1257 9.67606 45.9172 10.6459 45.5003 11.4617C45.0833 12.2775 44.5334 12.9483 43.8506 13.474C43.1677 13.9998 42.3972 14.3865 41.5391 14.6343C40.681 14.882 39.8109 15.0059 38.9286 15.0059H34.1426V2.17072H38.7836C39.69 2.17072 40.5843 2.27647 41.4666 2.48797C42.3489 2.69948 43.1345 3.04997 43.8234 3.53945C44.5123 4.02893 45.0682 4.68458 45.4912 5.50642C45.9142 6.32827 46.1257 7.34347 46.1257 8.55207ZM42.8988 8.55207C42.8988 7.82691 42.781 7.22564 42.5453 6.74825C42.3096 6.27085 41.9954 5.89015 41.6026 5.60613C41.2098 5.32211 40.7626 5.11968 40.2611 4.99882C39.7595 4.87796 39.2428 4.81753 38.711 4.81753H37.1701V12.3229H38.6385C39.1945 12.3229 39.7293 12.2594 40.2429 12.1325C40.7566 12.0056 41.2098 11.7971 41.6026 11.5071C41.9954 11.217 42.3096 10.8303 42.5453 10.3468C42.781 9.86338 42.8988 9.26514 42.8988 8.55207ZM54.2293 9.45851C54.2293 8.98716 54.0813 8.58228 53.7852 8.24388C53.4891 7.90547 53.0449 7.73627 52.4527 7.73627C52.1626 7.73627 51.8967 7.78159 51.655 7.87223C51.4133 7.96288 51.2018 8.08676 51.0205 8.24388C50.8392 8.40099 50.6942 8.5853 50.5854 8.7968C50.4766 9.00831 50.4162 9.22887 50.4041 9.45851H54.2293ZM56.9668 10.6006V10.9632C56.9668 11.0841 56.9607 11.1989 56.9486 11.3076H50.4041C50.4283 11.5615 50.5038 11.7911 50.6307 11.9965C50.7576 12.202 50.9208 12.3803 51.1202 12.5313C51.3196 12.6824 51.5432 12.8003 51.791 12.8849C52.0387 12.9695 52.2956 13.0118 52.5615 13.0118C53.0328 13.0118 53.4316 12.9241 53.758 12.7489C54.0843 12.5736 54.3502 12.347 54.5556 12.0691L56.6223 13.3743C56.1993 13.9907 55.6403 14.4651 54.9454 14.7974C54.2505 15.1298 53.4437 15.296 52.5252 15.296C51.8484 15.296 51.2078 15.1902 50.6035 14.9787C49.9993 14.7672 49.4705 14.459 49.0173 14.0542C48.5641 13.6493 48.2075 13.1507 47.9477 12.5585C47.6878 11.9663 47.5579 11.2895 47.5579 10.5281C47.5579 9.79086 47.6848 9.12313 47.9386 8.52487C48.1924 7.92662 48.5369 7.41902 48.972 7.00205C49.407 6.58509 49.9207 6.26179 50.5129 6.03216C51.1051 5.80253 51.7457 5.68771 52.4346 5.68771C53.0993 5.68771 53.7096 5.7995 54.2656 6.02309C54.8215 6.24668 55.2989 6.56998 55.6977 6.99299C56.0966 7.416 56.4078 7.92964 56.6314 8.53394C56.855 9.13823 56.9668 9.82712 56.9668 10.6006ZM68.9862 11.2714C68.9862 11.9724 68.8472 12.5616 68.5692 13.0389C68.2912 13.5163 67.9226 13.9001 67.4634 14.1901C67.0041 14.4802 66.4814 14.6887 65.8952 14.8156C65.309 14.9425 64.7078 15.0059 64.0914 15.0059H58.9791V2.17072H64.0914C64.5869 2.17072 65.0945 2.22208 65.6142 2.32482C66.1339 2.42755 66.6052 2.60279 67.0283 2.85055C67.4513 3.09831 67.7957 3.43369 68.0616 3.8567C68.3275 4.27971 68.4604 4.81753 68.4604 5.47017C68.4604 6.18324 68.2671 6.77242 67.8803 7.23773C67.4936 7.70303 66.986 8.03841 66.3575 8.24388V8.28013C66.7201 8.34056 67.0615 8.45236 67.3818 8.61552C67.702 8.77868 67.98 8.98716 68.2157 9.24096C68.4514 9.49477 68.6387 9.79087 68.7777 10.1293C68.9167 10.4677 68.9862 10.8484 68.9862 11.2714ZM65.4692 5.88713C65.4692 5.45204 65.303 5.13478 64.9706 4.93537C64.6383 4.73595 64.1458 4.63624 63.4931 4.63624H61.9703V7.28305H63.6382C64.2183 7.28305 64.6685 7.16521 64.9888 6.92954C65.309 6.69386 65.4692 6.34639 65.4692 5.88713ZM65.8861 10.9813C65.8861 10.4495 65.6867 10.0809 65.2879 9.87547C64.8891 9.67001 64.3573 9.56728 63.6926 9.56728H61.9703V12.5041H63.7107C63.9524 12.5041 64.2032 12.483 64.463 12.4407C64.7229 12.3984 64.9585 12.3229 65.1701 12.2141C65.3816 12.1053 65.5538 11.9512 65.6867 11.7518C65.8197 11.5524 65.8861 11.2956 65.8861 10.9813ZM76.2014 11.072H75.8207C75.4944 11.072 75.1651 11.0871 74.8327 11.1173C74.5004 11.1475 74.2043 11.2049 73.9444 11.2895C73.6846 11.3741 73.47 11.498 73.3008 11.6612C73.1316 11.8243 73.047 12.0388 73.047 12.3047C73.047 12.4739 73.0863 12.619 73.1649 12.7398C73.2434 12.8607 73.3431 12.9574 73.464 13.0299C73.5849 13.1024 73.7238 13.1538 73.881 13.184C74.0381 13.2142 74.1891 13.2293 74.3342 13.2293C74.9385 13.2293 75.4007 13.0631 75.721 12.7308C76.0413 12.3984 76.2014 11.9482 76.2014 11.3802V11.072ZM70.7447 7.21053C71.2764 6.70292 71.8958 6.32222 72.6029 6.06842C73.3099 5.81461 74.032 5.68771 74.7693 5.68771C75.5307 5.68771 76.1742 5.78138 76.7 5.96871C77.2257 6.15604 77.6517 6.4461 77.9781 6.83889C78.3044 7.23169 78.5431 7.7272 78.6942 8.32545C78.8452 8.92371 78.9208 9.63375 78.9208 10.4556V15.0059H76.2014V14.0451H76.1471C75.9174 14.4198 75.57 14.7098 75.1047 14.9153C74.6393 15.1207 74.1348 15.2235 73.5909 15.2235C73.2283 15.2235 72.8537 15.1751 72.4669 15.0784C72.0802 14.9818 71.7266 14.8246 71.4064 14.6071C71.0861 14.3895 70.8232 14.0995 70.6178 13.7369C70.4123 13.3743 70.3096 12.9272 70.3096 12.3954C70.3096 11.7427 70.4878 11.217 70.8444 10.8182C71.2009 10.4193 71.6602 10.1111 72.2222 9.8936C72.7842 9.67605 73.4096 9.53102 74.0985 9.45851C74.7874 9.38599 75.4582 9.34973 76.1108 9.34973V9.2047C76.1108 8.75752 75.9537 8.42819 75.6395 8.21668C75.3252 8.00518 74.9385 7.89943 74.4792 7.89943C74.0562 7.89943 73.6483 7.99007 73.2555 8.17136C72.8627 8.35265 72.5273 8.57019 72.2494 8.824L70.7447 7.21053ZM87.0606 15.0059V10.0749C87.0606 9.82108 87.0395 9.57937 86.9972 9.34973C86.9549 9.1201 86.8854 8.91766 86.7887 8.74242C86.692 8.56717 86.556 8.42819 86.3808 8.32545C86.2055 8.22272 85.985 8.17136 85.7191 8.17136C85.4532 8.17136 85.2205 8.22272 85.0211 8.32545C84.8217 8.42819 84.6555 8.57019 84.5226 8.75148C84.3896 8.93277 84.2899 9.14125 84.2234 9.37693C84.157 9.6126 84.1237 9.85734 84.1237 10.1111V15.0059H81.1325V5.97777H84.015V7.22866H84.0512C84.16 7.03529 84.302 6.84494 84.4772 6.6576C84.6525 6.47027 84.858 6.31014 85.0936 6.17719C85.3293 6.04424 85.5861 5.93547 85.8641 5.85087C86.1421 5.76627 86.4382 5.72397 86.7524 5.72397C87.3567 5.72397 87.8704 5.83274 88.2934 6.05029C88.7164 6.26784 89.0578 6.54883 89.3176 6.89328C89.5775 7.23773 89.7648 7.63354 89.8796 8.08072C89.9945 8.5279 90.0519 8.97507 90.0519 9.42225V15.0059H87.0606ZM101.999 15.0059H98.3186L95.3636 10.6731H95.3092V15.0059H92.318V1.30054H95.3092V9.63979H95.3636L98.2461 5.97777H101.854L98.373 10.0568L101.999 15.0059Z" fill="#19233C"/>
<path opacity="0.6" d="M37.4527 24.837V22.133L39.7956 18.601H38.5097L36.9242 21.2258L35.3564 18.601H34L36.3429 22.133V24.837H37.4527ZM41.4955 24.9603C41.8126 24.9603 42.1121 24.9045 42.3939 24.793C42.6758 24.6814 42.9195 24.5273 43.125 24.3306C43.3305 24.1338 43.4935 23.8975 43.6138 23.6215C43.7342 23.3455 43.7944 23.0402 43.7944 22.7055C43.7944 22.3708 43.7342 22.0669 43.6138 21.7939C43.4935 21.5208 43.3305 21.2874 43.125 21.0936C42.9195 20.8999 42.6758 20.7501 42.3939 20.6444C42.1121 20.5387 41.8126 20.4859 41.4955 20.4859C41.1784 20.4859 40.879 20.5387 40.5971 20.6444C40.3153 20.7501 40.0716 20.8999 39.8661 21.0936C39.6606 21.2874 39.4976 21.5208 39.3772 21.7939C39.2569 22.0669 39.1967 22.3708 39.1967 22.7055C39.1967 23.0402 39.2569 23.3455 39.3772 23.6215C39.4976 23.8975 39.6606 24.1338 39.8661 24.3306C40.0716 24.5273 40.3153 24.6814 40.5971 24.793C40.879 24.9045 41.1784 24.9603 41.4955 24.9603ZM41.4955 24.0795C41.2841 24.0795 41.1021 24.0384 40.9494 23.9562C40.7968 23.874 40.6705 23.7683 40.5707 23.6391C40.4709 23.5099 40.396 23.3631 40.3461 23.1987C40.2962 23.0343 40.2712 22.8699 40.2712 22.7055C40.2712 22.5411 40.2962 22.3781 40.3461 22.2167C40.396 22.0552 40.4709 21.9098 40.5707 21.7807C40.6705 21.6515 40.7968 21.5473 40.9494 21.468C41.1021 21.3887 41.2841 21.3491 41.4955 21.3491C41.7069 21.3491 41.889 21.3887 42.0416 21.468C42.1943 21.5473 42.3205 21.6515 42.4204 21.7807C42.5202 21.9098 42.5951 22.0552 42.645 22.2167C42.6949 22.3781 42.7198 22.5411 42.7198 22.7055C42.7198 22.8699 42.6949 23.0343 42.645 23.1987C42.5951 23.3631 42.5202 23.5099 42.4204 23.6391C42.3205 23.7683 42.1943 23.874 42.0416 23.9562C41.889 24.0384 41.7069 24.0795 41.4955 24.0795ZM46.3399 24.9603C46.657 24.9603 46.9315 24.8796 47.1634 24.7181C47.3954 24.5566 47.5583 24.3702 47.6523 24.1588H47.6699V24.837H48.674V20.6092H47.617V22.9345C47.617 23.0754 47.5965 23.2149 47.5554 23.3529C47.5143 23.4909 47.4541 23.6127 47.3748 23.7184C47.2955 23.8241 47.1928 23.9107 47.0665 23.9782C46.9403 24.0458 46.795 24.0795 46.6306 24.0795C46.4603 24.0795 46.3237 24.0443 46.221 23.9738C46.1182 23.9034 46.0375 23.8138 45.9788 23.7052C45.92 23.5966 45.8819 23.4747 45.8643 23.3397C45.8466 23.2046 45.8378 23.0754 45.8378 22.9521V20.6092H44.7809V23.2516C44.7809 23.4688 44.8102 23.6802 44.869 23.8858C44.9277 24.0913 45.0202 24.2733 45.1464 24.4318C45.2727 24.5904 45.4341 24.7181 45.6309 24.815C45.8276 24.9119 46.0639 24.9603 46.3399 24.9603ZM50.9993 24.837V22.5734C50.9993 22.497 51.014 22.3943 51.0433 22.2651C51.0727 22.1359 51.1285 22.0097 51.2107 21.8864C51.2929 21.763 51.4074 21.6573 51.5542 21.5693C51.701 21.4812 51.8948 21.4372 52.1355 21.4372C52.1825 21.4372 52.2309 21.4401 52.2808 21.446C52.3307 21.4518 52.3909 21.4636 52.4614 21.4812V20.5123C52.4262 20.5006 52.3851 20.4932 52.3381 20.4903C52.2911 20.4874 52.2471 20.4859 52.206 20.4859C51.9241 20.4859 51.6775 20.5622 51.4661 20.7149C51.2547 20.8676 51.0903 21.0672 50.9729 21.3138H50.9552V20.6092H49.9423V24.837H50.9993ZM57.614 24.837C58.0192 24.837 58.4273 24.7768 58.8383 24.6564C59.2494 24.5361 59.6193 24.3496 59.9481 24.0971C60.2769 23.8446 60.5441 23.5217 60.7496 23.1283C60.9552 22.7349 61.0579 22.2651 61.0579 21.719C61.0579 21.1318 60.9552 20.64 60.7496 20.2437C60.5441 19.8473 60.2769 19.5273 59.9481 19.2836C59.6193 19.0399 59.2494 18.8652 58.8383 18.7595C58.4273 18.6539 58.0192 18.601 57.614 18.601H55.4032V24.837H57.614ZM56.513 23.8681V19.5523H57.4379C57.7256 19.5523 58.0133 19.5816 58.301 19.6403C58.5888 19.6991 58.8486 19.8077 59.0805 19.9662C59.3125 20.1248 59.5019 20.345 59.6487 20.6268C59.7954 20.9087 59.8688 21.2727 59.8688 21.719C59.8688 22.1418 59.7954 22.4912 59.6487 22.7671C59.5019 23.0431 59.3125 23.2619 59.0805 23.4233C58.8486 23.5848 58.5888 23.6993 58.301 23.7668C58.0133 23.8344 57.7256 23.8681 57.4379 23.8681H56.513ZM64.1055 24.9603C64.8982 24.9603 65.503 24.6785 65.9199 24.1148L65.2153 23.5511C65.0978 23.7213 64.9481 23.8549 64.766 23.9518C64.584 24.0487 64.3609 24.0971 64.0966 24.0971C63.944 24.0971 63.7972 24.0707 63.6563 24.0179C63.5153 23.965 63.3891 23.8931 63.2775 23.8021C63.1659 23.7111 63.0764 23.6024 63.0089 23.4762C62.9413 23.3499 62.9017 23.2105 62.89 23.0578H66.1049C66.1107 23.0108 66.1137 22.9639 66.1137 22.9169V22.776C66.1137 22.3943 66.0623 22.061 65.9595 21.7763C65.8568 21.4915 65.7144 21.2537 65.5323 21.0628C65.3503 20.872 65.1345 20.7281 64.885 20.6312C64.6354 20.5343 64.3638 20.4859 64.0702 20.4859C63.7531 20.4859 63.4581 20.5402 63.185 20.6488C62.912 20.7575 62.6756 20.9101 62.476 21.1069C62.2763 21.3036 62.1193 21.5414 62.0048 21.8203C61.8903 22.0992 61.833 22.409 61.833 22.7495C61.833 23.096 61.8903 23.4057 62.0048 23.6788C62.1193 23.9518 62.2778 24.1823 62.4804 24.3702C62.683 24.5581 62.9223 24.7034 63.1982 24.8062C63.4742 24.9089 63.7766 24.9603 64.1055 24.9603ZM62.89 22.3003C62.9135 22.0009 63.0353 21.7557 63.2555 21.5649C63.4757 21.374 63.7443 21.2786 64.0614 21.2786C64.2317 21.2786 64.38 21.3065 64.5062 21.3623C64.6325 21.4181 64.7367 21.4929 64.8189 21.5869C64.9011 21.6808 64.9613 21.7895 64.9995 21.9128C65.0376 22.0361 65.0567 22.1653 65.0567 22.3003H62.89ZM68.298 24.837V22.2122H71.0461V21.2786H68.298V19.5699H71.2134V18.601H67.1882V24.837H68.298ZM72.5611 19.8077C72.7548 19.8077 72.9178 19.7475 73.0499 19.6271C73.182 19.5068 73.2481 19.3555 73.2481 19.1735C73.2481 18.9915 73.182 18.8403 73.0499 18.7199C72.9178 18.5995 72.7548 18.5393 72.5611 18.5393C72.3673 18.5393 72.2073 18.6025 72.081 18.7287C71.9548 18.855 71.8917 19.0032 71.8917 19.1735C71.8917 19.3438 71.9548 19.4921 72.081 19.6183C72.2073 19.7446 72.3673 19.8077 72.5611 19.8077ZM73.0983 24.837V20.6092H72.0414V24.837H73.0983ZM78.7971 24.837L80.2592 20.16H80.2768L81.7389 24.837H82.8135L84.6367 18.601H83.4564L82.2233 23.1811H82.2057L80.8581 18.601H79.7131L78.339 23.1811H78.3214L77.1147 18.601H75.8993L77.7225 24.837H78.7971ZM86.2926 24.9427C86.5921 24.9427 86.8592 24.8825 87.0941 24.7621C87.329 24.6418 87.4993 24.4876 87.605 24.2997H87.6314V24.837H88.6179V22.2651C88.6179 22.0537 88.59 21.8423 88.5342 21.6309C88.4784 21.4195 88.3801 21.2287 88.2391 21.0584C88.0982 20.8881 87.9059 20.7501 87.6622 20.6444C87.4185 20.5387 87.1088 20.4859 86.733 20.4859C86.41 20.4859 86.0915 20.5417 85.7773 20.6532C85.4632 20.7648 85.1857 20.9322 84.945 21.1553L85.4911 21.7983C85.6261 21.6632 85.7964 21.5487 86.0019 21.4548C86.2075 21.3608 86.4218 21.3138 86.6449 21.3138C86.9092 21.3138 87.1367 21.377 87.3275 21.5032C87.5184 21.6295 87.6138 21.8247 87.6138 22.0889V22.1946C87.285 22.1946 86.9488 22.2108 86.6053 22.2431C86.2618 22.2754 85.9491 22.3414 85.6672 22.4413C85.3854 22.5411 85.1549 22.6849 84.9758 22.8728C84.7967 23.0607 84.7072 23.3132 84.7072 23.6303C84.7072 23.8769 84.7586 24.0839 84.8613 24.2513C84.9641 24.4186 85.0933 24.5537 85.2489 24.6564C85.4045 24.7592 85.5748 24.8326 85.7597 24.8766C85.9447 24.9207 86.1223 24.9427 86.2926 24.9427ZM86.504 24.1412C86.4159 24.1412 86.3278 24.1324 86.2397 24.1148C86.1517 24.0971 86.0724 24.0678 86.0019 24.0267C85.9315 23.9856 85.8742 23.9313 85.8302 23.8637C85.7861 23.7962 85.7641 23.7125 85.7641 23.6127C85.7641 23.4542 85.817 23.3294 85.9227 23.2384C86.0284 23.1474 86.1605 23.0769 86.319 23.027C86.4776 22.9771 86.6508 22.9448 86.8387 22.9301C87.0266 22.9154 87.2057 22.9081 87.376 22.9081H87.6138V23.0578C87.6138 23.3925 87.5198 23.6567 87.3319 23.8505C87.144 24.0443 86.868 24.1412 86.504 24.1412ZM90.9256 24.837V18.1782H89.8686V24.837H90.9256ZM93.2861 24.837V18.1782H92.2291V24.837H93.2861ZM96.5979 24.9603C97.3906 24.9603 97.9954 24.6785 98.4123 24.1148L97.7077 23.5511C97.5902 23.7213 97.4405 23.8549 97.2585 23.9518C97.0764 24.0487 96.8533 24.0971 96.589 24.0971C96.4364 24.0971 96.2896 24.0707 96.1487 24.0179C96.0077 23.965 95.8815 23.8931 95.7699 23.8021C95.6583 23.7111 95.5688 23.6024 95.5013 23.4762C95.4337 23.3499 95.3941 23.2105 95.3824 23.0578H98.5973C98.6031 23.0108 98.6061 22.9639 98.6061 22.9169V22.776C98.6061 22.3943 98.5547 22.061 98.4519 21.7763C98.3492 21.4915 98.2068 21.2537 98.0247 21.0628C97.8427 20.872 97.6269 20.7281 97.3774 20.6312C97.1278 20.5343 96.8562 20.4859 96.5626 20.4859C96.2455 20.4859 95.9505 20.5402 95.6774 20.6488C95.4044 20.7575 95.168 20.9101 94.9684 21.1069C94.7687 21.3036 94.6117 21.5414 94.4972 21.8203C94.3827 22.0992 94.3254 22.409 94.3254 22.7495C94.3254 23.096 94.3827 23.4057 94.4972 23.6788C94.6117 23.9518 94.7702 24.1823 94.9728 24.3702C95.1754 24.5581 95.4147 24.7034 95.6906 24.8062C95.9666 24.9089 96.269 24.9603 96.5979 24.9603ZM95.3824 22.3003C95.4059 22.0009 95.5277 21.7557 95.7479 21.5649C95.9681 21.374 96.2367 21.2786 96.5538 21.2786C96.7241 21.2786 96.8724 21.3065 96.9986 21.3623C97.1249 21.4181 97.2291 21.4929 97.3113 21.5869C97.3935 21.6808 97.4537 21.7895 97.4919 21.9128C97.53 22.0361 97.5491 22.1653 97.5491 22.3003H95.3824ZM101.134 24.9251C101.251 24.9251 101.375 24.9148 101.504 24.8943C101.633 24.8737 101.745 24.8458 101.839 24.8106L101.803 23.9826C101.739 24.012 101.665 24.034 101.583 24.0487C101.501 24.0634 101.425 24.0707 101.354 24.0707C101.119 24.0707 100.968 24.0091 100.901 23.8858C100.833 23.7624 100.799 23.6068 100.799 23.4189V21.4548H101.856V20.6092H100.799V19.3849H99.7599V20.6092H99.02V21.4548H99.7599V23.4277C99.7599 23.6333 99.779 23.8256 99.8171 24.0047C99.8553 24.1838 99.9258 24.3423 100.029 24.4803C100.131 24.6183 100.271 24.7269 100.447 24.8062C100.623 24.8855 100.852 24.9251 101.134 24.9251Z" fill="#19233C"/>
</svg>
