<svg width="172" height="30" viewBox="0 0 172 30" fill="none" xmlns="http://www.w3.org/2000/svg">
<path d="M25.4038 17.8937C24.8881 18.2088 24.2865 18.2661 23.8281 18.0083C23.2551 17.6645 22.9114 16.891 22.9114 15.831V12.5936C22.9114 11.0466 22.3097 9.92929 21.2784 9.6428C19.5308 9.12712 18.2129 11.2758 17.7259 12.078L14.6318 17.0342V10.932C14.6032 9.5282 14.1448 8.69739 13.2853 8.43955C12.7123 8.26765 11.8529 8.3536 11.022 9.61416L4.11763 20.6727C3.20086 18.9251 2.71383 16.9769 2.71383 15.0002C2.71383 8.32495 8.07119 2.91029 14.6318 2.91029C21.1924 2.91029 26.5498 8.32495 26.5498 15.0002V15.0288V15.0575C26.6071 16.3467 26.206 17.378 25.4038 17.8937ZM29.1855 15.0002V14.9715V14.9429C29.1568 6.8352 22.6249 0.217285 14.6318 0.217285C6.61009 0.217285 0.078125 6.8352 0.078125 15.0002C0.078125 23.1365 6.61009 29.783 14.6318 29.783C18.3275 29.783 21.8227 28.3792 24.5157 25.8295C25.06 25.3138 25.0887 24.483 24.573 23.9386C24.086 23.3943 23.2551 23.3657 22.7108 23.8527C22.7108 23.8527 22.7108 23.8527 22.6822 23.8813C20.5048 25.9441 17.5827 27.1187 14.5745 27.1187C11.0507 27.1187 7.8993 25.5716 5.72197 23.1078L11.9388 13.138V17.7505C11.9388 19.9564 12.7983 20.6727 13.5145 20.8732C14.2307 21.0737 15.3194 20.9305 16.494 19.0683L19.9032 13.5391C20.0178 13.3672 20.1038 13.1953 20.2184 13.0807V15.8883C20.2184 17.951 21.0492 19.6126 22.4816 20.4148C23.7708 21.1597 25.4038 21.0737 26.7503 20.2429C28.412 19.1543 29.3001 17.2634 29.1855 15.0002ZM49.469 9.95794C49.8128 10.1585 50.1279 10.6455 50.1279 11.0752C50.1279 11.7628 49.5549 12.3358 48.896 12.3358C48.7241 12.3358 48.5808 12.2785 48.4376 12.2499C47.6641 11.6769 46.69 11.3044 45.6587 11.3044C43.2235 11.3044 41.5618 13.2812 41.5618 15.745C41.5618 18.2088 43.2521 20.157 45.6587 20.157C46.8619 20.157 47.9506 19.6699 48.7527 18.8964C48.9533 18.7532 49.2111 18.6672 49.469 18.6672C50.1279 18.6672 50.6436 19.1829 50.6436 19.8418C50.6436 20.2716 50.3857 20.644 50.0706 20.8445C48.896 21.8473 47.3203 22.5062 45.6873 22.5062C41.9629 22.5062 38.9261 19.4407 38.9261 15.6591C38.9261 11.8774 41.9629 8.81198 45.6873 8.81198C47.0625 8.78333 48.3803 9.21306 49.469 9.95794ZM56.2874 12.8228C58.8372 12.8228 60.9572 14.9715 60.9572 17.6359C60.9572 20.2716 58.8085 22.5348 56.2874 22.5348C53.6231 22.5348 51.4171 20.3002 51.4171 17.6359C51.4171 14.9715 53.6231 12.8228 56.2874 12.8228ZM56.2588 20.157C57.3761 20.157 58.3215 19.097 58.3215 17.6645C58.3215 16.2321 57.3761 15.3153 56.2588 15.3153C55.0555 15.3153 54.0528 16.2034 54.0528 17.6645C54.0528 19.0683 55.0555 20.157 56.2588 20.157ZM62.5616 21.0451V14.2839C62.5616 13.5391 63.1345 12.9374 63.8794 12.9374C64.5956 12.9374 65.1973 13.5391 65.1973 14.2839V21.0451C65.1973 21.79 64.5956 22.3916 63.8794 22.3916C63.1632 22.3916 62.5616 21.7613 62.5616 21.0451ZM62.361 10.3877C62.361 9.49955 63.0486 8.81198 63.8794 8.81198C64.7389 8.81198 65.4264 9.5282 65.4264 10.3877C65.4264 11.2471 64.7389 11.9347 63.8794 11.9347C63.0199 11.9061 62.361 11.2185 62.361 10.3877ZM70.2395 17.378V21.0451C70.2395 21.79 69.6378 22.3916 68.9216 22.3916C68.2054 22.3916 67.6038 21.79 67.6038 21.0451V13.9688C67.6038 13.3958 68.0621 12.9374 68.6351 12.9374C69.2081 12.9374 69.6378 13.4245 69.6378 13.9688C70.6979 12.9661 71.6433 12.8228 72.5314 12.8228C75.1671 12.8228 76.3417 14.7996 76.3417 17.0629V21.0451C76.3417 21.79 75.7401 22.3916 75.0238 22.3916C74.3076 22.3916 73.706 21.79 73.706 21.0451V17.378C73.706 16.2321 73.5628 15.258 71.9011 15.258C70.7265 15.258 70.2395 16.2321 70.2395 17.378ZM84.8791 18.7818C84.564 18.7818 84.3634 18.6386 84.1915 18.438L81.1261 15.1148V21.0451C81.1261 21.79 80.5245 22.3916 79.8082 22.3916C79.092 22.3916 78.4904 21.79 78.4904 21.0451V9.29902C78.5763 9.09847 78.7769 8.95522 78.9774 8.95522C79.2066 8.95522 79.4071 9.15577 79.5504 9.29902L84.4494 14.7996C84.5926 14.9715 84.7645 15.0575 84.8791 15.0575C84.965 15.0575 85.1656 14.9715 85.3088 14.7996L90.2078 9.29902C90.3511 9.15577 90.5229 8.95522 90.7808 8.95522C91.01 8.95522 91.2105 9.09847 91.2678 9.29902V21.0451C91.2678 21.79 90.6948 22.3916 89.95 22.3916C89.2337 22.3916 88.6321 21.79 88.6321 21.0451V15.1148L85.5667 18.438C85.3375 18.6386 85.1369 18.7818 84.8791 18.7818ZM97.5419 20.157C98.7166 20.157 99.7193 19.097 99.7193 17.6645C99.7193 16.2321 98.6879 15.2866 97.5419 15.2866C96.396 15.2866 95.4506 16.2607 95.4506 17.6645C95.4506 19.0397 96.3673 20.157 97.5419 20.157ZM100.35 21.3602L100.292 21.0451C99.7766 22.0478 98.1436 22.5062 97.1122 22.5062C94.6484 22.5062 92.8149 20.2716 92.8149 17.6072C92.8149 14.9715 94.677 12.7942 97.2555 12.7942C97.6852 12.7942 99.1749 12.9088 100.321 14.2553L100.378 13.9401C100.378 13.3672 100.808 12.9088 101.381 12.9088C101.954 12.9088 102.412 13.3958 102.412 13.9401V21.3316C102.412 21.9046 101.954 22.363 101.381 22.363C100.779 22.3916 100.35 21.9046 100.35 21.3602ZM109.66 15.258H109.374C107.712 15.3439 107.397 16.2894 107.397 17.378V21.0451C107.397 21.79 106.796 22.3916 106.079 22.3916C105.363 22.3916 104.761 21.79 104.761 21.0451V13.9688C104.761 13.3958 105.22 12.9374 105.793 12.9374C106.366 12.9374 106.796 13.4245 106.796 13.9688C107.77 13.052 108.572 12.8515 109.374 12.8228H109.632C110.262 12.8228 110.835 13.3672 110.835 14.0547C110.864 14.685 110.291 15.258 109.66 15.258ZM119.831 20.4148C119.945 20.6154 120.031 20.8159 120.031 21.0451C120.031 21.7327 119.401 22.363 118.714 22.363C118.255 22.363 117.854 22.0192 117.539 21.6181L114.502 18.0942V21.0164C114.502 21.7613 113.901 22.363 113.184 22.363C112.468 22.363 111.866 21.7613 111.866 21.0164V10.2731C111.866 9.5282 112.439 8.92657 113.184 8.92657C113.929 8.92657 114.502 9.5282 114.502 10.2731V16.9769L117.539 13.625C117.854 13.2812 118.227 12.9088 118.685 12.9088C119.344 12.9088 119.945 13.5104 119.945 14.198C119.945 14.3985 119.888 14.6277 119.774 14.7996L117.367 17.4353L119.831 20.4148ZM124.988 15.2866C124.271 15.2866 123.097 15.6591 123.097 16.7764H126.907C126.879 15.6591 125.675 15.2866 124.988 15.2866ZM128.426 18.4667H123.097C123.097 20.0424 124.615 20.3002 125.274 20.3002C125.761 20.3002 126.449 20.2143 126.993 19.9564C127.165 19.8418 127.423 19.7559 127.681 19.7559C128.254 19.7559 128.741 20.2429 128.741 20.8445C128.741 21.2456 128.483 21.5894 128.168 21.79C127.366 22.3916 126.306 22.5348 125.303 22.5348C122.638 22.5348 120.432 21.1024 120.432 17.7505C120.432 15.1148 121.779 12.8228 124.93 12.8228C127.48 12.8228 129.4 14.4845 129.457 17.4353C129.457 17.9797 128.999 18.4667 128.426 18.4667ZM135.76 22.5062H135.043C133.038 22.5062 131.863 21.6181 131.863 18.4953V15.258H131.176C130.546 15.258 130.001 14.685 130.001 14.0547C130.001 13.3672 130.574 12.8228 131.176 12.8228H131.863V10.3304C131.863 9.58551 132.436 8.98387 133.181 8.98387C133.897 8.98387 134.499 9.58551 134.499 10.3304V12.8228H135.588C136.218 12.8228 136.762 13.3672 136.762 14.0547C136.762 14.685 136.189 15.258 135.588 15.258H134.499V17.9797C134.499 19.7845 134.585 20.157 135.387 20.157H135.76C136.39 20.157 136.934 20.6727 136.934 21.3316C136.934 21.9619 136.39 22.5062 135.76 22.5062ZM148.508 9.95794C148.852 10.1585 149.167 10.6455 149.167 11.0752C149.167 11.7628 148.594 12.3358 147.936 12.3358C147.764 12.3358 147.62 12.2785 147.477 12.2499C146.704 11.6769 145.73 11.3044 144.698 11.3044C142.263 11.3044 140.601 13.2812 140.601 15.745C140.601 18.2088 142.292 20.157 144.698 20.157C145.901 20.157 146.99 19.6699 147.792 18.8964C147.993 18.7532 148.251 18.6672 148.508 18.6672C149.167 18.6672 149.683 19.1829 149.683 19.8418C149.683 20.2716 149.425 20.644 149.11 20.8445C147.936 21.8473 146.36 22.5062 144.727 22.5062C141.002 22.5062 137.966 19.4407 137.966 15.6591C137.966 11.8774 141.002 8.81198 144.727 8.81198C146.102 8.78333 147.448 9.21306 148.508 9.95794ZM155.184 20.157C156.358 20.157 157.361 19.097 157.361 17.6645C157.361 16.2321 156.33 15.2866 155.184 15.2866C154.009 15.2866 153.092 16.2607 153.092 17.6645C153.092 19.0397 154.038 20.157 155.184 20.157ZM157.991 21.3602L157.934 21.0451C157.418 22.0478 155.785 22.5062 154.754 22.5062C152.29 22.5062 150.457 20.2716 150.457 17.6072C150.457 14.9715 152.319 12.7942 154.897 12.7942C155.327 12.7942 156.817 12.9088 157.963 14.2553L158.02 13.9401C158.02 13.3672 158.45 12.9088 159.023 12.9088C159.596 12.9088 160.054 13.3958 160.054 13.9401V21.3316C160.054 21.9046 159.596 22.363 159.023 22.363C158.421 22.3916 157.991 21.9046 157.991 21.3602ZM167.245 20.157C168.42 20.157 169.336 19.0397 169.336 17.6645C169.336 16.2321 168.391 15.2866 167.245 15.2866C166.07 15.2866 165.068 16.2321 165.068 17.6645C165.068 19.097 166.07 20.157 167.245 20.157ZM165.068 21.7327V25.0846C165.068 25.8295 164.466 26.4311 163.75 26.4311C163.034 26.4311 162.432 25.8295 162.432 25.0846V13.9688C162.432 13.3958 162.89 12.9374 163.463 12.9374C164.036 12.9374 164.466 13.4245 164.466 14.0834C165.44 13.0807 166.643 12.8228 167.56 12.8228C170.11 12.8228 172.001 14.9715 172.001 17.6359C172.001 20.2716 170.196 22.5348 167.703 22.5348C166.93 22.5062 165.784 22.277 165.068 21.7327Z" fill="#17181B"/>
</svg>
