<svg width="148" height="21" viewBox="0 0 148 21" fill="none" xmlns="http://www.w3.org/2000/svg">
<path fill-rule="evenodd" clip-rule="evenodd" d="M14.5181 5.33735C16.3329 7.15211 17.1677 9.18465 17.1677 11.7979C17.1677 16.8792 13.4776 20.412 8.19063 20.412H3.01251L0 17.3995V0.219723H5.27491C8.10594 0.219723 10.4893 1.23599 12.1105 2.94187L14.5181 5.33735ZM2.85523 2.92977H2.81893V3.53469L5.39589 6.08745V5.47043L2.85523 2.92977ZM5.83144 5.38574L3.37546 2.92977H3.02461L5.48059 5.38574H5.83144ZM6.69043 5.38574L4.23444 2.92977H3.54484L6.00082 5.38574H6.69043ZM5.31121 2.92977H4.40382L6.8598 5.38574H7.76718L5.31121 2.92977ZM8.65036 5.39784L6.24278 2.99026C5.98871 2.95396 5.74675 2.94186 5.48059 2.92977L7.93656 5.38574H8.19063C8.34791 5.38574 8.50518 5.38575 8.65036 5.39784ZM9.42466 5.48253L7.07757 3.13544C6.8719 3.08705 6.65412 3.05075 6.43635 3.01446L8.83185 5.40994C9.03752 5.42204 9.24318 5.45834 9.42466 5.48253ZM10.1264 5.65191L7.83978 3.36531C7.6704 3.30482 7.48892 3.24433 7.30745 3.19593L9.64243 5.53093C9.81181 5.56722 9.96909 5.60352 10.1264 5.65191ZM10.3925 5.7366C10.5498 5.80919 10.7192 5.88178 10.8644 5.95437L8.63826 3.72826C8.48098 3.64357 8.31161 3.55888 8.14223 3.48629L10.3925 5.7366ZM2.81893 8.31356L3.25447 8.7491L3.15769 8.84589L2.81893 8.50713V14.8467H5.39589V6.25683L2.81893 3.72826V4.32108L5.26281 6.75286L5.16603 6.83755L2.81893 4.50256V5.10748L4.85147 7.15211L4.76677 7.2489L2.81893 5.28896V5.90598L4.45221 7.55136L4.36753 7.64815L2.81893 6.08745V6.70447L4.05297 7.95061L3.96829 8.04739L2.81893 6.88595V7.51507L3.65373 8.34986L3.55693 8.44664L2.81893 7.69654V8.31356ZM10.6708 5.59142C10.2595 4.9502 9.71502 4.40577 9.06171 3.98233L10.6708 5.59142ZM14.2761 5.57932L13.2962 4.57515C13.9495 5.79709 14.3729 7.30939 14.3729 8.88218C14.3729 9.05156 14.3729 9.22094 14.3608 9.37822L16.8289 11.8584V11.7979C16.8289 9.26934 16.0062 7.35779 14.2761 5.57932ZM5.73465 14.8346C9.25529 14.641 11.5298 12.3302 11.5298 8.88218C11.5298 7.9869 11.3725 7.16421 11.0821 6.43831C10.3441 5.93017 9.49726 5.7245 8.19063 5.7245H5.73465V14.8346ZM13.8527 11.9915L16.4175 14.5563C16.6595 13.7699 16.8047 12.9231 16.8289 12.0278L14.3487 9.5476C14.2882 10.4187 14.1188 11.2293 13.8527 11.9915ZM16.3692 14.6773L13.8043 12.1125C13.5744 12.7174 13.2841 13.286 12.9332 13.7941L15.5465 16.4074C15.8852 15.8751 16.1635 15.2943 16.3692 14.6773ZM14.4818 17.714C14.8569 17.3511 15.1835 16.9397 15.4739 16.5042L12.8727 13.903C12.5703 14.3265 12.2315 14.7257 11.8443 15.0766L14.4818 17.714ZM10.695 15.984L13.3446 18.6335C13.7196 18.3794 14.0704 18.1012 14.3971 17.7987L11.7597 15.1613C11.433 15.4637 11.0821 15.742 10.695 15.984ZM9.53355 16.6252L12.1831 19.2747C12.5461 19.1053 12.8969 18.9118 13.2357 18.7061L10.5861 16.0565C10.2595 16.2743 9.9086 16.4558 9.53355 16.6252ZM8.3963 17.0486L11.0338 19.6861C11.3846 19.5893 11.7355 19.4562 12.0621 19.3231L9.41257 16.6736C9.08591 16.8187 8.74715 16.9518 8.3963 17.0486ZM7.29534 17.3148L9.9207 19.9401C10.2595 19.8796 10.5861 19.8071 10.9007 19.7224L8.27531 17.097C7.96075 17.1817 7.6341 17.2543 7.29534 17.3148ZM7.13806 17.339C6.8477 17.3995 6.54524 17.4358 6.24278 17.46L8.84394 20.049C9.15849 20.0369 9.46096 20.0006 9.76342 19.9643L7.13806 17.339ZM7.83978 20.0732H8.19063C8.36001 20.0732 8.51729 20.0732 8.67457 20.0611L6.0855 17.4721C5.81934 17.4842 5.55318 17.4963 5.27491 17.4963H5.26281L7.83978 20.0732ZM0.580725 17.4963L3.15769 20.0732H3.32707L0.762206 17.4963H0.580725ZM0.931586 17.4963L3.50854 20.0732H3.72631L1.14935 17.4963H0.931586ZM1.31873 17.4963L3.89569 20.0732H4.17396L1.597 17.4963H1.31873ZM1.76638 17.4963L4.34333 20.0732H4.69419L2.11723 17.4963H1.76638ZM2.28661 17.4963L4.86356 20.0732H5.287L2.71005 17.4963H2.28661ZM2.87942 17.4963L5.45638 20.0732H5.96451L3.38756 17.4963H2.87942ZM3.56903 17.4963L6.146 20.0732H6.76301L4.18605 17.4963H3.56903ZM4.35543 17.4963L6.93239 20.0732H7.6704L5.08133 17.4963H4.35543ZM30.488 14.8709L33.5005 17.8834V20.412H21.8619L18.8493 17.3995V0.219723H30.1372L33.1497 3.23223V5.61561H24.5719L24.5598 7.34569H28.7579L31.7705 10.3582V12.79H24.5598V14.8709H30.488ZM32.8109 3.37741L30.2339 0.800447V2.82088L32.8109 5.27686V3.37741ZM24.4751 5.27686L21.9102 2.82088H21.7288L24.2936 5.27686H24.4751ZM24.959 5.27686L22.3821 2.82088H22.0917L24.6566 5.27686H24.959ZM25.564 5.27686L22.987 2.82088H22.5636L25.1405 5.27686H25.564ZM26.2899 5.27686L23.725 2.82088H23.1685L25.7454 5.27686H26.2899ZM27.2577 5.27686L24.6687 2.82088H23.9065L26.4713 5.27686H27.2577ZM28.2256 5.27686L25.6366 2.82088H24.8623L27.4392 5.27686H28.2256ZM29.2298 5.27686L26.6528 2.82088H25.8301L28.4071 5.27686H29.2298ZM30.1977 5.27686L27.6449 2.82088H26.8343L29.4113 5.27686H30.1977ZM31.0445 5.27686L28.4797 2.82088H27.8143L30.3912 5.27686H31.0445ZM31.7705 5.27686L29.2056 2.82088H28.6491L31.2381 5.27686H31.7705ZM32.2544 5.27686L29.7016 2.82088H29.375L31.964 5.27686H32.2544ZM32.6173 5.27686L30.0646 2.82088H29.871L32.448 5.27686H32.6173ZM21.6441 6.35362L22.2369 6.92224L22.1401 7.00693L21.6441 6.53509V7.34569H24.221V5.37365L21.6441 2.91767V3.4258L23.8823 5.56722L23.7734 5.63981L21.6441 3.60728V4.16381L23.4709 5.90598L23.3621 5.99066L21.6441 4.33318V4.88971L23.0596 6.24473L22.9507 6.32942L21.6441 5.07119V5.62771L22.6482 6.58349L22.5515 6.66818L21.6441 5.79709V6.35362ZM28.8547 7.92641V9.99524H28.8426L31.4317 12.4512V10.5034L28.8547 7.92641ZM24.3057 12.4512H24.5235L21.9465 9.99524H21.7288L24.3057 12.4512ZM22.128 9.99524L24.705 12.4512H25.1284L22.5636 9.99524H22.128ZM22.745 9.99524L25.3099 12.4512H25.9753L23.3863 9.99524H22.745ZM23.5798 9.99524L26.1568 12.4512H27.0642L24.4993 9.99524H23.5798ZM28.2256 12.4512L25.6728 9.99524H24.6808L27.2456 12.4512H28.2256ZM29.3871 12.4512L26.8101 9.99524H25.8422L28.4192 12.4512H29.3871ZM30.2218 12.4512L27.6691 9.99524H26.9916L29.5685 12.4512H30.2218ZM30.8268 12.4512L28.2619 9.99524H27.8385L30.4154 12.4512H30.8268ZM28.4313 9.99524L31.0203 12.4512H31.2381L28.6733 9.99524H28.4313ZM21.6441 14.2902L21.9586 14.5926L21.8619 14.6894L21.6441 14.4838V14.8709H24.221V12.5359L21.6441 10.0799V10.6123L23.8823 12.7658L23.7976 12.8505L21.6441 10.7937V11.3624L23.5072 13.1408L23.4104 13.2255L21.6441 11.5317V12.0883L23.1201 13.5038L23.0233 13.5885L21.6441 12.2697V12.8263L22.7329 13.8667L22.6361 13.9514L21.6441 13.0077V13.5643L22.3458 14.2297L22.249 14.3144L21.6441 13.7336V14.2902ZM30.5848 15.4516V17.4963L33.1618 20.0732V18.0286L30.5848 15.4516ZM20.6036 17.4963H19.4301L22.007 20.0732H23.1806L20.6036 17.4963ZM21.8256 17.4963H20.773L23.35 20.0732H24.4146L21.8256 17.4963ZM21.9949 17.4963L24.584 20.0732H25.5277L22.9386 17.4963H21.9949ZM23.108 17.4963L25.6971 20.0732H26.5318L23.9549 17.4963H23.108ZM24.8623 17.4963H24.1243L26.7012 20.0732H27.4513L24.8623 17.4963ZM28.274 20.0732L25.6971 17.4963H25.0316L27.6207 20.0732H28.274ZM25.8664 17.4963L28.4434 20.0732H29.0241L26.4471 17.4963H25.8664ZM26.6165 17.4963L29.1935 20.0732H29.7137L27.1247 17.4963H26.6165ZM27.294 17.4963L29.8831 20.0732H30.3307L27.7417 17.4963H27.294ZM27.9111 17.4963L30.5001 20.0732H30.8873L28.2982 17.4963H27.9111ZM28.4676 17.4963L31.0566 20.0732H31.3954L28.8063 17.4963H28.4676ZM28.9757 17.4963L31.5648 20.0732H31.8551L29.2661 17.4963H28.9757ZM29.4355 17.4963L32.0245 20.0732H32.2665L29.6895 17.4963H29.4355ZM29.8589 17.4963L32.4359 20.0732H32.6536L30.0646 17.4963H29.8589ZM30.2339 17.4963L32.823 20.0732H32.9924L30.4033 17.4963H30.2339ZM49.6519 5.7124H40.7354V7.92641H45.1392L48.1517 10.9389V13.407H40.7354V20.412H38.0495L35.037 17.3995V0.219723H46.6394L49.6519 3.23223V5.7124ZM46.7362 0.800447V2.91767L49.3011 5.37365H49.3132V3.37741L46.7362 0.800447ZM40.4692 5.37365H40.6628L38.0858 2.91767H37.9165L40.4692 5.37365ZM41.1346 5.37365L38.5456 2.91767H38.2794L40.8322 5.37365H41.1346ZM41.7517 5.37365L39.1626 2.91767H38.7391L41.304 5.37365H41.7517ZM42.5381 5.37365L39.9611 2.91767H39.3562L41.921 5.37365H42.5381ZM43.6269 5.37365L41.0499 2.91767H40.1547L42.7074 5.37365H43.6269ZM44.6674 5.37365L42.0904 2.91767H41.2314L43.8084 5.37365H44.6674ZM45.8046 5.37365L43.2277 2.91767H42.2719L44.8489 5.37365H45.8046ZM46.8814 5.37365L44.3165 2.91767H43.397L45.9861 5.37365H46.8814ZM47.6799 5.37365L45.1029 2.91767H44.498L47.0629 5.37365H47.6799ZM48.2969 5.37365L45.7199 2.91767H45.2844L47.8614 5.37365H48.2969ZM48.7566 5.37365L46.1918 2.91767H45.9014L48.4784 5.37365H48.7566ZM46.3732 2.91767L48.9381 5.37365H49.1196L46.5547 2.91767H46.3732ZM37.8197 7.92641H40.3966V5.47043L37.8197 3.00236V3.4137L40.1184 5.62771L40.0337 5.7124L37.8197 3.59518V4.15171L39.7433 6.00276L39.6465 6.09955L37.8197 4.33318V4.88971L39.3683 6.37781L39.2715 6.4746L37.8197 5.07119V5.62771L38.9932 6.75286L38.9085 6.83755L37.8197 5.79709V6.36572L38.6182 7.12791L38.5335 7.2126L37.8197 6.53509V7.09162L38.2431 7.50297L38.1584 7.58765L37.8197 7.261V7.92641ZM45.236 8.50713V10.6123L47.813 13.0682V11.0841L45.236 8.50713ZM37.8923 10.6123L40.4571 13.0682H40.6991L38.1221 10.6123H37.8923ZM38.3036 10.6123L40.8685 13.0682H41.2798L38.715 10.6123H38.3036ZM38.8964 10.6123L41.4492 13.0682H42.2114L39.6223 10.6123H38.8964ZM39.8038 10.6123L42.3808 13.0682H43.3245L40.7596 10.6123H39.8038ZM40.9411 10.6123L43.4938 13.0682H44.5827L42.0299 10.6123H40.9411ZM42.1993 10.6123L44.7642 13.0682H45.7199L43.143 10.6123H42.1993ZM43.3124 10.6123L45.9014 13.0682H46.6273L44.0745 10.6123H43.3124ZM44.2439 10.6123L46.8088 13.0682H47.2201L44.6553 10.6123H44.2439ZM44.8246 10.6123L47.4016 13.0682H47.6315L45.0666 10.6123H44.8246ZM37.8197 17.4963L40.3966 20.0732V13.1287L40.3724 13.1529L37.8197 10.7211V11.1204L40.1305 13.3465L40.0458 13.4312L37.8197 11.3019V11.8584L39.7554 13.7215L39.6586 13.8183L37.8197 12.0399V12.5964L39.3804 14.0966L39.2836 14.1934L37.8197 12.7779V13.3344L39.0053 14.4717L38.9206 14.5563L37.8197 13.5038V14.0724L38.6303 14.8467L38.5456 14.9314L37.8197 14.2418V14.8104L38.2552 15.2218L38.1705 15.3064L37.8197 14.9677V17.4963ZM35.6178 17.4963L38.1947 20.0732H38.6908L36.1259 17.4963H35.6178ZM36.7308 17.4963H36.2953L38.8722 20.0732H39.3078L36.7308 17.4963ZM36.9002 17.4963L39.4893 20.0732H39.8038L37.2389 17.4963H36.9002ZM37.4083 17.4963L39.9853 20.0732H40.2152L37.6503 17.4963H37.4083ZM53.6928 0.219723L56.7053 3.23223V20.412H53.9711L50.9586 17.3995V0.219723H53.6928ZM53.7896 0.994021L56.3665 3.57098V3.37741L53.7896 0.800447V0.994021ZM53.7896 1.51425L56.3665 4.09121V3.75246L53.7896 1.1755V1.51425ZM53.7896 2.22806L56.3665 4.80502V4.26059L53.7896 1.68363V2.22806ZM53.7896 3.23223L56.3665 5.80919V4.9865L53.7896 2.40954V3.23223ZM53.7896 4.59935L56.3665 7.17631V5.97857L53.7896 3.4016V4.59935ZM53.7896 6.4867L56.3665 9.06366V7.34569L53.7896 4.76873V6.4867ZM53.7896 17.4963L56.3665 20.0732V9.23304L53.7896 6.65608V17.4963ZM52.0958 17.4963H51.5393L54.1162 20.0732H54.6607L52.0958 17.4963ZM55.2777 20.0732L52.7007 17.4963H52.2652L54.8421 20.0732H55.2777ZM52.8701 17.4963L55.4592 20.0732H55.7737L53.2089 17.4963H52.8701ZM53.3782 17.4963L55.9552 20.0732H56.1851L53.6202 17.4963H53.3782ZM79.9948 4.29689C81.1683 5.45834 81.7248 6.77706 81.7248 8.41035C81.7248 11.7979 79.1358 14.266 75.5425 14.266H72.4695V20.412H69.7474L66.7349 17.3995V0.219723H72.8325C74.9618 0.219723 76.6677 0.981922 77.5872 1.9014L79.9948 4.29689ZM69.5538 7.11582L69.8079 7.36988L69.7111 7.46667L69.5538 7.30939V8.99107H72.0098V5.26476L69.5538 2.80878V3.32901L71.6711 5.49463L71.5864 5.57932L69.5538 3.52259V4.10331L71.296 5.86968L71.2113 5.95437L69.5538 4.28479V4.85342L70.9331 6.24473L70.8363 6.32942L69.5538 5.03489V5.60352L70.558 6.61978L70.4612 6.70447L69.5538 5.78499V6.35362L70.183 6.99483L70.0862 7.07952L69.5538 6.54719V7.11582ZM72.3123 5.14378L69.9894 2.80878H69.7232L72.0703 5.15588L72.1792 5.14378H72.3123ZM72.8567 5.14378L70.5217 2.80878H70.1588L72.4938 5.14378H72.8567ZM73.5463 5.14378L71.2113 2.80878H70.6911L73.0261 5.14378H73.5463ZM74.3448 5.14378L72.0098 2.80878H71.3807L73.7157 5.14378H74.3448ZM72.8809 2.80878H72.1792L74.5142 5.14378H75.2159L72.8809 2.80878ZM75.9055 5.14378L73.6431 2.88137C73.4616 2.84508 73.256 2.83298 73.0624 2.82088L75.3853 5.14378H75.9055ZM76.1596 4.86551L74.369 3.07495C74.2117 3.01446 74.0303 2.96606 73.8609 2.92977L76.0991 5.16797C76.1475 5.16797 76.1959 5.16797 76.2443 5.18007C76.2201 5.07119 76.1959 4.9744 76.1596 4.86551ZM76.0507 4.58725C75.7845 3.98233 75.3127 3.51049 74.6835 3.20803L76.0507 4.58725ZM79.7528 4.53886L78.6881 3.4621C78.9785 4.11541 79.1721 4.926 79.1721 5.7366C79.1721 5.88178 79.1721 6.02696 79.16 6.16004L81.3861 8.18048C81.3377 6.74077 80.7933 5.60352 79.7528 4.53886ZM72.7599 8.99107C74.8529 8.99107 76.3168 7.69654 76.3168 5.85758C76.3168 5.7487 76.3168 5.63981 76.3047 5.53093C76.0991 5.49463 75.8813 5.48253 75.6756 5.48253H72.3486V8.99107H72.7599ZM81.0473 10.3945C81.2651 9.78957 81.3861 9.12415 81.3861 8.41035V8.34986L79.1479 6.30522C79.0874 6.99483 78.918 7.63605 78.6518 8.21677L81.0473 10.3945ZM78.5913 8.32566C78.3736 8.7733 78.1074 9.17255 77.7808 9.5355L80.273 11.7979C80.5634 11.4108 80.8175 10.9752 80.9989 10.5155L78.5913 8.32566ZM79.3172 12.7295C79.6439 12.4754 79.9343 12.1971 80.2004 11.8826L77.6961 9.62019C77.4178 9.92265 77.1153 10.1767 76.7766 10.4187L79.3172 12.7295ZM75.7482 10.9873L78.3252 13.3344C78.6518 13.1771 78.9422 13.0077 79.2205 12.8021L76.6677 10.4913C76.3773 10.6727 76.0749 10.8421 75.7482 10.9873ZM74.7319 11.3382L77.3331 13.6974C77.6356 13.6127 77.938 13.5038 78.2163 13.3828L75.6272 11.0357C75.3369 11.1567 75.0344 11.2535 74.7319 11.3382ZM73.752 11.5196L76.3652 13.8788C76.6556 13.8425 76.9339 13.7941 77.2 13.7336L74.5989 11.3624C74.3206 11.4349 74.0423 11.4833 73.752 11.5196ZM75.4095 13.9272H75.5425C75.7603 13.9272 75.9781 13.9151 76.1838 13.903L73.5826 11.5438C73.3406 11.568 73.0866 11.5801 72.8325 11.5922L75.4095 13.9272ZM71.9856 11.5922L74.5626 13.9272H75.2159L72.651 11.5922H71.9856ZM72.1308 20.0732V13.9272H72.1429L69.5659 11.5922H69.5538V12.2092L71.792 14.2418L71.6953 14.3265L69.5538 12.3786V13.0198L71.3686 14.6652L71.2718 14.7499L69.5538 13.1892V13.8183L70.9451 15.0887L70.8605 15.1734L69.5538 13.9877V14.6289L70.5217 15.5121L70.437 15.5968L69.5538 14.7983V15.4153L70.1104 15.9235L70.0257 16.0202L69.5538 15.5968V17.4963L72.1308 20.0732ZM69.7474 11.5922L72.3123 13.9272H72.5784L70.0015 11.5922H69.7474ZM70.1709 11.5922L72.7478 13.9272H73.0745L70.4975 11.5922H70.1709ZM70.6911 11.5922L73.2559 13.9272H73.6673L71.1024 11.5922H70.6911ZM71.2597 11.5922L73.8488 13.9272H74.3811L71.8162 11.5922H71.2597ZM67.3156 17.4963L69.8926 20.0732H70.4249L67.8601 17.4963H67.3156ZM68.465 17.4963H68.0294L70.6064 20.0732H71.0419L68.465 17.4963ZM68.6343 17.4963L71.2234 20.0732H71.538L68.9731 17.4963H68.6343ZM69.1425 17.4963L71.7195 20.0732H71.9493L69.3845 17.4963H69.1425ZM97.731 0.207625L100.623 3.09915V12.6569C100.623 17.4963 97.7431 20.666 93.3756 20.666C91.0648 20.666 89.4073 20.0127 87.9071 18.5125L85.427 16.0565C84.0599 14.7136 83.3218 12.6932 83.3218 10.1041V0.207625H86.044L89.0565 3.22013V12.9231C89.0565 13.6732 89.1412 14.3991 89.3347 15.0524C89.734 15.1492 90.1695 15.2097 90.6293 15.2097C93.3635 15.2097 95.0089 13.2739 95.0089 10.0073V0.207625H97.731ZM88.7177 3.36531L86.1408 0.788348V0.981923L88.7177 3.55888V3.36531ZM97.8278 0.994021L100.284 3.45V3.24433L97.8278 0.800447V0.994021ZM88.7177 4.07912V3.74036L86.1408 1.1634V1.50215L88.7177 4.07912ZM97.8278 1.51425L100.284 3.97023V3.63147L97.8278 1.1755V1.51425ZM88.7177 4.79292V4.24849L86.1408 1.67153V2.21596L88.7177 4.79292ZM97.8278 2.22806L100.284 4.68404V4.13961L97.8278 1.68363V2.22806ZM88.7177 5.79709V4.9744L86.1408 2.39744V3.22013L88.7177 5.79709ZM97.8278 3.23223L100.284 5.6882V4.86551L97.8278 2.40954V3.23223ZM88.7177 7.16421V5.96647L86.1408 3.38951V4.58725L88.7177 7.16421ZM97.8278 4.59935L100.284 7.05533V5.85758L97.8278 3.4016V4.59935ZM88.7177 9.05156V7.33359L86.1408 4.75663V6.4746L88.7177 9.05156ZM100.284 7.2247L97.8278 4.76873V6.4867L100.284 8.94268V7.2247ZM86.1408 6.64398V10.0073C86.1408 12.5238 87.1812 14.2781 88.9597 14.9314C88.8024 14.3023 88.7177 13.6248 88.7177 12.9231V9.22094L86.1408 6.64398ZM99.8725 15.5847C100.139 14.7015 100.284 13.7215 100.284 12.6569V9.11206L97.8278 6.65608V10.1041C97.8278 11.2293 97.6947 12.2455 97.4286 13.1408L99.8725 15.5847ZM97.3802 13.2618C97.1987 13.8546 96.9568 14.3991 96.6543 14.8709L99.0861 17.3027C99.3885 16.8187 99.6426 16.2864 99.8241 15.7057L97.3802 13.2618ZM98.1545 18.4883C98.4811 18.1617 98.7715 17.8108 99.0256 17.4116L96.5938 14.9798C96.3397 15.379 96.0494 15.7299 95.7227 16.0565L98.1545 18.4883ZM94.7064 16.8308L97.1624 19.2868C97.4891 19.0811 97.7915 18.8392 98.0698 18.573L95.6259 16.1291C95.3476 16.3953 95.0452 16.6252 94.7064 16.8308ZM93.7023 17.339L96.1703 19.807C96.4728 19.674 96.7753 19.5288 97.0535 19.3473L94.5976 16.8913C94.3193 17.0607 94.0168 17.2059 93.7023 17.339ZM86.8304 17.0123L88.1491 18.2706C88.4032 18.5125 88.6572 18.7303 88.9113 18.9239L87.1449 17.1575L86.8304 17.0123ZM87.7861 17.3995C87.6652 17.3511 87.5442 17.3148 87.4232 17.2664L89.4557 19.2989C89.6372 19.4078 89.8066 19.5167 89.9881 19.6014L87.7861 17.3995ZM92.7102 17.6414L95.1904 20.1216C95.4808 20.049 95.759 19.9643 96.0373 19.8554L93.5692 17.3874C93.2909 17.4842 93.0006 17.5688 92.7102 17.6414ZM88.0281 17.4721L90.3147 19.7587C90.472 19.8191 90.6293 19.8917 90.7986 19.9401L88.4516 17.593C88.3064 17.5567 88.1733 17.5205 88.0281 17.4721ZM88.6935 17.6535L91.0648 20.0248C91.2342 20.0732 91.4036 20.1216 91.5851 20.1579L89.1775 17.7503C89.0081 17.714 88.8508 17.6898 88.6935 17.6535ZM91.7665 17.7987L94.2467 20.2789C94.525 20.2547 94.7911 20.2063 95.0452 20.1458L92.565 17.6656C92.311 17.7261 92.0448 17.7745 91.7665 17.7987ZM89.371 17.7745L91.7907 20.1942C91.9843 20.2305 92.1779 20.2547 92.3714 20.2789L89.9397 17.8471C89.7461 17.835 89.5646 17.8108 89.371 17.7745ZM90.9196 17.8713L93.3756 20.3273C93.6176 20.3273 93.8596 20.3152 94.0894 20.291L91.6214 17.8229C91.3915 17.8471 91.1495 17.8592 90.9196 17.8713ZM90.1211 17.8592L92.5529 20.291C92.7707 20.3152 92.9764 20.3273 93.2062 20.3273L90.7503 17.8713H90.5809C90.4236 17.8713 90.2784 17.8713 90.1211 17.8592ZM114.052 14.8104L117.064 17.8229V20.412H106.043L103.03 17.3995V0.219723H105.752L108.765 3.23223V14.8104H114.052ZM108.426 3.37741L105.849 0.800447V0.981923L108.426 3.55888V3.37741ZM108.426 4.07912V3.74036L105.849 1.1634V1.50215L108.426 4.07912ZM108.426 4.79292V4.24849L105.849 1.67153V2.21596L108.426 4.79292ZM108.426 5.79709V4.9744L105.849 2.39744V3.22013L108.426 5.79709ZM108.426 7.16421V5.96647L105.849 3.38951V4.58725L108.426 7.16421ZM108.426 9.05156V7.33359L105.849 4.75663V6.4746L108.426 9.05156ZM105.849 14.8104H108.426V9.22094L105.849 6.64398V14.8104ZM116.726 20.0732V17.9681L114.149 15.3911V17.4963L116.726 20.0732ZM103.611 17.4963L106.188 20.0732H107.313L104.724 17.4963H103.611ZM104.893 17.4963L107.482 20.0732H108.499L105.91 17.4963H104.893ZM106.079 17.4963L108.668 20.0732H109.575L106.986 17.4963H106.079ZM107.156 17.4963L109.745 20.0732H110.543L107.966 17.4963H107.156ZM108.136 17.4963L110.725 20.0732H111.439L108.862 17.4963H108.136ZM109.031 17.4963L111.608 20.0732H112.249L109.66 17.4963H109.031ZM109.829 17.4963L112.419 20.0732H112.987L110.398 17.4963H109.829ZM110.567 17.4963L113.157 20.0732H113.653L111.064 17.4963H110.567ZM111.233 17.4963L113.822 20.0732H114.257L111.681 17.4963H111.233ZM111.85 17.4963L114.427 20.0732H114.814L112.225 17.4963H111.85ZM112.394 17.4963L114.983 20.0732H115.31L112.733 17.4963H112.394ZM112.902 17.4963L115.479 20.0732H115.77L113.181 17.4963H112.902ZM113.362 17.4963L115.939 20.0732H116.181L113.604 17.4963H113.362ZM113.774 17.4963L116.351 20.0732H116.556L113.979 17.4963H113.774ZM130.058 12.1488C130.99 13.0803 131.389 14.1087 131.389 15.5242C131.389 18.5609 128.993 20.666 125.521 20.666C123.005 20.7144 121.129 19.9764 119.956 19.0811L116.98 16.1049V13.2497L117.27 13.1287C118.577 14.3507 120.391 15.0403 122.279 15.0403C123.852 15.0403 125.122 14.4717 125.618 13.6127C123.731 12.6932 121.517 12.1851 120.27 10.6002L118.444 8.27726C117.572 7.16421 117.149 6.35362 117.149 5.02279C117.149 2.04658 119.52 0.00195105 122.98 0.00195105C124.735 -0.0343442 126.513 0.437495 127.796 1.27229L130.784 4.26059V6.97064L130.518 7.10372C129.151 6.09955 127.59 5.53093 126.138 5.53093C124.469 5.53093 123.222 6.19634 122.896 7.2368C124.59 7.84172 126.404 8.44664 127.554 9.62019L130.058 12.1488ZM127.868 1.82881V4.05492H127.856L130.445 6.64398V4.40577L127.868 1.82881ZM123.501 2.62731C123.404 2.61521 123.307 2.61521 123.222 2.61521C123.041 2.61521 122.859 2.62731 122.678 2.63941L125.291 5.25266C125.533 5.21637 125.799 5.19217 126.066 5.19217L123.501 2.62731ZM126.925 5.24056L124.42 2.73619C124.178 2.6878 123.924 2.6515 123.67 2.62731L126.235 5.19217C126.465 5.19217 126.695 5.21637 126.925 5.24056ZM125.146 5.27686L122.521 2.6515C122.206 2.6999 121.916 2.76039 121.638 2.84508L124.287 5.49463C124.553 5.39784 124.844 5.32525 125.146 5.27686ZM127.735 5.39784L125.315 2.97816C125.098 2.90557 124.868 2.83298 124.638 2.78459L127.13 5.27686C127.324 5.30106 127.529 5.34945 127.735 5.39784ZM124.166 5.54302L121.517 2.89347C121.166 3.01446 120.875 3.18383 120.633 3.38951L123.307 6.06326C123.549 5.85758 123.839 5.6882 124.166 5.54302ZM128.509 5.63981L126.223 3.35321C126.017 3.25642 125.799 3.15964 125.582 3.07495L127.965 5.45833C128.146 5.50673 128.328 5.56722 128.509 5.63981ZM122.569 7.11582C122.69 6.74077 122.908 6.41411 123.21 6.13585L120.537 3.4621C120.198 3.77666 119.98 4.1638 119.92 4.58725L122.376 7.04323L122.569 7.11582ZM129.235 5.94227L127.203 3.90974C126.997 3.77666 126.791 3.64357 126.574 3.53469L128.788 5.7487C128.933 5.80919 129.09 5.86968 129.235 5.94227ZM127.638 4.1759L129.586 6.12375C129.707 6.18424 129.84 6.25683 129.973 6.34152L127.747 4.11541L127.638 4.1759ZM119.907 4.84132C119.907 5.85758 120.839 6.42621 122.097 6.93434L119.907 4.74453V4.84132ZM120.803 10.6848C121.238 11.1567 121.843 11.5317 122.533 11.8705L119.75 9.08786C119.605 9.00317 119.46 8.91848 119.327 8.83379C119.762 9.43871 120.246 10.0799 120.803 10.6848ZM120.96 9.66858C120.67 9.5476 120.379 9.41452 120.113 9.28143L122.859 12.0278C123.126 12.1488 123.404 12.2697 123.694 12.3907L120.96 9.66858ZM121.238 9.77747L123.985 12.5117C124.202 12.6085 124.42 12.6932 124.638 12.79L121.867 10.0194C121.662 9.94684 121.456 9.86216 121.238 9.77747ZM122.134 10.1162L124.94 12.9231C125.122 12.9956 125.303 13.0803 125.485 13.165L122.618 10.2856C122.46 10.2372 122.291 10.1767 122.134 10.1162ZM125.775 13.2739C125.787 13.2134 125.812 13.1529 125.824 13.0924L123.271 10.5276C123.15 10.4792 123.017 10.4308 122.896 10.3945L125.775 13.2739ZM123.561 10.6365L125.848 12.9231C125.86 12.8747 125.86 12.8142 125.86 12.7658V12.7537L123.876 10.7695L123.561 10.6365ZM125.848 12.5722L125.811 12.3907L124.456 11.0357C124.372 10.9873 124.275 10.951 124.178 10.9026L125.848 12.5722ZM129.816 12.3907L128.449 11.0236C128.618 11.4833 128.715 12.0036 128.715 12.6085C128.715 12.911 128.691 13.2013 128.643 13.4917L131.038 15.8872C131.05 15.7662 131.05 15.6452 131.05 15.5242C131.05 14.1813 130.687 13.2618 129.816 12.3907ZM125.715 12.1125C125.545 11.7858 125.243 11.5075 124.856 11.2656L125.715 12.1125ZM131.026 16.0444L128.618 13.6369C128.497 14.1934 128.292 14.7136 128.001 15.1734L130.542 17.714C130.796 17.2059 130.965 16.6494 131.026 16.0444ZM129.683 18.8392C129.998 18.5367 130.264 18.198 130.469 17.8229L127.929 15.2822C127.699 15.6452 127.421 15.9598 127.094 16.2501L129.683 18.8392ZM126.09 16.9276L128.715 19.5651C129.042 19.3715 129.332 19.1658 129.598 18.9239L126.997 16.3227C126.719 16.5526 126.416 16.7583 126.09 16.9276ZM118.238 16.8792L120.174 18.815C120.355 18.9481 120.537 19.0811 120.742 19.2021L118.552 17.0244L118.238 16.8792ZM125.073 17.3632L127.711 20.0006C128.026 19.8917 128.328 19.7708 128.606 19.6135L125.981 16.9881C125.703 17.1333 125.4 17.2664 125.073 17.3632ZM118.855 17.1454L121.129 19.4199C121.262 19.4804 121.396 19.553 121.541 19.6135L119.194 17.2664L118.855 17.1454ZM119.448 17.339L121.831 19.7345C121.976 19.7829 122.134 19.8433 122.291 19.8917L119.847 17.4479L119.448 17.339ZM124.094 17.6051L126.719 20.2305C127.021 20.1821 127.312 20.1216 127.578 20.0369L124.953 17.4116C124.674 17.4842 124.396 17.5567 124.094 17.6051ZM120.077 17.5084L122.533 19.9643C122.702 20.0127 122.872 20.0611 123.053 20.0974L120.549 17.593C120.391 17.5688 120.234 17.5325 120.077 17.5084ZM120.754 17.6293L123.259 20.1337C123.452 20.17 123.634 20.2063 123.827 20.2305L121.299 17.6898C121.105 17.6777 120.936 17.6535 120.754 17.6293ZM126.562 20.2547L123.948 17.6293C123.694 17.6777 123.428 17.7019 123.162 17.7261L125.763 20.3273C126.041 20.3152 126.308 20.291 126.562 20.2547ZM121.492 17.714L124.045 20.2547C124.263 20.2789 124.469 20.3031 124.686 20.3152L122.109 17.7382C121.904 17.7382 121.698 17.7261 121.492 17.714ZM124.856 20.3152C125.073 20.3273 125.303 20.3273 125.521 20.3273H125.582L122.993 17.7261C122.859 17.7382 122.738 17.7382 122.605 17.7382H122.279L124.856 20.3152ZM144.988 14.8709L148 17.8834V20.412H136.361L133.349 17.3995V0.219723H144.637L147.649 3.23223V5.61561H139.071L139.059 7.34569H143.257L146.27 10.3582V12.79H139.059V14.8709H144.988ZM147.31 3.37741L144.733 0.800447V2.82088L147.31 5.27686V3.37741ZM138.975 5.27686L136.41 2.82088H136.228L138.793 5.27686H138.975ZM139.459 5.27686L136.882 2.82088H136.591L139.156 5.27686H139.459ZM140.063 5.27686L137.486 2.82088H137.063L139.64 5.27686H140.063ZM140.789 5.27686L138.224 2.82088H137.668L140.245 5.27686H140.789ZM141.757 5.27686L139.168 2.82088H138.406L140.971 5.27686H141.757ZM142.725 5.27686L140.136 2.82088H139.362L141.939 5.27686H142.725ZM143.729 5.27686L141.152 2.82088H140.33L142.907 5.27686H143.729ZM144.697 5.27686L142.144 2.82088H141.334L143.911 5.27686H144.697ZM145.544 5.27686L142.979 2.82088H142.314L144.891 5.27686H145.544ZM146.27 5.27686L143.705 2.82088H143.149L145.738 5.27686H146.27ZM146.754 5.27686L144.201 2.82088H143.874L146.464 5.27686H146.754ZM147.117 5.27686L144.564 2.82088H144.37L146.947 5.27686H147.117ZM136.144 6.35362L136.736 6.92224L136.64 7.00693L136.144 6.53509V7.34569H138.721V5.37365L136.144 2.91767V3.4258L138.382 5.56722L138.273 5.63981L136.144 3.60728V4.16381L137.97 5.90598L137.862 5.99066L136.144 4.33318V4.88971L137.559 6.24473L137.45 6.32942L136.144 5.07119V5.62771L137.148 6.58349L137.051 6.66818L136.144 5.79709V6.35362ZM143.354 7.92641V9.99524H143.342L145.931 12.4512V10.5034L143.354 7.92641ZM138.805 12.4512H139.023L136.446 9.99524H136.228L138.805 12.4512ZM136.627 9.99524L139.204 12.4512H139.628L137.063 9.99524H136.627ZM137.245 9.99524L139.809 12.4512H140.475L137.886 9.99524H137.245ZM138.079 9.99524L140.656 12.4512H141.564L138.999 9.99524H138.079ZM142.725 12.4512L140.172 9.99524H139.18L141.745 12.4512H142.725ZM143.887 12.4512L141.31 9.99524H140.342L142.919 12.4512H143.887ZM144.721 12.4512L142.169 9.99524H141.491L144.068 12.4512H144.721ZM145.326 12.4512L142.761 9.99524H142.338L144.915 12.4512H145.326ZM142.931 9.99524L145.52 12.4512H145.738L143.173 9.99524H142.931ZM136.144 14.2902L136.458 14.5926L136.361 14.6894L136.144 14.4838V14.8709H138.721V12.5359L136.144 10.0799V10.6123L138.382 12.7658L138.297 12.8505L136.144 10.7937V11.3624L138.007 13.1408L137.91 13.2255L136.144 11.5317V12.0883L137.62 13.5038L137.523 13.5885L136.144 12.2697V12.8263L137.232 13.8667L137.136 13.9514L136.144 13.0077V13.5643L136.845 14.2297L136.748 14.3144L136.144 13.7336V14.2902ZM145.084 15.4516V17.4963L147.661 20.0732V18.0286L145.084 15.4516ZM135.103 17.4963H133.93L136.507 20.0732H137.68L135.103 17.4963ZM136.325 17.4963H135.272L137.849 20.0732H138.914L136.325 17.4963ZM136.494 17.4963L139.083 20.0732H140.027L137.438 17.4963H136.494ZM137.607 17.4963L140.197 20.0732H141.031L138.454 17.4963H137.607ZM139.362 17.4963H138.624L141.201 20.0732H141.951L139.362 17.4963ZM142.773 20.0732L140.197 17.4963H139.531L142.12 20.0732H142.773ZM140.366 17.4963L142.943 20.0732H143.524L140.947 17.4963H140.366ZM141.116 17.4963L143.693 20.0732H144.213L141.624 17.4963H141.116ZM141.794 17.4963L144.383 20.0732H144.83L142.241 17.4963H141.794ZM142.411 17.4963L145 20.0732H145.387L142.798 17.4963H142.411ZM142.967 17.4963L145.556 20.0732H145.895L143.306 17.4963H142.967ZM143.475 17.4963L146.064 20.0732H146.355L143.766 17.4963H143.475ZM143.935 17.4963L146.524 20.0732H146.766L144.189 17.4963H143.935ZM144.358 17.4963L146.935 20.0732H147.153L144.564 17.4963H144.358ZM144.733 17.4963L147.322 20.0732H147.492L144.903 17.4963H144.733Z" fill="#2B1B4B"/>
</svg>
