<svg width="141" height="39" viewBox="0 0 141 39" fill="none" xmlns="http://www.w3.org/2000/svg">
<g clip-path="url(#clip0_910_4241)">
<path d="M58.2848 17.4557C57.9014 15.961 56.9346 14.8673 55.0443 14.8673C52.2548 14.8673 51.0882 17.3274 51.0882 19.824C51.0882 22.3205 52.2548 24.782 55.0443 24.782C57.0697 24.782 58.1795 23.2697 58.3605 21.374H60.5843C60.402 24.4903 58.1971 26.6398 55.0484 26.6398C51.1476 26.6398 48.8145 23.5411 48.8145 19.8226C48.8145 16.1041 51.1395 13 55.0403 13C57.9743 13.0176 60.2886 14.6405 60.5627 17.4476L58.2848 17.4557Z" fill="#4C4C4C"/>
<path d="M61.9297 21.6036C61.9297 18.7236 63.6607 16.647 66.6865 16.647C69.7123 16.647 71.4433 18.7236 71.4433 21.6036C71.4433 24.4836 69.7123 26.5805 66.6865 26.5805C63.6607 26.5805 61.9297 24.5025 61.9297 21.6036ZM69.3653 21.6036C69.3653 19.9833 68.5457 18.2875 66.6865 18.2875C64.8272 18.2875 64.0077 19.982 64.0077 21.6036C64.0077 23.2252 64.8272 24.94 66.6865 24.94C68.5457 24.94 69.3653 23.2441 69.3653 21.6036Z" fill="#4C4C4C"/>
<path d="M73.2285 13.3105H75.3065V15.2792H73.2285V13.3105ZM73.2285 16.9021H75.3065V26.3252H73.2285V16.9021Z" fill="#4C4C4C"/>
<path d="M77.5684 16.9023H79.537V18.2877L79.5734 18.3241C79.8719 17.8109 80.3005 17.3856 80.8158 17.0909C81.3312 16.7963 81.9151 16.6427 82.5088 16.6458C84.5503 16.6458 85.8438 17.7395 85.8438 19.8526V26.3241H83.7658V20.4007C83.7294 18.925 83.1461 18.2877 81.9255 18.2877C80.5402 18.2877 79.6463 19.38 79.6463 20.7653V26.3255H77.5684V16.9023Z" fill="#4C4C4C"/>
<path d="M99.6788 26.3252H98.2206L97.8749 24.7941C96.6597 26.1794 95.5417 26.6344 93.9593 26.6344C90.0612 26.6371 87.7227 23.5317 87.7227 19.8172C87.7227 16.1028 90.0612 13 93.9566 13C96.792 13 99.1873 14.5122 99.533 17.4476H97.3092C97.0904 15.7342 95.5971 14.8592 93.9566 14.8592C91.167 14.8592 90.0005 17.3193 90.0005 19.8159C90.0005 22.3124 91.167 24.7739 93.9566 24.7739C96.2884 24.8103 97.5644 23.4074 97.6022 21.2012H94.1389V19.4716H99.6747L99.6788 26.3252Z" fill="#4C4C4C"/>
<path d="M103.488 22.1504C103.488 23.6276 104.29 24.94 106.021 24.94C107.224 24.94 107.953 24.4107 108.316 23.3724H110.286C109.831 25.4315 108.082 26.5805 106.021 26.5805C103.07 26.5805 101.41 24.5201 101.41 21.6225C101.41 18.9423 103.165 16.647 105.967 16.647C108.938 16.647 110.76 19.3258 110.415 22.1504H103.488ZM108.337 20.784C108.264 19.4716 107.37 18.2875 105.967 18.2875C104.526 18.2875 103.543 19.3798 103.488 20.784H108.337Z" fill="#4C4C4C"/>
<path d="M118.362 20.0549C118.197 18.9059 117.359 18.2875 116.211 18.2875C115.131 18.2875 113.623 18.8519 113.623 21.713C113.623 23.2806 114.316 24.94 116.119 24.94C117.322 24.94 118.161 24.138 118.362 22.7891H120.44C120.057 25.2316 118.55 26.5805 116.119 26.5805C113.167 26.5805 111.545 24.4836 111.545 21.713C111.545 18.8694 113.095 16.647 116.192 16.647C118.38 16.647 120.243 17.7406 120.44 20.0549H118.362Z" fill="#4C4C4C"/>
<path d="M122.195 13.3105H124.273V20.7111L128.028 16.9021H130.58L126.971 20.3641L130.926 26.3252H128.387L125.507 21.7494L124.268 22.9524V26.3279H122.195V13.3105Z" fill="#4C4C4C"/>
<path d="M131.486 21.6036C131.486 18.7236 133.217 16.647 136.243 16.647C139.269 16.647 141.001 18.7236 141.001 21.6036C141.001 24.4836 139.269 26.5805 136.243 26.5805C133.217 26.5805 131.486 24.5025 131.486 21.6036ZM138.923 21.6036C138.923 19.9833 138.102 18.2875 136.243 18.2875C134.384 18.2875 133.564 19.982 133.564 21.6036C133.564 23.2252 134.384 24.94 136.243 24.94C138.102 24.94 138.923 23.2441 138.923 21.6036Z" fill="#4C4C4C"/>
<path d="M37.2657 19.5507C37.282 23.236 36.205 26.8433 34.1711 29.9165C32.1372 32.9897 29.2376 35.3907 25.8391 36.816C22.4406 38.2413 18.6957 38.6267 15.0781 37.9236C11.4605 37.2205 8.13265 35.4605 5.51536 32.866C2.89807 30.2716 1.1089 26.9593 0.374122 23.348C-0.360657 19.7367 -0.00805021 15.9886 1.38735 12.5777C2.78276 9.16683 5.15828 6.24633 8.21352 4.18554C11.2688 2.12475 14.8665 1.01624 18.5517 1.00018C23.4933 0.978644 28.241 2.92094 31.7505 6.39982C35.26 9.8787 37.2439 14.6092 37.2657 19.5507Z" fill="#8DC63F"/>
<path d="M35.8677 19.5574C35.8832 22.9658 34.8876 26.3021 33.0068 29.1446C31.1261 31.9871 28.4447 34.2081 25.3017 35.5266C22.1587 36.8452 18.6953 37.2021 15.3495 36.5522C12.0036 35.9024 8.92564 34.275 6.50473 31.8758C4.08382 29.4766 2.42873 26.4134 1.74877 23.0735C1.0688 19.7337 1.39449 16.2672 2.68466 13.1125C3.97483 9.95772 6.17153 7.25641 8.99696 5.35014C11.8224 3.44387 15.1496 2.41826 18.558 2.403C23.1281 2.3829 27.519 4.17883 30.7651 7.39581C34.0112 10.6128 35.8466 14.9874 35.8677 19.5574Z" fill="#F9E988"/>
<path d="M18.9506 3.51961C20.046 3.32517 21.1672 3.32517 22.2626 3.51961C23.3687 3.69475 24.4379 4.05296 25.4262 4.57953C26.4091 5.11961 27.2584 5.85278 28.1037 6.54004C28.9489 7.22729 29.7901 7.93075 30.5908 8.70038C31.4081 9.458 32.1214 10.3207 32.7119 11.2658C33.32 12.2034 33.8184 13.2078 34.1972 14.2592C34.9168 16.3736 35.1666 18.6514 34.8075 20.8239H34.7008C34.3403 18.6703 33.8515 16.618 33.0805 14.6656C32.7187 13.6825 32.2929 12.724 31.8059 11.7964C31.2979 10.8687 30.738 9.97026 30.129 9.10544C29.5096 8.23115 28.7506 7.46478 27.8822 6.83708C27.0073 6.21328 26.0014 5.80957 25.0279 5.42611C24.0544 5.04265 23.089 4.64569 22.0736 4.35404C21.0583 4.0624 20.0267 3.84366 18.9492 3.63168L18.9506 3.51961Z" fill="white"/>
<path d="M27.3737 13.475C26.1234 13.1131 24.8272 12.6 23.5148 12.0816C23.4392 11.7521 23.1476 11.3416 22.5575 10.8407C21.7001 10.0968 20.0893 10.1157 18.6973 10.4451C17.1607 10.0832 15.6431 9.95498 14.1862 10.3101C2.27057 13.5925 9.02703 21.6006 4.65234 29.6505C5.27479 30.971 11.984 38.6753 21.692 36.6082C21.692 36.6082 18.3719 28.6298 25.8642 24.8006C31.9415 21.6829 36.3324 15.9148 27.3737 13.475Z" fill="#8BC53F"/>
<path d="M28.8451 18.7151C28.8459 18.858 28.8043 18.9979 28.7256 19.1171C28.6469 19.2364 28.5346 19.3296 28.4029 19.385C28.2712 19.4404 28.1261 19.4555 27.9858 19.4284C27.8455 19.4014 27.7164 19.3333 27.6148 19.2328C27.5132 19.1324 27.4437 19.004 27.4151 18.8641C27.3864 18.7241 27.3999 18.5788 27.4538 18.4465C27.5078 18.3142 27.5997 18.2009 27.7181 18.1208C27.8364 18.0408 27.9758 17.9976 28.1187 17.9968C28.3102 17.9961 28.4941 18.0713 28.6303 18.2059C28.7664 18.3406 28.8437 18.5237 28.8451 18.7151Z" fill="white"/>
<path d="M18.6973 10.4394C19.5655 10.5016 22.7047 11.5196 23.5148 12.0759C22.8397 10.1181 20.5673 9.85751 18.6973 10.4394Z" fill="#009345"/>
<path d="M19.5221 15.3908C19.5223 16.0499 19.3271 16.6943 18.9611 17.2425C18.5951 17.7907 18.0748 18.218 17.4659 18.4704C16.857 18.7228 16.187 18.789 15.5405 18.6606C14.894 18.5322 14.3001 18.2149 13.8339 17.7489C13.3677 17.2829 13.0502 16.6892 12.9216 16.0427C12.7929 15.3963 12.8588 14.7262 13.111 14.1172C13.3631 13.5082 13.7902 12.9877 14.3383 12.6215C14.8863 12.2553 15.5306 12.0598 16.1897 12.0598C16.6273 12.0596 17.0606 12.1457 17.4649 12.313C17.8692 12.4803 18.2365 12.7256 18.546 13.035C18.8554 13.3443 19.1009 13.7115 19.2684 14.1158C19.4359 14.52 19.5221 14.9532 19.5221 15.3908Z" fill="white"/>
<path d="M18.5356 15.4206C18.5356 15.8842 18.3981 16.3374 18.1406 16.7229C17.883 17.1083 17.5169 17.4088 17.0886 17.5862C16.6603 17.7636 16.189 17.81 15.7343 17.7196C15.2797 17.6291 14.862 17.4059 14.5342 17.0781C14.2064 16.7503 13.9831 16.3326 13.8927 15.8779C13.8023 15.4232 13.8487 14.9519 14.0261 14.5236C14.2035 14.0953 14.5039 13.7292 14.8894 13.4717C15.2749 13.2141 15.728 13.0767 16.1916 13.0767C16.8133 13.0767 17.4095 13.3236 17.8491 13.7632C18.2886 14.2028 18.5356 14.799 18.5356 15.4206Z" fill="#58595B"/>
<path d="M31.5449 20.184C28.8444 22.0864 25.774 23.5298 21.4183 23.5298C19.3794 23.5298 18.9663 21.3695 17.6188 22.4253C16.9234 22.9735 14.4714 24.1995 12.5258 24.1063C10.5801 24.0132 7.426 22.8722 6.54702 18.719C6.19866 22.8722 6.02043 25.9318 4.46094 29.4383C7.56643 34.4112 14.971 38.2471 21.6924 36.5945C20.97 31.5514 25.3771 26.6123 27.8601 24.0847C28.8053 23.1274 30.6011 21.5652 31.5449 20.1813V20.184Z" fill="#8BC53F"/>
<path d="M31.4403 20.3085C30.6019 21.0727 29.6041 21.6384 28.5887 22.138C27.561 22.626 26.4896 23.0161 25.3887 23.3032C24.2869 23.5881 23.1379 23.8028 21.974 23.6975C20.8101 23.5922 19.6206 23.1966 18.8496 22.3243L18.8861 22.2825C19.8312 22.8955 20.9222 23.1115 22.0078 23.1426C23.1081 23.176 24.2087 23.0854 25.2888 22.8725C26.3798 22.6441 27.4471 22.3141 28.4766 21.8869C29.5068 21.4615 30.5262 20.9687 31.4039 20.2666L31.4403 20.3085Z" fill="#58595B"/>
</g>
<defs>
<clipPath id="clip0_910_4241">
<rect width="141" height="37.2713" fill="white" transform="translate(0 0.965088)"/>
</clipPath>
</defs>
</svg>
