<svg width="117" height="32" viewBox="0 0 117 32" fill="none" xmlns="http://www.w3.org/2000/svg">
<g clip-path="url(#clip0_1557_15283)">
<path d="M37.5333 29.4H33.1333V11.2H26.1333V6.80005H44.3333V11.2H37.3333V29.4H37.5333Z" fill="#1E3030"/>
<path d="M61.5334 19.8C61.5334 15.2 58.7334 12.4 54.3334 12.4C53.1144 12.4949 51.9419 12.9088 50.9334 13.6V6.40002H46.7334V29.4H50.9334V19.8C50.9279 19.3783 51.0069 18.9597 51.1658 18.569C51.3247 18.1783 51.5602 17.8233 51.8584 17.5251C52.1567 17.2268 52.5116 16.9913 52.9024 16.8324C53.2931 16.6736 53.7116 16.5945 54.1334 16.6C54.5551 16.5945 54.9737 16.6736 55.3644 16.8324C55.7552 16.9913 56.1101 17.2268 56.4084 17.5251C56.7066 17.8233 56.9421 18.1783 57.101 18.569C57.2599 18.9597 57.3389 19.3783 57.3334 19.8V29.4H61.5334V19.8Z" fill="#1E3030"/>
<path d="M71.9333 29.8C70.8296 29.8002 69.737 29.5792 68.7202 29.1499C67.7034 28.7206 66.783 28.0919 66.0133 27.3008C64.4136 25.6744 63.5221 23.4813 63.5333 21.2C63.5221 18.9188 64.4136 16.7257 66.0133 15.0992C66.9346 14.1527 68.0696 13.441 69.3229 13.0239C70.5762 12.6067 71.9113 12.4964 73.2162 12.702C74.521 12.9077 75.7574 13.4233 76.8217 14.2057C77.8859 14.9881 78.747 16.0144 79.3325 17.1984L70.1325 25.1984L70.1669 25.2096C70.7317 25.431 71.3278 25.5622 71.9333 25.5984C72.6218 25.5746 73.2934 25.3792 73.8872 25.03C74.4809 24.6807 74.978 24.1886 75.3333 23.5984L77.9333 27.2C77.2065 28.0165 76.3105 28.6649 75.3077 29.1C74.2428 29.5623 73.0942 29.8006 71.9333 29.8ZM71.7325 16.6C70.6021 16.6558 69.5363 17.1433 68.7549 17.9621C67.9735 18.7808 67.5362 19.8683 67.5333 21C67.5013 21.5412 67.5694 22.0836 67.7341 22.6L73.7341 17C73.0953 16.7513 72.4179 16.6159 71.7325 16.6Z" fill="#1E3030"/>
<path d="M88.3332 29.6C87.2295 29.6002 86.137 29.3792 85.1202 28.9499C84.1033 28.5206 83.1829 27.8919 82.4132 27.1008C80.8134 25.4742 79.9218 23.2808 79.9332 20.9992C79.9212 18.7192 80.8109 16.5269 82.4084 14.9C83.1786 14.1082 84.0998 13.479 85.1175 13.0496C86.1352 12.6202 87.2287 12.3993 88.3332 12.4C90.0151 12.4477 91.6465 12.985 93.0275 13.946C94.4085 14.9071 95.4792 16.2501 96.1083 17.8106C96.7374 19.3711 96.8975 21.0812 96.5692 22.7314C96.2408 24.3815 95.4382 25.9 94.2596 27.1008C93.4891 27.8925 92.5676 28.5216 91.5496 28.9508C90.5317 29.3801 89.438 29.6009 88.3332 29.6ZM88.3332 16.8C87.7668 16.8074 87.2075 16.9277 86.6882 17.1539C86.1688 17.3801 85.6998 17.7077 85.3087 18.1175C84.9175 18.5273 84.6121 19.011 84.4103 19.5403C84.2084 20.0696 84.1142 20.6339 84.1332 21.2C84.1142 21.7662 84.2084 22.3305 84.4103 22.8598C84.6121 23.3891 84.9175 23.8728 85.3087 24.2826C85.6998 24.6923 86.1688 25.0199 86.6882 25.2461C87.2075 25.4724 87.7668 25.5927 88.3332 25.6C88.8997 25.5926 89.4589 25.4722 89.9783 25.2459C90.4976 25.0197 90.9666 24.6921 91.3578 24.2824C91.749 23.8726 92.0545 23.389 92.2565 22.8597C92.4584 22.3304 92.5528 21.7662 92.534 21.2C92.5528 20.6338 92.4584 20.0696 92.2565 19.5403C92.0545 19.0111 91.749 18.5274 91.3578 18.1177C90.9666 17.708 90.4976 17.3804 89.9783 17.1541C89.4589 16.9279 88.8997 16.8075 88.3332 16.8Z" fill="#1E3030"/>
<path d="M103.133 29.4H98.9334V17.8C98.9334 16.4 98.7334 13.2 98.7334 13.2L102.133 13L102.333 15.4C103.333 13.8 105.533 13 107.333 13H109.133L108.933 17.2H106.333C104.133 17.2 102.933 18.6 102.933 20.2C103.133 22.2 103.133 29.4 103.133 29.4Z" fill="#1E3030"/>
<path d="M111.733 29.4001V13.0001H115.934V29.4001H111.733ZM110.933 8.80005C110.925 8.42993 110.991 8.06185 111.128 7.71813C111.266 7.3744 111.472 7.06218 111.734 6.80039C111.996 6.53859 112.308 6.33267 112.651 6.1951C112.995 6.05753 113.363 5.99118 113.733 6.00005C114.104 5.99118 114.472 6.05753 114.815 6.1951C115.159 6.33267 115.471 6.53859 115.733 6.80039C115.995 7.06218 116.201 7.3744 116.338 7.71813C116.476 8.06185 116.542 8.42993 116.533 8.80005C116.542 9.17021 116.476 9.53834 116.339 9.88212C116.201 10.2259 115.995 10.5382 115.733 10.8C115.472 11.0618 115.159 11.2677 114.815 11.4052C114.472 11.5428 114.104 11.609 113.733 11.6001C113.363 11.6089 112.995 11.5426 112.651 11.405C112.308 11.2674 111.996 11.0615 111.734 10.7997C111.472 10.5379 111.266 10.2257 111.128 9.88198C110.991 9.53826 110.925 9.17018 110.933 8.80005Z" fill="#1E3030"/>
<path d="M2.1333 8.6L11.1333 0H0.133301L2.1333 8.6Z" fill="url(#paint0_linear_1557_15283)"/>
<path d="M14.7334 23.4C12.3334 23 11.1334 20.7999 11.1334 18V12.8H15.7334L23.5334 4.59995L11.1334 4.19995L1.7334 12.8V19.2C1.7334 28 6.5334 32 13.5334 32C14.8034 32.0389 16.0745 31.972 17.3334 31.7999V23.7999C16.456 23.7498 15.5853 23.6159 14.7334 23.4Z" fill="url(#paint1_linear_1557_15283)"/>
<path opacity="0.5" d="M11.1334 12.8V15.6L1.7334 12.8H11.1334Z" fill="#223535"/>
</g>
<defs>
<linearGradient id="paint0_linear_1557_15283" x1="-4.3327" y1="11.8938" x2="5.03997" y2="-6.38568" gradientUnits="userSpaceOnUse">
<stop offset="0.004" stop-color="#80BA4C"/>
<stop offset="1" stop-color="#00ACD6"/>
</linearGradient>
<linearGradient id="paint1_linear_1557_15283" x1="4.2622" y1="31.5379" x2="24.8984" y2="9.57491" gradientUnits="userSpaceOnUse">
<stop offset="0.004" stop-color="#80BA4C"/>
<stop offset="1" stop-color="#00ACD6"/>
</linearGradient>
<clipPath id="clip0_1557_15283">
<rect width="116.4" height="32" fill="white" transform="translate(0.133301)"/>
</clipPath>
</defs>
</svg>
