<svg width="16" height="16" viewBox="0 0 16 16" fill="none" xmlns="http://www.w3.org/2000/svg">
    <path d="M16 8C16 12.4183 12.4183 16 8 16C3.58172 16 0 12.4183 0 8C0 3.58172 3.58172 0 8 0C12.4183 0 16 3.58172 16 8Z" fill="#9300D8"/>
    <path fill-rule="evenodd" clip-rule="evenodd" d="M4.25639 15.0718C3.93507 14.9014 3.62675 14.7097 3.33331 14.4986V5.12816C3.33331 4.8734 3.54008 4.66663 3.79485 4.66663H12.1025C12.2726 4.66663 12.4291 4.76032 12.5096 4.91032C12.5897 5.06032 12.5809 5.2424 12.4865 5.38409L10.8109 7.8974L12.4865 10.4107C12.5812 10.5524 12.5899 10.7345 12.5096 10.8845C12.4291 11.0345 12.2726 11.1282 12.1025 11.1282H4.25639V15.0718ZM4.25639 5.5897V10.2051H11.2402L9.87239 8.15355C9.769 7.99847 9.769 7.79655 9.87239 7.64147L11.2402 5.5897H4.25639Z" fill="white"/>
</svg>
