<svg width="24" height="24" viewBox="0 0 24 24" fill="none" xmlns="http://www.w3.org/2000/svg">
    <path d="M24 12C24 18.6274 18.6274 24 12 24C5.37258 24 0 18.6274 0 12C0 5.37258 5.37258 0 12 0C18.6274 0 24 5.37258 24 12Z" fill="#9300D8"/>
    <path fill-rule="evenodd" clip-rule="evenodd" d="M6.38462 22.6078C5.90263 22.3521 5.44016 22.0645 5 21.7479V7.69231C5 7.31015 5.31015 7 5.69231 7H18.1538C18.409 7 18.6437 7.14054 18.7645 7.36554C18.8846 7.59054 18.8714 7.86365 18.7298 8.07619L16.2164 11.8462L18.7298 15.6161C18.8718 15.8287 18.8849 16.1018 18.7645 16.3268C18.6437 16.5518 18.409 16.6923 18.1538 16.6923H6.38462V22.6078ZM6.38462 8.38461V15.3077H16.8603L14.8086 12.2304C14.6535 11.9978 14.6535 11.6949 14.8086 11.4623L16.8603 8.38461H6.38462Z" fill="white"/>
</svg>
