<svg width="60" height="60" viewBox="0 0 60 60" fill="none" xmlns="http://www.w3.org/2000/svg">
<path fill-rule="evenodd" clip-rule="evenodd" d="M30.7598 28.8486C30.4838 29.4559 29.6004 29.4559 29.2692 28.8486C29.2692 28.8486 26.2879 22.9964 24.9077 20.2912C23.5274 17.5859 24.6316 14.0525 27.4473 12.6171C30.263 11.1816 33.6859 12.341 35.1214 15.1567C35.9495 16.813 35.9495 18.6901 35.1214 20.2912C34.2932 21.9475 30.7598 28.8486 30.7598 28.8486ZM33.0234 17.7516C33.0234 16.0953 31.6984 14.7702 30.0421 14.7702C28.3858 14.7702 27.0608 16.0953 27.0608 17.7516C27.0608 19.4078 28.3858 20.7328 30.0421 20.7328C31.6984 20.7328 33.0234 19.4078 33.0234 17.7516ZM56.9843 47.5646L46.881 25.4256C46.7153 25.0392 46.3841 24.8184 45.9424 24.8184H35.0662C34.9005 25.1496 34.7211 25.4947 34.5417 25.8397C34.3623 26.1848 34.1828 26.5299 34.0172 26.8611H45.2799L54.4998 46.9573H5.58443L14.8044 26.8611H26.0119L24.9629 24.8184H14.1419C13.7554 24.8184 13.3689 25.0392 13.2033 25.4256L3.10001 47.5646C2.93438 47.8959 2.98958 48.2271 3.15521 48.5583C3.32083 48.8344 3.65209 49 3.98335 49H56.0457C56.377 49 56.7082 48.8344 56.8738 48.5583C57.0947 48.2271 57.1499 47.8959 56.9843 47.5646ZM33.1891 32.2164C32.8579 32.4372 32.7474 32.8237 32.9131 33.2102C33.0235 33.431 33.2995 33.5414 33.5204 33.5414C33.6308 33.5414 33.7412 33.4862 33.8516 33.431C33.9068 33.3758 34.1277 33.2654 34.1277 33.2654C34.5693 33.0445 35.0662 32.9341 35.563 32.8237L35.5631 32.8237L35.5633 32.8237C35.9497 32.7685 36.3361 32.7133 36.7225 32.7133H37.109C37.4954 32.7133 37.8267 32.382 37.8267 31.9955C37.8267 31.6091 37.4954 31.2778 37.109 31.2778H36.6673C36.2256 31.2778 35.7839 31.333 35.3423 31.3882C34.6797 31.4986 34.0173 31.6643 33.4652 31.9403C33.563 32.0382 33.3573 32.136 33.2324 32.1955L33.2323 32.1955C33.2163 32.2031 33.2016 32.2101 33.1891 32.2164ZM30.8702 34.4799C30.815 34.5351 30.6494 34.8112 30.6494 34.8112C30.5646 34.9384 30.4879 35.0656 30.4131 35.1897L30.413 35.1899L30.413 35.1899C30.2931 35.3889 30.1781 35.5798 30.0421 35.7497C29.916 35.9389 29.7979 36.1361 29.6786 36.3352L29.6785 36.3354L29.6784 36.3354C29.4845 36.6592 29.2876 36.988 29.0483 37.2956C29.0483 37.2956 28.8827 37.5716 28.8275 37.5716C28.6066 37.9029 28.6619 38.3445 28.9379 38.5654C29.0483 38.6758 29.214 38.731 29.3796 38.731C29.6004 38.731 29.8213 38.6206 29.9317 38.455C29.951 38.4356 29.984 38.3891 30.021 38.3368L30.021 38.3368L30.021 38.3368C30.0895 38.24 30.1719 38.1237 30.2077 38.1237C30.5942 37.5716 30.9255 37.0195 31.2567 36.4674C31.3395 36.3018 31.4361 36.15 31.5328 35.9982C31.6294 35.8463 31.726 35.6945 31.8088 35.5289C31.8088 35.5289 31.9744 35.2528 32.0296 35.1976C32.2505 34.8664 32.14 34.4247 31.864 34.2039C31.5327 34.0935 31.0911 34.2039 30.8702 34.4799ZM26.8952 39.3936C26.84 39.4488 26.6191 39.5593 26.5639 39.5593C25.9014 39.8353 25.1837 40.0561 24.3556 40.1665C24.2506 40.1665 23.9903 40.1887 23.7997 40.205L23.7996 40.205C23.6896 40.2143 23.6028 40.2217 23.5826 40.2217C23.1962 40.2217 22.8649 40.553 22.9201 40.9395C22.9201 41.326 23.2514 41.602 23.6379 41.602C23.7934 41.602 24.0191 41.5844 24.2161 41.5691C24.3687 41.5573 24.5041 41.5468 24.5764 41.5468C25.5702 41.4364 26.3983 41.1603 27.1712 40.8291C27.2264 40.8291 27.5025 40.6634 27.5577 40.6082C27.889 40.4426 28.0546 40.0009 27.8337 39.6696C27.6681 39.3384 27.2264 39.228 26.8952 39.3936ZM19.994 41.1051C19.0003 40.6634 18.1169 39.9457 17.3992 39.0623C17.3837 39.0468 17.3595 39.0139 17.3315 38.9758C17.2597 38.8782 17.1629 38.7466 17.1232 38.7863C16.9023 38.455 16.9576 38.0134 17.2888 37.7925C17.6201 37.5717 18.0617 37.6269 18.2826 37.9582C18.3378 38.0134 18.5034 38.2342 18.5034 38.2342C19.0555 38.9519 19.718 39.504 20.5461 39.8353C20.5737 39.8353 20.6427 39.8629 20.7118 39.8905L20.7118 39.8905L20.7118 39.8905C20.7808 39.9181 20.8498 39.9457 20.8774 39.9457C21.2639 40.0561 21.4295 40.4426 21.3191 40.8291C21.2087 41.1603 20.9326 41.3259 20.6566 41.3259C20.5093 41.3259 20.2885 41.2278 20.1413 41.1623C20.0677 41.1296 20.0124 41.1051 19.994 41.1051ZM40.808 32.1612C42.1882 32.9341 42.9059 33.9831 43.182 34.5352C43.182 34.5904 43.3476 34.9217 43.4028 34.8665C43.5132 35.1977 43.3476 35.6394 42.9612 35.7498C42.906 35.805 42.7956 35.805 42.7403 35.805H42.7403C42.4643 35.805 42.1882 35.6394 42.0778 35.3633C42.0778 35.3633 41.9674 35.1977 41.9674 35.1425C41.7465 34.7008 41.1944 33.9279 40.1455 33.3758C40.1179 33.3758 40.0488 33.3344 39.9798 33.293C39.9108 33.2516 39.8418 33.2102 39.8142 33.2102C39.483 33.0446 39.3173 32.6029 39.4829 32.2716C39.6486 31.9404 40.0903 31.7747 40.4215 31.9403C40.4767 31.9955 40.7528 32.1612 40.808 32.1612ZM44.8935 36.5227C44.6174 36.2467 44.1205 36.3018 43.8997 36.6331L43.1819 37.5165L42.409 36.7988C42.133 36.5227 41.6913 36.5779 41.4152 36.8539C41.1392 37.13 41.1944 37.5717 41.4705 37.8477L42.2986 38.6207L41.5257 39.5592C41.2496 39.8353 41.3048 40.3321 41.6361 40.553C41.7465 40.6634 41.9121 40.7186 42.0778 40.7186C42.2986 40.7186 42.4642 40.6082 42.6299 40.4426L43.3476 39.5592L44.2309 40.3874C44.3414 40.4978 44.5622 40.553 44.7278 40.553C44.9486 40.553 45.1143 40.4978 45.2799 40.3321C45.5559 40.0561 45.5007 39.6144 45.2247 39.3384L44.2861 38.5102L45.0591 37.5717C45.2247 37.2404 45.1695 36.7988 44.8935 36.5227ZM16.9023 34.5904C17.5096 34.5904 18.0065 35.0873 18.0065 35.6946C18.0065 36.3571 17.5096 36.854 16.9023 36.7988H16.2398C15.6325 36.7988 15.1356 36.3019 15.1356 35.6946C15.1356 35.0873 15.6325 34.5904 16.2398 34.5904H16.9023Z" fill="#3D44FF"/>
</svg>
