<svg width="24" height="24" viewBox="0 0 24 24" fill="none" xmlns="http://www.w3.org/2000/svg">
<path fill-rule="evenodd" clip-rule="evenodd" d="M9.18611 16.8832C9.18611 16.9493 9.10723 17.0023 9.00786 17.0023C8.89474 17.0122 8.81591 16.9593 8.81591 16.8832C8.81591 16.817 8.89474 16.7641 8.99418 16.7641C9.09698 16.7541 9.18611 16.8071 9.18611 16.8832ZM8.12012 16.7343C8.09614 16.8005 8.16472 16.8766 8.26753 16.8964C8.35666 16.9295 8.45947 16.8964 8.48001 16.8302C8.50063 16.7641 8.43549 16.688 8.33268 16.6582C8.24355 16.635 8.14418 16.6681 8.12012 16.7343ZM9.63506 16.6781C9.53569 16.7012 9.46711 16.7641 9.47742 16.8402C9.48773 16.9063 9.57679 16.9493 9.67966 16.9262C9.77903 16.903 9.84755 16.8402 9.83731 16.774C9.827 16.7111 9.7345 16.6681 9.63506 16.6781ZM11.8903 4C7.13647 4 3.5 7.48382 3.5 12.0727C3.5 15.7418 5.89236 18.8815 9.30946 19.9865C9.74817 20.0626 9.90246 19.8012 9.90246 19.5862C9.90246 19.3811 9.89215 18.2496 9.89215 17.5548C9.89215 17.5548 7.49291 18.0511 6.98913 16.5689C6.98913 16.5689 6.59838 15.6061 6.03632 15.358C6.03632 15.358 5.2514 14.8385 6.09109 14.8485C6.09109 14.8485 6.94453 14.9146 7.4141 15.7021C8.16473 16.9791 9.42258 16.6119 9.91269 16.3935C9.99151 15.8642 10.2143 15.4969 10.4611 15.2786C8.54516 15.0734 6.61213 14.8055 6.61213 11.6227C6.61213 10.7129 6.87258 10.2563 7.42097 9.67402C7.33184 9.45898 7.04054 8.5723 7.5101 7.42757C8.22644 7.21252 9.87503 8.32086 9.87503 8.32086C10.5604 8.13559 11.2974 8.03964 12.0274 8.03964C12.7574 8.03964 13.4944 8.13559 14.1799 8.32086C14.1799 8.32086 15.8284 7.20922 16.5447 7.42757C17.0143 8.57561 16.723 9.45898 16.6339 9.67402C17.1823 10.2596 17.5182 10.7162 17.5182 11.6227C17.5182 14.8154 15.4994 15.0701 13.5835 15.2786C13.8988 15.5399 14.1661 16.0362 14.1661 16.8137C14.1661 17.9287 14.1558 19.3083 14.1558 19.5796C14.1558 19.7946 14.3135 20.056 14.7488 19.9799C18.1762 18.8815 20.5 15.7418 20.5 12.0727C20.5 7.48382 16.6442 4 11.8903 4ZM6.83141 15.4109C6.78688 15.444 6.79719 15.5201 6.85547 15.583C6.91031 15.6359 6.98913 15.659 7.03366 15.616C7.07819 15.583 7.06796 15.5069 7.00968 15.444C6.95484 15.3911 6.87602 15.3679 6.83141 15.4109ZM6.46129 15.1429C6.43731 15.1859 6.4716 15.2389 6.54012 15.272C6.59496 15.305 6.66354 15.2951 6.68752 15.2488C6.71151 15.2058 6.67721 15.1528 6.6087 15.1198C6.54011 15.0999 6.48528 15.1098 6.46129 15.1429ZM7.57173 16.3207C7.5169 16.3637 7.53752 16.463 7.61634 16.5259C7.69516 16.602 7.79453 16.6119 7.83913 16.5589C7.88366 16.5159 7.86311 16.4167 7.79453 16.3538C7.71914 16.2777 7.61634 16.2678 7.57173 16.3207ZM7.18106 15.8344C7.12622 15.8675 7.12622 15.9535 7.18106 16.0296C7.2359 16.1057 7.3284 16.1388 7.37301 16.1057C7.42785 16.0627 7.42785 15.9767 7.37301 15.9006C7.32497 15.8245 7.2359 15.7914 7.18106 15.8344Z" fill="#12223F"/>
</svg>
