<svg width="24" height="18" viewBox="0 0 24 18" fill="none" xmlns="http://www.w3.org/2000/svg">
<path d="M13.2107 9.26804C13.2107 12.3155 10.757 14.7859 7.73043 14.7859C4.70385 14.7859 2.25 12.3149 2.25 9.26804C2.25 6.22117 4.70366 3.75 7.73043 3.75C10.7572 3.75 13.2107 6.22061 13.2107 9.26804ZM19.2227 9.26804C19.2227 12.1365 17.9959 14.4629 16.4825 14.4629C14.9691 14.4629 13.7423 12.1365 13.7423 9.26804C13.7423 6.39954 14.9689 4.07323 16.4823 4.07323C17.9957 4.07323 19.2225 6.3988 19.2225 9.26804H19.2227ZM21.6818 9.26804C21.6818 11.8375 21.2504 13.9218 20.718 13.9218C20.1857 13.9218 19.7545 11.8381 19.7545 9.26804C19.7545 6.69801 20.1859 4.61431 20.718 4.61431C21.2502 4.61431 21.6818 6.69782 21.6818 9.26804Z" fill="#51585E"/>
</svg>
