<svg width="73" height="72" viewBox="0 0 73 72" fill="none" xmlns="http://www.w3.org/2000/svg">
<path fill-rule="evenodd" clip-rule="evenodd" d="M36.5 12C23.2419 12 12.5 22.7419 12.5 36C12.5 49.2581 23.2419 60 36.5 60C49.7581 60 60.5 49.2581 60.5 36C60.5 22.7419 49.7581 12 36.5 12ZM48.2871 28.4419L44.3485 47.0032C44.058 48.3194 43.2741 48.6387 42.1807 48.0194L36.1806 43.5968L33.287 46.3839C32.9678 46.7032 32.6968 46.9742 32.0774 46.9742L32.5033 40.8677L43.6226 30.8226C44.1065 30.3968 43.5161 30.1548 42.8775 30.5806L29.1355 39.2322L23.213 37.3839C21.9258 36.9774 21.8968 36.0968 23.4838 35.4774L46.6225 26.5548C47.6967 26.1677 48.6354 26.8161 48.2871 28.4419Z" fill="#193362"/>
</svg>
