<svg width="72" height="72" viewBox="0 0 72 72" fill="none" xmlns="http://www.w3.org/2000/svg">
<path d="M55.0859 27.7089C55.1152 28.1321 55.1152 28.5552 55.1152 28.9822C55.1152 41.9937 45.209 57 27.0952 57V56.9922C21.7443 57 16.5046 55.4674 12 52.5777C12.7781 52.6713 13.56 52.7181 14.3439 52.72C18.7783 52.7239 23.0859 51.2362 26.5745 48.4966C22.3605 48.4166 18.6652 45.6693 17.3743 41.6584C18.8505 41.9431 20.3715 41.8846 21.8204 41.4887C17.2261 40.5606 13.9208 36.5243 13.9208 31.8368C13.9208 31.7939 13.9208 31.753 13.9208 31.712C15.2897 32.4744 16.8224 32.8976 18.3902 32.9444C14.0631 30.0527 12.7293 24.2967 15.3424 19.7963C20.3422 25.9482 27.7192 29.6881 35.6383 30.0839C34.8446 26.6638 35.9288 23.0799 38.4873 20.6757C42.4536 16.9476 48.6918 17.1387 52.4202 21.1028C54.6257 20.6679 56.7396 19.8587 58.674 18.7122C57.9388 20.9916 56.4002 22.9279 54.3449 24.1582C56.2969 23.9281 58.204 23.4056 60 22.6081C58.6779 24.5891 57.0126 26.3148 55.0859 27.7089Z" fill="#193362"/>
</svg>
