<svg width="24" height="24" viewBox="0 0 24 24" fill="none" xmlns="http://www.w3.org/2000/svg">
<path fill-rule="evenodd" clip-rule="evenodd" d="M12 4C7.58063 4 4 7.58064 4 12C4 16.4194 7.58063 20 12 20C16.4194 20 20 16.4194 20 12C20 7.58064 16.4194 4 12 4ZM15.929 9.48064L14.6162 15.6677C14.5193 16.1065 14.258 16.2129 13.8936 16.0065L11.8935 14.5323L10.929 15.4613C10.8226 15.5677 10.7323 15.6581 10.5258 15.6581L10.6678 13.6226L14.3742 10.2742C14.5355 10.1323 14.3387 10.0516 14.1258 10.1935L9.54515 13.0774L7.571 12.4613C7.14192 12.3258 7.13228 12.0323 7.66128 11.8258L15.3742 8.85161C15.7322 8.72258 16.0451 8.93871 15.929 9.48064Z" fill="#4996D0"/>
</svg>
