<svg width="24" height="24" viewBox="0 0 24 24" fill="none" xmlns="http://www.w3.org/2000/svg">
<path d="M18.362 9.23632C18.3717 9.37736 18.3717 9.5184 18.3717 9.66074C18.3717 13.9979 15.0697 19 9.03173 19V18.9974C7.2481 19 5.50152 18.4891 4 17.5259C4.25935 17.5571 4.52001 17.5727 4.78131 17.5733C6.25944 17.5746 7.69531 17.0787 8.85818 16.1655C7.4535 16.1389 6.22173 15.2231 5.79143 13.8861C6.28349 13.981 6.79049 13.9615 7.27345 13.8296C5.74203 13.5202 4.64026 12.1748 4.64026 10.6123C4.64026 10.598 4.64026 10.5843 4.64026 10.5707C5.09657 10.8248 5.60748 10.9659 6.13008 10.9815C4.68771 10.0176 4.2431 8.09889 5.11412 6.59878C6.78074 8.6494 9.23973 9.89602 11.8794 10.028C11.6149 8.88794 11.9763 7.69331 12.8291 6.89191C14.1512 5.64919 16.2306 5.71289 17.4734 7.03426C18.2086 6.88931 18.9132 6.61958 19.558 6.23741C19.3129 6.99721 18.8001 7.64262 18.115 8.05274C18.7656 7.97605 19.4013 7.80186 20 7.53602C19.5593 8.19638 19.0042 8.7716 18.362 9.23632Z" fill="#509DD0"/>
</svg>
