<svg width="72" height="72" viewBox="0 0 72 72" fill="none" xmlns="http://www.w3.org/2000/svg">
<path d="M52.634 20.9842C49.5747 19.6029 46.294 18.5853 42.8638 18.0024C42.8013 17.9912 42.7389 18.0193 42.7067 18.0755C42.2848 18.8139 41.8175 19.7772 41.4902 20.5344C37.8008 19.9909 34.1304 19.9909 30.5166 20.5344C30.1893 19.7604 29.705 18.8139 29.2811 18.0755C29.249 18.0212 29.1866 17.9931 29.1241 18.0024C25.6958 18.5834 22.4151 19.6011 19.3539 20.9842C19.3274 20.9954 19.3047 21.0142 19.2896 21.0386C13.0668 30.1862 11.3621 39.1091 12.1984 47.9213C12.2021 47.9644 12.2267 48.0056 12.2608 48.0318C16.3664 50.9986 20.3434 52.7996 24.2466 53.9934C24.309 54.0122 24.3752 53.9897 24.415 53.9391C25.3383 52.6985 26.1613 51.3903 26.867 50.0146C26.9086 49.9341 26.8688 49.8385 26.7837 49.8066C25.4783 49.3194 24.2352 48.7252 23.0395 48.0506C22.9449 47.9962 22.9373 47.8631 23.0243 47.7994C23.2759 47.6139 23.5276 47.4208 23.7679 47.2259C23.8114 47.1903 23.872 47.1828 23.9231 47.2053C31.7786 50.7343 40.2831 50.7343 48.0459 47.2053C48.097 47.1809 48.1576 47.1885 48.203 47.224C48.4433 47.419 48.6949 47.6139 48.9484 47.7994C49.0354 47.8631 49.0298 47.9962 48.9352 48.0506C47.7394 48.7383 46.4964 49.3194 45.189 49.8048C45.1039 49.8366 45.0661 49.9341 45.1077 50.0146C45.8285 51.3884 46.6515 52.6965 47.5578 53.9372C47.5956 53.9897 47.6637 54.0122 47.7262 53.9934C51.6483 52.7996 55.6252 50.9986 59.7309 48.0318C59.7668 48.0056 59.7895 47.9662 59.7933 47.9231C60.7942 37.7353 58.117 28.8856 52.6964 21.0404C52.6832 21.0142 52.6605 20.9954 52.634 20.9842ZM28.04 42.5555C25.675 42.5555 23.7263 40.4191 23.7263 37.7953C23.7263 35.1714 25.6372 33.035 28.04 33.035C30.4617 33.035 32.3916 35.1902 32.3538 37.7953C32.3538 40.4191 30.4428 42.5555 28.04 42.5555ZM43.9895 42.5555C41.6245 42.5555 39.6758 40.4191 39.6758 37.7953C39.6758 35.1714 41.5867 33.035 43.9895 33.035C46.4113 33.035 48.3411 35.1902 48.3033 37.7953C48.3033 40.4191 46.4113 42.5555 43.9895 42.5555Z" fill="#193362"/>
</svg>
