<svg width="72" height="72" viewBox="0 0 72 72" fill="none" xmlns="http://www.w3.org/2000/svg">
<path fill-rule="evenodd" clip-rule="evenodd" d="M27.5583 50.6495C27.5583 50.848 27.3217 51.0069 27.0236 51.0069C26.6842 51.0366 26.4477 50.8778 26.4477 50.6495C26.4477 50.451 26.6842 50.2922 26.9825 50.2922C27.291 50.2624 27.5583 50.4212 27.5583 50.6495ZM24.3604 50.2029C24.2884 50.4014 24.4942 50.6297 24.8026 50.6892C25.07 50.7885 25.3784 50.6892 25.44 50.4907C25.5019 50.2922 25.3065 50.0639 24.9981 49.9746C24.7307 49.9051 24.4325 50.0044 24.3604 50.2029ZM28.9052 50.0342C28.6071 50.1036 28.4013 50.2922 28.4323 50.5205C28.4632 50.719 28.7304 50.848 29.039 50.7786C29.3371 50.7091 29.5426 50.5205 29.5119 50.322C29.481 50.1334 29.2035 50.0044 28.9052 50.0342ZM35.671 12C21.4094 12 10.5 22.4515 10.5 36.218C10.5 47.2253 17.6771 56.6445 27.9284 59.9596C29.2445 60.1878 29.7074 59.4037 29.7074 58.7586C29.7074 58.1432 29.6764 54.7487 29.6764 52.6644C29.6764 52.6644 22.4787 54.1532 20.9674 49.7066C20.9674 49.7066 19.7952 46.8183 18.109 46.0739C18.109 46.0739 15.7542 44.5156 18.2733 44.5454C18.2733 44.5454 20.8336 44.7439 22.2423 47.1062C24.4942 50.9374 28.2677 49.8356 29.7381 49.1806C29.9745 47.5925 30.6429 46.4908 31.3832 45.8357C25.6355 45.2203 19.8364 44.4164 19.8364 34.8681C19.8364 32.1387 20.6177 30.7689 22.2629 29.0221C21.9955 28.3769 21.1216 25.7169 22.5303 22.2827C24.6793 21.6376 29.6251 24.9626 29.6251 24.9626C31.6813 24.4068 33.8922 24.1189 36.0823 24.1189C38.2723 24.1189 40.4832 24.4068 42.5396 24.9626C42.5396 24.9626 47.4852 21.6277 49.6342 22.2827C51.0429 25.7268 50.169 28.3769 49.9016 29.0221C51.5468 30.7789 52.5545 32.1486 52.5545 34.8681C52.5545 44.4462 46.4981 45.2104 40.7504 45.8357C41.6964 46.6198 42.4984 48.1086 42.4984 50.4411C42.4984 53.786 42.4674 57.9249 42.4674 58.7387C42.4674 59.3839 42.9406 60.168 44.2464 59.9397C54.5287 56.6445 61.5 47.2253 61.5 36.218C61.5 22.4515 49.9326 12 35.671 12ZM20.4942 46.2327C20.3607 46.332 20.3916 46.5603 20.5664 46.7489C20.7309 46.9077 20.9674 46.9771 21.101 46.8481C21.2346 46.7489 21.2039 46.5206 21.029 46.332C20.8645 46.1732 20.628 46.1037 20.4942 46.2327ZM19.3839 45.4288C19.3119 45.5578 19.4148 45.7166 19.6203 45.8159C19.7849 45.9151 19.9906 45.8853 20.0626 45.7464C20.1345 45.6173 20.0316 45.4585 19.8261 45.3593C19.6203 45.2997 19.4558 45.3295 19.3839 45.4288ZM22.7152 48.9622C22.5507 49.0912 22.6126 49.389 22.849 49.5776C23.0855 49.8059 23.3836 49.8357 23.5174 49.6768C23.651 49.5478 23.5893 49.2501 23.3836 49.0615C23.1574 48.8332 22.849 48.8034 22.7152 48.9622ZM21.5432 47.5032C21.3787 47.6024 21.3787 47.8605 21.5432 48.0888C21.7077 48.3171 21.9852 48.4163 22.119 48.3171C22.2835 48.188 22.2835 47.93 22.119 47.7017C21.9749 47.4734 21.7077 47.3741 21.5432 47.5032Z" fill="#193362"/>
</svg>
