<svg width="72" height="54" viewBox="0 0 72 54" fill="none" xmlns="http://www.w3.org/2000/svg">
<path d="M39.632 27.8041C39.632 36.9464 32.2711 44.3577 23.1913 44.3577C14.1116 44.3577 6.75 36.9448 6.75 27.8041C6.75 18.6635 14.111 11.25 23.1913 11.25C32.2716 11.25 39.632 18.6618 39.632 27.8041ZM57.6681 27.8041C57.6681 36.4096 53.9876 43.3886 49.4474 43.3886C44.9073 43.3886 41.2268 36.4096 41.2268 27.8041C41.2268 19.1986 44.9067 12.2197 49.4469 12.2197C53.987 12.2197 57.6675 19.1964 57.6675 27.8041H57.6681ZM65.0453 27.8041C65.0453 35.5126 63.7511 41.7653 62.1541 41.7653C60.5571 41.7653 59.2634 35.5142 59.2634 27.8041C59.2634 20.094 60.5576 13.8429 62.1541 13.8429C63.7505 13.8429 65.0453 20.0935 65.0453 27.8041Z" fill="#193362"/>
</svg>
